<?xml version="1.0" encoding="UTF-8"?>
<!DOCTYPE svg PUBLIC "-//W3C//DTD SVG 1.1//EN" "http://www.w3.org/Graphics/SVG/1.1/DTD/svg11.dtd">
<!-- Creator: CorelDRAW 2019 (64-Bit) -->
<svg xmlns="http://www.w3.org/2000/svg" xml:space="preserve" width="37.0416mm" height="33.5138mm" version="1.1" style="shape-rendering:geometricPrecision; text-rendering:geometricPrecision; image-rendering:optimizeQuality; fill-rule:evenodd; clip-rule:evenodd"
viewBox="0 0 3669.21 3319.76"
 xmlns:xlink="http://www.w3.org/1999/xlink">
 <defs>
  <style type="text/css">
   <![CDATA[
    .fil0 {fill:none}
    .fil1 {fill:#A2D210}
    .fil2 {fill:#115338}
   ]]>
  </style>
 </defs>
 <g id="Capa_x0020_1">
  <metadata id="CorelCorpID_0Corel-Layer"/>
  <g id="_1882340016">
   <rect class="fil0" width="3669.21" height="3319.76"/>
   <g>
    <g>
     <polygon class="fil1" points="1593.37,1233.74 1737.57,1233.74 1737.57,1139.89 1336.93,1139.89 1336.93,1233.74 1481.13,1233.74 1481.13,1671.66 1593.37,1671.66 "/>
     <polygon class="fil1" points="2254.24,1139.89 2142,1139.89 2142,1348.44 1931.65,1348.44 1931.65,1139.89 1819.41,1139.89 1819.41,1671.66 1931.65,1671.66 1931.65,1442.27 2142,1442.27 2142,1671.66 2254.24,1671.66 "/>
     <polygon class="fil1" points="2500.38,1671.66 2500.38,1139.89 2388.13,1139.89 2388.13,1671.66 "/>
     <path class="fil1" d="M3104.72 1139.89l-101.09 0 0 251.73c0,28.3 1.49,77.46 5.2,146.72l-2.23 0 -230.42 -398.45 -141.98 0 0 531.77 100.34 0 0 -250.24c0,-30.54 -2.23,-81.19 -6.69,-151.93l2.97 0 231.17 402.17 142.71 0 0 -531.77z"/>
     <polygon class="fil1" points="3478.6,1375.24 3663.69,1139.89 3538.8,1139.89 3395.35,1320.88 3350.75,1383.43 3350.75,1139.89 3238.51,1139.89 3238.51,1671.66 3350.75,1671.66 3350.75,1481.75 3398.32,1447.48 3537.32,1671.66 3665.17,1671.66 "/>
     <path class="fil2" d="M1609.82 2011.45l157.58 0 0 186.93c-34.19,14.16 -75.82,20.85 -124.14,20.85 -75.82,0 -133.05,-20.1 -171.7,-60.32 -39.39,-40.97 -58.72,-101.3 -58.72,-180.99 0,-73.73 20.81,-132.57 61.7,-175.77 40.88,-43.19 96.63,-64.79 166.49,-64.79 49.06,0 96.63,10.43 142.72,32.02l14.86 -33.51c-46.08,-20.86 -98.12,-31.28 -155.35,-31.28 -53.51,0 -101.09,11.17 -141.97,34.25 -41.62,23.09 -73.59,55.12 -95.14,96.83 -22.3,41.7 -33.45,90.11 -33.45,143.74 0,87.13 22.31,154.16 66.9,201.83 44.6,46.92 108.52,70.76 192.52,70.76 63.92,0 121.9,-11.17 173.19,-32.78l0 -242.79 -195.49 0 0 35.01z"/>
     <path class="fil2" d="M2107.19 2012.94l136.77 231.62 44.6 0 -144.2 -242.05c37.91,-11.17 66.89,-28.3 85.48,-52.88 18.58,-24.58 28.25,-54.36 28.25,-90.11 0,-49.16 -16.35,-85.65 -47.58,-110.23 -31.21,-24.58 -80.28,-36.49 -145.68,-36.49l-126.37 0 0 531.77 37.17 0 0 -231.62 131.57 0zm-131.57 -267.37l87.71 0c54.26,0 93.65,8.93 118.18,27.56 24.53,18.62 36.42,48.41 36.42,88.63 0,39.47 -12.64,69.27 -37.17,89.37 -24.53,20.12 -59.46,29.8 -104.07,29.8l-101.09 0 0 -235.35z"/>
     <polygon class="fil2" points="2670.05,2210.3 2417.33,2210.3 2417.33,1982.4 2655.92,1982.4 2655.92,1948.15 2417.33,1948.15 2417.33,1747.06 2670.05,1747.06 2670.05,1712.8 2380.16,1712.8 2380.16,2244.56 2670.05,2244.56 "/>
     <polygon class="fil2" points="3080.17,2210.3 2827.45,2210.3 2827.45,1982.4 3066.06,1982.4 3066.06,1948.15 2827.45,1948.15 2827.45,1747.06 3080.17,1747.06 3080.17,1712.8 2790.29,1712.8 2790.29,2244.56 3080.17,2244.56 "/>
     <path class="fil2" d="M3586.18 1712.8l-35.67 0 0 347.06c0,39.46 0.74,80.43 2.97,124.38l-2.23 0 -313.68 -471.44 -37.16 0 0 531.77 35.67 0 0 -344.83c0,-28.31 -1.49,-70.76 -4.46,-127.36l2.97 0 314.43 472.18 37.16 0 0 -531.77z"/>
    </g>
    <g>
     <path class="fil1" d="M735.59 1136.88c2.37,-12.77 10.52,-44.17 35.86,-64.23 0,0 -23.21,23.45 -29.94,52.53 0.01,0 12.59,0.63 22.49,-4.34 4.04,-2.02 7.62,-4.96 9.73,-9.26 7.31,-14.86 13.51,-47.34 25.69,-60.35 0,0 -17.19,2.1 -34,10.52 -19.54,9.81 -38.57,28.2 -29.39,61.88 0.01,-0.01 -2.17,6.55 -3.69,12.53 1.1,0.22 2.18,0.48 3.27,0.71z"/>
     <path class="fil1" d="M492.6 1149.41c1.19,-0.55 2.38,-1.09 3.57,-1.61 -2.77,-6.72 -6.63,-14.33 -6.63,-14.33 4.72,-39.65 -19.91,-57.23 -43.69,-65.02 -20.43,-6.7 -40.23,-6.15 -40.23,-6.15 15.98,12.65 28.47,48.36 39.25,63.92 3.1,4.51 7.66,7.24 12.56,8.85 12.04,3.94 26.17,1.09 26.17,1.09 -12.52,-31.77 -42.74,-54.35 -42.74,-54.35 32.87,18.85 47.31,54.26 51.75,67.62z"/>
     <path class="fil1" d="M294.16 1319.17c-11.16,-3.62 -38.3,-14.62 -53.28,-39.77 0,-0.01 18.27,23.62 43.54,33.1 0,0 2.04,-11.24 -1.25,-20.73 -1.34,-3.86 -3.55,-7.44 -7.15,-9.84 -12.44,-8.32 -40.82,-17.71 -51.03,-30.19 0,0 -0.15,15.7 5.43,31.81 6.49,18.73 20.72,38.01 51.97,33.71 0,0 5.4,2.62 10.49,4.68 0.42,-0.93 0.87,-1.83 1.3,-2.76z"/>
     <path class="fil1" d="M145.82 1603.53c-13.58,-4.05 -56.56,-19.5 -79.57,-58.12 0,0 26.26,33.97 62.56,47.58 0,0 2.93,-16.15 -1.78,-29.79 -1.92,-5.55 -5.11,-10.69 -10.28,-14.14 -17.89,-11.95 -58.66,-25.46 -73.34,-43.4 0,0 -0.21,22.57 7.81,45.71 9.32,26.93 29.78,54.62 74.68,48.44 0,0 10.53,5.11 18.63,8.11 0.42,-1.48 0.85,-2.94 1.3,-4.41z"/>
     <path class="fil1" d="M63.69 1878.8c0,0 41.61,10.35 78.52,-1.51 0,0 -7.69,-14.5 -19.82,-22.28 -4.93,-3.16 -10.62,-5.21 -16.81,-4.71 -21.43,1.72 -61.78,16.43 -84.4,11.47 0,0 13.8,17.85 34.39,31.03 23.96,15.34 57.16,24.39 88.57,-8.35 0,0 11.54,-2.55 19.75,-5.24 -0.28,-1.54 -0.5,-3.1 -0.75,-4.65 -11.73,4.8 -56.31,20.69 -99.45,4.22z"/>
     <path class="fil1" d="M371.12 2259.33c0,0 26.81,-12.23 41.62,-34.42 0,0 -10.32,-4.52 -20.17,-3.5 -4.01,0.41 -7.93,1.73 -11.05,4.66 -10.8,10.1 -26.24,35.29 -40.52,42.31 0,0 15.04,3.69 31.74,1.97 19.44,-2 41.16,-11.34 44.1,-42.41 0,0 5.86,-7.24 9.05,-12.31 -0.95,-0.51 -1.91,-0.98 -2.84,-1.51 -3.87,7.01 -21.14,35.44 -51.93,45.21z"/>
     <path class="fil1" d="M1037.44 2022.33c14.41,1.04 59.37,6.86 90.04,39.34 0,0 -33.01,-27.42 -71.4,-32.78 0,0 0.64,16.4 8.21,28.68 3.08,5 7.31,9.31 13.11,11.55 20.06,7.77 62.78,12.06 81.01,26.35 0,0 -4.7,-22.08 -17.55,-42.9 -14.95,-24.25 -40.93,-46.81 -83.41,-30.98 0,0 -10.72,-2.53 -19.18,-3.73 -0.26,1.5 -0.54,2.99 -0.83,4.49z"/>
     <path class="fil1" d="M1182.23 1811.61c0,0 -32.35,-6.34 -60.24,4.18 0,0 6.46,10.85 16.07,16.34 3.91,2.24 8.36,3.6 13.1,2.96 16.38,-2.15 46.79,-15 64.36,-12.07 0,0 -11.28,-13.16 -27.6,-22.5 -18.99,-10.87 -44.82,-16.52 -67.68,9.83 0,0 -8.91,2.44 -15.13,4.84 0.1,1.27 0.2,2.54 0.28,3.78 7.71,-3.71 42.2,-18.65 76.84,-7.38z"/>
     <path class="fil1" d="M1076 1713.53c-3.97,22.42 -11.61,43.96 -22.71,64.01 -4.39,7.32 -9.62,15.75 -15.54,23.65 -8.09,10.83 -16.24,19.02 -24.87,25.03 -9.68,6.77 -20.41,10.96 -31.9,12.45l-0.91 0.11c-1.12,0.15 -2,0.26 -3.61,0.35 -1.28,0.11 -2.89,0.19 -4.39,0.2 -1.46,0.04 -2.8,0.02 -4.33,-0.01l-4.7 -0.27c-6.15,-0.5 -12.22,-1.62 -18.12,-3.35 -10.71,-3.12 -21.92,-8.63 -34.27,-16.85 -4.68,-3.08 -9.17,-6.32 -13.94,-9.75 -6.14,-4.43 -12.5,-8.99 -19.24,-13.16 -4.48,-2.7 -11.33,-6.49 -18.91,-7.84 -3.29,-0.59 -6.8,-0.73 -10.06,-0.43 -0.31,0.02 -0.61,0.05 -0.92,0.08 0.31,0.02 0.61,0.03 0.92,0.05 3.3,0.16 6.5,0.74 9.74,1.79 5.37,1.77 10.55,4.83 16.79,9.95 5.68,4.7 10.99,9.77 16.59,15.15 4.17,3.99 8.48,8.11 12.94,12.06 8.43,7.5 16.31,13.35 24.21,18.01l-2.52 8.38c-5.71,15.55 -23.11,54.43 -60.4,74.64 0,0 34.98,-24.84 50.09,-60.6 0,0 -15.99,-3.63 -29.78,0.52 -5.62,1.69 -10.88,4.67 -14.53,9.7 -12.68,17.39 -27.86,57.63 -46.38,71.58 0,0 22.5,1.17 45.9,-5.88 27.25,-8.18 55.73,-27.49 51.47,-72.7 0,0 4.52,-8.41 7.85,-15.92l0 0 3.67 -6.73c1.72,0.89 3.45,1.74 5.18,2.54 6.61,3 13.55,5.35 20.66,6.95l5.3 1.09c1.69,0.29 3.7,0.59 5.48,0.81 1.88,0.25 3.63,0.42 5.62,0.54 1.43,0.13 3.89,0.22 5.55,0.23l1.62 0.02c14.34,0 29.47,-3.67 42.6,-10.34 7.79,-3.89 15.25,-8.8 22.85,-15 1.06,-0.86 2.51,-1.01 3.71,-0.42 1.22,0.59 1.97,1.85 1.93,3.21 -0.22,7.41 -0.9,15.16 -2.09,23.69 -3.11,22.54 -9.85,44.24 -20.01,64.47 -10.77,21.49 -25.08,40.81 -42.52,57.45 -0.21,0.46 -0.52,0.88 -0.91,1.22 -9.07,7.76 -18.34,14.58 -27.53,20.29 -19.57,12.15 -39.76,19.84 -59.98,22.85 -6.5,0.99 -13.21,1.51 -19.94,1.51 -15.27,0 -30.64,-2.56 -45.67,-7.57 -8.46,-2.82 -16.61,-6.27 -24.33,-10.32 7.04,5.31 14.61,10.1 22.6,14.32 21.27,11.26 44.85,17.36 68.21,17.65 0.91,0.02 1.8,0.03 2.69,0.03 22.22,0 45.23,-4.85 68.39,-14.41 0.9,-0.38 1.79,-0.76 2.68,-1.16l1.45 -0.64c1.25,-0.53 2.7,-0.3 3.71,0.63 1,0.92 1.38,2.35 0.94,3.66 -3.39,10.19 -7.78,19.99 -13.04,29.11 -5.82,10.11 -12.92,19.72 -21.09,28.53 -23.03,24.77 -53.86,41.64 -86.92,47.58 -21.27,22.26 -48.02,38.48 -77.42,46.94 -15.76,4.53 -31.8,6.82 -47.68,6.82 -15.97,0 -32.1,-2.32 -47.94,-6.89 -10.84,-3.14 -21.48,-7.41 -31.63,-12.69 -1.15,-0.59 -1.87,-1.78 -1.87,-3.08l0 -973.1c0,-1.49 0.93,-2.79 2.33,-3.28 13.32,-4.64 27.17,-6.98 41.14,-6.98 28.9,-0.01 56.23,9.8 79.02,28.33 1.22,0.98 1.62,2.66 0.99,4.1 -3.36,7.62 -6.88,15.29 -10.53,23.21 -6.17,13.53 -13.87,30.39 -19,48.29 -5.17,17.74 -7.27,36.2 -6.06,53.38 1.07,16.45 4.78,33.11 11.34,50.97 1.42,3.87 3,7.87 4.71,11.89 0.55,1.31 1.09,2.55 1.61,3.72 1.13,2.57 2.15,4.9 3.1,7.39 3.32,8.56 4.96,15.49 5.16,21.81 0.79,14.23 -7.76,28.88 -17.13,42.58 -5.07,7.39 -10.59,14.79 -15.92,21.95 -3,4.03 -6.07,8.16 -9.09,12.31 3.48,-3.73 7,-7.43 10.45,-11.03 6.17,-6.46 12.55,-13.12 18.67,-20.02 5.23,-5.97 10.72,-12.54 15.36,-20.06 3.57,-5.7 7.98,-14.67 8.9,-25.14 0.94,-10.1 -0.99,-19.57 -2.77,-26.69 -0.72,-2.93 -1.61,-5.91 -2.44,-8.65 -0.37,-1.24 -0.72,-2.43 -1.04,-3.54 -1.12,-3.93 -2.13,-7.83 -3,-11.58 -3.86,-16.47 -5.39,-32.02 -4.55,-46.2 0.84,-14.72 4.27,-28.94 10.5,-43.47 5.91,-13.91 14.02,-27.42 22.5,-41.21 4.09,-6.61 8.3,-13.4 12.46,-20.36 0.88,-1.48 2.71,-2.08 4.29,-1.42 19.78,8.21 37.98,19.28 54.07,32.88 14.07,11.89 26.51,25.59 36.98,40.72 4.13,5.94 8.1,12.46 11.83,19.37 0.55,1.03 0.55,2.28 -0.01,3.3 -0.55,1.03 -1.58,1.71 -2.75,1.81 -3.29,0.27 -5.97,0.56 -8.46,0.93 -15.74,2.33 -31.31,7.8 -45.05,15.8 -12.89,7.49 -24.61,17.28 -34.83,29.08 -4.11,4.74 -7.97,9.82 -11.59,15.21 4.91,-4.15 9.95,-7.91 15.1,-11.27 12.25,-8.02 25.09,-13.74 38.16,-17.01 12.96,-3.28 26.42,-4.06 39.18,-2.28 6.21,0.85 12.38,2.33 18.36,4.37 2.44,0.82 5.03,1.84 7.9,3.1 0.45,0.2 0.84,0.48 1.16,0.83 21.58,10.24 40.91,23.77 57.45,40.22 19.8,19.68 35.23,42.77 45.86,68.63 4.62,11.23 8.29,23.09 10.93,35.25 0.28,1.32 -0.22,2.67 -1.27,3.49 -1.07,0.82 -2.5,0.95 -3.68,0.35l-0.8 -0.43c-1.61,-0.82 -3.23,-1.65 -4.88,-2.39 -20.91,-9.36 -46.35,-12.05 -70.3,-7.55 -20.85,3.82 -41.11,12.02 -61.94,25.03 -17.99,11.31 -34.68,25.35 -49.59,41.68 -7.46,8.21 -14.17,16.73 -19.95,25.3l-4.37 6.78 -4.07 6.68c-2.75,4.55 -5.35,9.02 -7.94,13.55 -5.4,9.42 -10.69,19.04 -15.8,28.34 -4.81,8.74 -9.61,17.45 -14.51,26.07 -7.92,13.86 -17.35,29.74 -28.5,45.04 12.61,-14.18 23.6,-29.15 32.88,-42.25 5.79,-8.19 11.44,-16.45 17.08,-24.68 5.97,-8.72 12.14,-17.74 18.34,-26.45 2.99,-4.2 6.01,-8.43 9.04,-12.47l9.29 -12.04c6.15,-7.44 13.13,-14.7 20.78,-21.62 15.12,-13.64 31.55,-24.93 48.83,-33.56 18.8,-9.36 37.13,-14.82 54.46,-16.21 1.32,-0.11 2.62,-0.13 3.91,-0.19l1.65 8.96c1.58,12.28 4.78,54.12 -19.01,87.66 0,0 18.52,-34.19 16.54,-69.32 0,0 -14.43,3.46 -24,12.34 -3.88,3.63 -6.96,8.14 -7.93,13.7 -3.36,19.22 0.33,58.01 -9.16,76.74 0,0 18.75,-8.05 34.98,-23.15 18.87,-17.56 34.32,-44.65 12.84,-79.69 0,0 0.39,-10.61 -0.09,-18.42l0 -0.01 -0.48 -8.91c15.15,0.15 29.59,3.74 41.47,10.6 13.73,7.86 25.09,20.16 33.77,36.57 0.24,0.24 0.43,0.51 0.57,0.8 13.19,27 20.25,56.08 20.94,86.39 0.02,0.66 0.07,1.33 0.11,1.97 0.07,0.95 0.13,1.9 0.13,2.86 0,11.66 -1.11,23.58 -3.39,36.42zm-459.97 -259.97c-1.52,-1.37 -3.34,-2.65 -5.39,-3.88l0.01 717.69c0,1.3 -0.72,2.49 -1.87,3.08 -10.15,5.28 -20.8,9.55 -31.63,12.69 -15.84,4.58 -31.97,6.89 -47.94,6.89 -15.88,0 -31.93,-2.29 -47.68,-6.82 -29.4,-8.46 -56.16,-24.68 -77.43,-46.94 -33.06,-5.93 -63.89,-22.79 -86.91,-47.58 -8.16,-8.81 -15.26,-18.39 -21.1,-28.53 -5.25,-9.12 -9.64,-18.92 -13.04,-29.11 -0.43,-1.3 -0.05,-2.73 0.95,-3.66 1.01,-0.92 2.47,-1.17 3.71,-0.63l1.48 0.65c0.88,0.4 1.76,0.78 2.64,1.15 24.1,9.95 47.99,14.87 71.07,14.38 23.37,-0.29 46.95,-6.39 68.22,-17.65 8,-4.22 15.58,-9.01 22.61,-14.32 -7.72,4.04 -15.87,7.5 -24.33,10.32 -5.22,1.74 -10.5,3.17 -15.8,4.31 -9.29,-24.39 -16.26,-55.81 -5.13,-89.23 0,0 -8.81,35.51 1.28,67.02 0,0 12.33,-6.57 18.94,-16.92 2.69,-4.22 4.44,-9.06 4,-14.35 -1.47,-18.29 -13.98,-52.73 -9.76,-72.03 0.01,0 -15.18,11.78 -26.38,29.35 -13.05,20.47 -20.73,48.79 7.1,75.6 0,0 0.78,3.36 1.84,7.69 1.08,4.42 2.44,9.84 3.51,13.75 -15.22,2.77 -30.55,3.13 -45.23,0.87 -20.21,-3 -40.39,-10.69 -59.96,-22.84 -9.18,-5.7 -18.44,-12.52 -27.53,-20.29 -0.41,-0.34 -0.71,-0.76 -0.92,-1.23 -17.43,-16.64 -31.75,-35.97 -42.52,-57.44 -10.16,-20.24 -16.89,-41.93 -20,-64.48 -1.19,-8.53 -1.87,-16.28 -2.1,-23.68 -0.03,-1.36 0.71,-2.62 1.93,-3.22 1.22,-0.59 2.66,-0.44 3.71,0.43 7.6,6.2 15.07,11.1 22.84,14.99 13.15,6.68 28.28,10.35 42.61,10.35l1.59 -0.02c1.69,-0.02 4.16,-0.1 5.5,-0.22 2.08,-0.14 3.82,-0.31 5.67,-0.54 1.81,-0.23 3.82,-0.53 5.62,-0.85l5.28 -1.07c7.03,-1.59 13.98,-3.94 20.56,-6.94 11.58,-5.24 22.62,-12.72 34.77,-23.52 4.47,-3.95 8.78,-8.07 12.95,-12.07 5.61,-5.38 10.92,-10.45 16.57,-15.14 6.26,-5.12 11.44,-8.18 16.8,-9.95 3.25,-1.06 6.45,-1.64 9.8,-1.8 0.3,-0.02 0.58,-0.03 0.88,-0.05 -0.29,-0.02 -0.58,-0.05 -0.87,-0.07 -3.47,-0.34 -6.83,-0.18 -10.13,0.42 -7.58,1.35 -14.43,5.13 -18.92,7.86 -6.73,4.14 -13.08,8.72 -19.23,13.14 -4.75,3.43 -9.25,6.67 -13.95,9.76 -12.33,8.21 -23.55,13.72 -34.26,16.84 -5.88,1.72 -11.96,2.85 -18.04,3.34l-4.63 0.28c-1.75,0.03 -2.94,0.05 -4.51,0.01 -1.47,-0.01 -3.08,-0.09 -4.43,-0.2 -1.53,-0.09 -2.41,-0.2 -3.53,-0.35l-0.89 -0.11c-11.51,-1.5 -22.25,-5.69 -31.92,-12.45 -8.64,-6.01 -16.78,-14.2 -24.88,-25.03 -5.9,-7.89 -11.14,-16.33 -15.47,-23.56 -11.16,-20.15 -18.81,-41.69 -22.77,-64.11 -2.28,-12.85 -3.39,-24.75 -3.39,-36.42 0,-0.97 0.06,-1.91 0.13,-2.86 0.04,-0.64 0.09,-1.31 0.11,-1.97 0.69,-30.32 7.74,-59.38 20.94,-86.39 0.16,-0.33 0.36,-0.61 0.59,-0.87 8.69,-16.37 20.04,-28.66 33.76,-36.51 14.28,-8.23 32.17,-11.86 50.73,-10.29 17.32,1.38 35.65,6.83 54.45,16.2 17.28,8.63 33.71,19.92 48.83,33.56 7.65,6.91 14.63,14.18 20.75,21.58l4.66 5.89 4.66 6.17c3.03,4.05 6.06,8.28 9.05,12.48 6.19,8.71 12.36,17.73 18.34,26.45 5.63,8.23 11.28,16.49 17.08,24.69 9.27,13.09 20.26,28.05 32.87,42.24 -11.14,-15.3 -20.57,-31.18 -28.49,-45.04 -4.9,-8.62 -9.7,-17.32 -14.5,-26.07 -5.12,-9.3 -10.41,-18.92 -15.81,-28.34 -2.61,-4.53 -5.19,-9 -7.95,-13.56l-8.45 -13.47c-5.76,-8.54 -12.47,-17.06 -19.94,-25.28 -14.9,-16.32 -31.59,-30.36 -49.59,-41.68 -20.82,-13.01 -41.08,-21.2 -61.92,-25.02 -7.69,-1.45 -15.52,-2.17 -23.32,-2.17 -16.77,0 -32.58,3.27 -46.97,9.71 -1.68,0.74 -3.31,1.58 -4.92,2.42l-0.78 0.4c-1.19,0.61 -2.62,0.49 -3.68,-0.34 -1.06,-0.81 -1.56,-2.17 -1.27,-3.49 2.62,-12.15 6.3,-24.02 10.93,-35.25 10.64,-25.85 26.06,-48.94 45.86,-68.63 16.55,-16.44 35.88,-29.97 57.45,-40.23 0.33,-0.35 0.71,-0.62 1.16,-0.82 2.87,-1.26 5.47,-2.28 7.91,-3.11 5.96,-2.03 12.13,-3.5 18.35,-4.36 12.75,-1.79 26.2,-1 39.19,2.28 13.06,3.27 25.89,8.98 38.15,17.01 5.15,3.36 10.19,7.12 15.1,11.27 -3.62,-5.39 -7.48,-10.46 -11.59,-15.2 -10.22,-11.82 -21.94,-21.6 -34.83,-29.08 -13.74,-8.01 -29.31,-13.48 -45.05,-15.81 -2.49,-0.37 -5.18,-0.66 -8.46,-0.93 -1.17,-0.1 -2.2,-0.78 -2.76,-1.81 -0.55,-1.02 -0.55,-2.27 0,-3.3 3.73,-6.91 7.71,-13.43 11.83,-19.38 10.47,-15.13 22.91,-28.83 36.98,-40.71 16.11,-13.61 34.29,-24.67 54.07,-32.88 1.58,-0.66 3.42,-0.06 4.3,1.41 4.16,6.95 8.37,13.76 12.45,20.37 8.49,13.78 16.59,27.3 22.51,41.22 6.22,14.51 9.67,28.74 10.5,43.47 0.84,14.17 -0.68,29.72 -4.55,46.2 -0.87,3.75 -1.88,7.65 -3,11.56 -0.32,1.12 -0.67,2.31 -1.05,3.55 -0.81,2.73 -1.7,5.72 -2.43,8.64 -1.78,7.12 -3.71,16.59 -2.77,26.68 0.91,10.49 5.33,19.46 8.89,25.14 4.66,7.54 10.14,14.11 15.39,20.1 6.1,6.87 12.47,13.54 18.64,20 3.45,3.61 6.97,7.3 10.46,11.03 -3.02,-4.16 -6.09,-8.28 -9.09,-12.31 -5.33,-7.16 -10.84,-14.56 -15.92,-21.94 -9.37,-13.71 -17.93,-28.36 -17.13,-42.67 0.2,-6.24 1.84,-13.17 5.17,-21.74 0.95,-2.48 1.97,-4.81 3.09,-7.38 0.52,-1.19 1.06,-2.42 1.62,-3.73 1.69,-4.01 3.28,-8 4.7,-11.88 6.56,-17.86 10.26,-34.52 11.34,-50.95 1.2,-17.21 -0.89,-35.66 -6.06,-53.39 -5.13,-17.92 -12.83,-34.77 -19.01,-48.31 -3.64,-7.9 -7.16,-15.58 -10.52,-23.2 -0.63,-1.44 -0.23,-3.11 0.98,-4.1 22.79,-18.53 50.12,-28.33 79.02,-28.33 13.98,-0.01 27.82,2.35 41.15,6.98 1.4,0.49 2.32,1.8 2.32,3.28l0.01 210.97c0.69,1.21 1.41,2.41 2.08,3.68 10.09,19.14 12.96,38.58 13.08,39.4l2.31 16.12 -12.08 -10.89zm598.19 70.75c-23.38,-16.24 -56.2,-26.5 -88.81,5.03 0,0 -3.52,0.64 -8.06,1.61l0 -0.01 -0.05 0.02c-2.8,0.59 -5.98,1.33 -8.98,2.1l-10.58 2.48c-7.68,-79.82 -53.66,-152.63 -123.87,-193.84 -0.69,-0.42 -1.22,-1.05 -1.5,-1.8 -26.38,-71.96 -82.98,-127.4 -155.3,-152.07 -0.48,-0.16 -0.9,-0.43 -1.27,-0.77 -32.01,-30.47 -73.77,-47.26 -117.56,-47.26 -21.98,0 -43.58,4.29 -64.22,12.73 -0.84,0.35 -1.77,0.35 -2.62,0 -20.63,-8.44 -42.24,-12.73 -64.23,-12.73 -43.79,0 -85.55,16.79 -117.55,47.26 -0.37,0.35 -0.8,0.61 -1.28,0.77 -72.3,24.67 -128.91,80.11 -155.29,152.07 -0.28,0.75 -0.81,1.39 -1.51,1.8 -77.12,45.28 -125.02,128.65 -125.02,217.58 0,1.52 0.11,2.99 0.21,4.47 0.08,1.17 0.16,2.35 0.2,3.54 0.02,0.55 -0.1,1.11 -0.34,1.6 -16.38,34.37 -24.69,70.79 -24.69,108.23 0,39.89 9.29,78.33 27.61,114.28 0.34,0.64 0.46,1.39 0.34,2.11 -2.27,14.59 -3.32,26.96 -3.32,38.95 0,61.88 22.93,121.59 64.58,168.12 0.49,0.54 0.79,1.23 0.86,1.96 8.46,83.11 68.6,153.02 149.65,173.96 0.54,0.14 1.05,0.42 1.47,0.79 40.29,36.74 92.17,56.97 146.11,56.97 33.42,0 65.78,-7.66 96.19,-22.76 1.01,-0.51 1.96,-1.11 2.91,-1.7 0.9,-0.56 1.8,-1.13 2.74,-1.63 0.52,-0.29 1.09,-0.43 1.65,-0.43 0.56,0 1.14,0.14 1.64,0.43 0.94,0.51 1.85,1.07 2.74,1.63 0.96,0.59 1.91,1.2 2.92,1.7 30.41,15.11 62.77,22.76 96.19,22.76 53.94,0 105.82,-20.23 146.11,-56.97 0.42,-0.38 0.91,-0.64 1.47,-0.79 81.05,-20.94 141.19,-90.85 149.64,-173.96 0.08,-0.73 0.38,-1.42 0.87,-1.96 41.64,-46.53 64.58,-106.23 64.58,-168.12 0,-11.95 -1.06,-24.33 -3.32,-38.95 -0.12,-0.72 0,-1.47 0.34,-2.11 18.32,-35.95 27.61,-74.39 27.61,-114.28 0,-37.43 -8.31,-73.85 -24.69,-108.23 -0.24,-0.5 -0.36,-1.04 -0.34,-1.6 0.04,-1.2 0.12,-2.39 0.2,-3.57 0.11,-1.47 0.21,-2.93 0.21,-4.44 0,-6.08 -0.25,-12.12 -0.68,-18.14 3.13,-0.99 6.76,-2.22 6.76,-2.22 9.96,-3.78 56.71,-19.59 100.63,-0.9 0,0 -41.2,-11.91 -78.53,-1.44 0,0 7.14,14.78 18.98,23 4.82,3.34 10.41,5.61 16.63,5.33 21.48,-0.92 62.35,-14.11 84.76,-8.3 0,0 -13.12,-18.36 -33.21,-32.3z"/>
     <path class="fil1" d="M975.35 1162.99c0,0 -39.84,15.89 -62.93,47.09 0,0 14.68,7.29 29.06,6.52 5.85,-0.32 11.66,-1.96 16.4,-5.99 16.4,-13.92 40.62,-49.44 61.89,-58.61 0,-0.01 -21.58,-6.46 -45.99,-5.13 -28.41,1.53 -60.62,13.57 -67.11,58.51 0.01,0 -9.62,10.74 -14.49,17.91 2.17,1.26 4.13,2.32 4.31,2.03 5.81,-9.48 33.05,-50.2 78.86,-62.33z"/>
     <path class="fil1" d="M730.64 1595.94c-18.56,9.43 -31.76,23.4 -31.76,23.4 19.59,-2.3 52.56,13.58 70.57,16.85 5.21,0.95 10.2,-0.31 14.66,-2.57 10.94,-5.57 18.67,-17.22 18.67,-17.22 -30.3,-13.16 -66.45,-7.89 -66.45,-7.89 35.62,-9.7 69.91,4.88 81.89,10.91 0.63,-1.11 1.3,-2.22 1.94,-3.32 -6.63,-2.81 -15.15,-5.61 -15.15,-5.61 -23.87,-30.4 -52.77,-25.54 -74.38,-14.55z"/>
     <path class="fil1" d="M807.42 1431.25c0,0 -11.82,-0.44 -20.46,0.1 0.02,1.53 -0.03,3.08 -0.11,4.66 13.02,-1.73 59.69,-5.61 97.02,20.98 0,0 -37.68,-20.5 -76.38,-18.31 0,0 3.8,15.98 13.6,26.55 3.99,4.31 8.97,7.72 15.1,8.79 21.17,3.72 63.92,-0.37 84.56,10.13 0,0 -8.88,-20.75 -25.51,-38.69 -19.36,-20.88 -49.21,-37.98 -87.82,-14.2z"/>
     <path class="fil1" d="M701.34 1984.71c-0.74,2.28 -1.43,4.72 -2.02,7.22l-0.95 4.39c-0.17,0.87 -0.34,1.78 -0.49,2.84 -0.77,5.41 -1.09,10.33 -0.96,15.08 0.31,10.14 2.29,19.89 5.91,28.96 4.35,10.99 10.96,21.2 19.26,29.91 -6.16,-11.14 -10.41,-21.72 -12.88,-31.99 -2.19,-8.95 -3.13,-18 -2.8,-26.86 0.19,-4.68 0.7,-9.26 1.47,-13.27 0.15,-0.87 0.41,-2.13 0.66,-3.36l0.75 -3.2c0.52,-2.08 1.15,-4.19 1.9,-6.47 5.31,-16.23 14.94,-31.59 28.61,-45.67 7.45,-7.72 16.06,-15 26.4,-22.25 -10.98,4.09 -21.41,9.92 -30.82,17.27 -16.06,12.57 -28.15,29.41 -34.05,47.4z"/>
     <path class="fil1" d="M1007.89 1736.65c-9.81,13.21 -23.87,22.15 -40.67,25.8 -9.21,2.09 -19.46,2.77 -31.74,2.12 9.05,3.07 18.27,4.67 27.31,4.67 0,0 0,0 0,0 1.78,0 3.57,-0.06 5.37,-0.19 9.38,-0.67 18.61,-3.34 26.67,-7.69 8.14,-4.36 15.51,-10.73 21.34,-18.43 13.25,-17.59 16.24,-38.03 16.39,-52.07 0.12,-10.96 -1.29,-22.03 -4.12,-32.75 -0.17,10.7 -0.81,21.55 -2.56,32.21 -2.95,18.8 -9,34.39 -17.99,46.33z"/>
     <path class="fil1" d="M369.89 1422.92c0,0 -33.46,26.86 -46.45,63.47 0,0 16.18,2.66 29.7,-2.28 5.51,-2.02 10.58,-5.3 13.94,-10.54 11.64,-18.11 24.44,-59.19 42.1,-74.18 0,0 -22.53,0.16 -45.49,8.57 -26.72,9.79 -54.02,30.74 -47.1,75.61 0,0 -5.86,12.66 -8.51,20.96 1.52,0.39 3.04,0.78 4.56,1.21 2.71,-10.54 16.83,-57.71 57.25,-82.81z"/>
     <path class="fil1" d="M343.02 1668.9c6.2,19.91 17.76,35.25 17.76,35.25 0.99,-19.73 22.08,-49.69 28.28,-66.94 1.8,-4.99 1.39,-10.12 -0.11,-14.91 -3.66,-11.73 -13.84,-21.3 -13.84,-21.3 -17.98,27.76 -18.78,64.34 -18.78,64.34 -3.79,-38.29 18.01,-70.76 25.16,-80.27 -1.02,-0.83 -2.04,-1.64 -3.07,-2.45 -4.05,6.17 -8.77,15.19 -8.77,15.19 -33.87,18.55 -33.88,47.9 -26.64,71.08z"/>
     <path class="fil1" d="M538.41 1380.53c0,0 -8.1,-2.51 -15.02,-4.05l-1.01 3.67c13.15,1.98 49.68,9.89 73.24,38.49 0,0 -26.47,-25.22 -58.79,-31.99 0,0 -0.4,13.98 5.32,24.85 2.34,4.43 5.68,8.33 10.48,10.57 16.6,7.76 52.67,13.87 67.34,27.08 0,0 -2.72,-19.04 -12.45,-37.48 -11.3,-21.48 -32.09,-42.16 -69.11,-31.15z"/>
     <path class="fil1" d="M563.76 1996.32l-0.95 -4.39c-0.59,-2.52 -1.28,-4.94 -2.02,-7.22 -5.89,-17.99 -17.99,-34.83 -34.05,-47.4 -9.41,-7.35 -19.84,-13.17 -30.82,-17.27 10.34,7.25 18.95,14.53 26.4,22.25 13.67,14.08 23.3,29.44 28.61,45.67 0.76,2.28 1.38,4.39 1.9,6.47l0.75 3.2c0.26,1.23 0.52,2.49 0.65,3.36 0.78,4.01 1.29,8.6 1.48,13.27 0.33,8.87 -0.61,17.91 -2.8,26.86 -2.47,10.26 -6.72,20.84 -12.88,31.99 8.29,-8.71 14.91,-18.92 19.25,-29.91 3.63,-9.07 5.62,-18.82 5.92,-28.96 0.13,-4.74 -0.19,-9.67 -0.95,-15.08 -0.15,-1.06 -0.33,-1.97 -0.5,-2.84z"/>
     <path class="fil2" d="M1162.68 1564.91c-6.22,0.28 -11.81,-1.98 -16.63,-5.33 -11.84,-8.22 -18.98,-23 -18.98,-23 37.33,-10.47 78.53,1.44 78.53,1.44 -43.92,-18.69 -90.68,-2.88 -100.63,0.9 0,0 -3.63,1.23 -6.76,2.22 0.45,6.01 0.68,12.06 0.68,18.14 0,1.51 -0.1,2.97 -0.21,4.44 -0.08,1.18 -0.16,2.37 -0.2,3.57 -0.02,0.55 0.1,1.11 0.34,1.6 16.38,34.38 24.69,70.8 24.69,108.23 0,39.89 -9.29,78.33 -27.61,114.28 -0.34,0.64 -0.46,1.39 -0.34,2.11 2.26,14.62 3.32,27 3.32,38.95 0,61.89 -22.94,121.59 -64.58,168.12 -0.49,0.54 -0.79,1.23 -0.87,1.96 -8.46,83.11 -68.6,153.02 -149.64,173.96 -0.54,0.14 -1.05,0.42 -1.47,0.79 -40.29,36.74 -92.17,56.97 -146.11,56.97 -33.42,0 -65.78,-7.66 -96.19,-22.76 -1.01,-0.51 -1.96,-1.11 -2.92,-1.7 -0.89,-0.56 -1.8,-1.13 -2.74,-1.63 -0.51,-0.29 -1.08,-0.43 -1.64,-0.43 -0.56,0 -1.14,0.14 -1.65,0.43 -0.94,0.51 -1.84,1.07 -2.74,1.63 -0.95,0.59 -1.9,1.2 -2.91,1.7 -30.41,15.11 -62.77,22.76 -96.19,22.76 -53.94,0 -105.82,-20.23 -146.11,-56.97 -0.42,-0.38 -0.92,-0.64 -1.47,-0.79 -81.06,-20.94 -141.2,-90.85 -149.65,-173.96 -0.07,-0.73 -0.38,-1.42 -0.86,-1.96 -41.65,-46.53 -64.58,-106.24 -64.58,-168.12 0,-11.99 1.05,-24.36 3.32,-38.95 0.12,-0.72 0,-1.47 -0.34,-2.11 -18.32,-35.95 -27.61,-74.39 -27.61,-114.28 0,-37.44 8.31,-73.86 24.69,-108.23 0.24,-0.5 0.36,-1.05 0.34,-1.6 -0.04,-1.19 -0.12,-2.37 -0.2,-3.54 -0.1,-1.48 -0.21,-2.95 -0.21,-4.47 0,-88.93 47.9,-172.3 125.02,-217.58 0.69,-0.42 1.23,-1.05 1.51,-1.8 26.38,-71.96 82.99,-127.4 155.29,-152.07 0.48,-0.16 0.91,-0.43 1.28,-0.77 32.01,-30.47 73.76,-47.26 117.55,-47.26 21.99,0 43.59,4.29 64.23,12.73 0.84,0.35 1.77,0.35 2.62,0 20.63,-8.44 42.24,-12.73 64.22,-12.73 43.79,0 85.56,16.79 117.56,47.26 0.37,0.35 0.79,0.61 1.27,0.77 72.32,24.67 128.92,80.11 155.3,152.07 0.28,0.75 0.8,1.39 1.5,1.8 70.21,41.22 116.19,114.02 123.87,193.84l10.58 -2.48c3,-0.77 6.18,-1.51 8.98,-2.1l0.05 -0.02 0 0.01c4.55,-0.97 8.06,-1.61 8.06,-1.61 32.61,-31.54 65.44,-21.26 88.81,-5.03 20.1,13.95 33.21,32.3 33.21,32.3 -22.42,-5.8 -63.29,7.38 -84.76,8.3zm-105.23 456.67c42.48,-15.83 68.46,6.74 83.41,30.98 12.86,20.82 17.55,42.9 17.55,42.9 -18.23,-14.29 -60.95,-18.58 -81.01,-26.35 -5.79,-2.24 -10.02,-6.55 -13.11,-11.55 -7.57,-12.27 -8.21,-28.68 -8.21,-28.68 38.39,5.36 71.4,32.78 71.4,32.78 -30.67,-32.47 -75.63,-38.3 -90.05,-39.34 0.31,-1.5 0.58,-2.99 0.84,-4.49 8.46,1.21 19.18,3.73 19.18,3.73zm-640.62 206.36c-2.94,31.06 -24.66,40.41 -44.1,42.41 -16.7,1.72 -31.74,-1.97 -31.74,-1.97 14.28,-7.01 29.73,-32.2 40.52,-42.31 3.12,-2.92 7.04,-4.25 11.05,-4.66 9.85,-1.02 20.17,3.5 20.17,3.5 -14.81,22.19 -41.62,34.42 -41.62,34.42 30.79,-9.77 48.05,-38.2 51.93,-45.21 0.94,0.52 1.89,1.01 2.84,1.51 -3.19,5.07 -9.05,12.31 -9.05,12.31zm-272.68 -343.48c-31.41,32.74 -64.6,23.7 -88.57,8.35 -20.59,-13.18 -34.39,-31.03 -34.39,-31.03 22.61,4.96 62.97,-9.75 84.4,-11.47 6.19,-0.51 11.88,1.55 16.81,4.71 12.13,7.78 19.82,22.28 19.82,22.28 -36.91,11.86 -78.52,1.51 -78.52,1.51 43.14,16.47 87.72,0.59 99.45,-4.22 0.26,1.55 0.48,3.11 0.75,4.65 -8.21,2.69 -19.75,5.24 -19.75,5.24zm-18.26 -284.64c-44.9,6.18 -65.36,-21.51 -74.68,-48.44 -8.01,-23.14 -7.81,-45.71 -7.81,-45.71 14.68,17.94 55.45,31.45 73.34,43.4 5.17,3.45 8.36,8.59 10.28,14.14 4.72,13.63 1.78,29.79 1.78,29.79 -36.3,-13.61 -62.56,-47.58 -62.56,-47.58 23.01,38.61 65.99,54.07 79.57,58.12 -0.45,1.47 -0.88,2.93 -1.3,4.41 -8.1,-3 -18.63,-8.11 -18.63,-8.11zm156.48 -282.57c-31.24,4.3 -45.48,-14.98 -51.97,-33.71 -5.58,-16.11 -5.43,-31.81 -5.43,-31.81 10.21,12.48 38.58,21.87 51.03,30.19 3.61,2.4 5.81,5.97 7.15,9.84 3.29,9.49 1.25,20.73 1.25,20.73 -25.27,-9.48 -43.54,-33.1 -43.54,-33.1 14.99,25.15 42.12,36.16 53.28,39.77 -0.43,0.93 -0.88,1.83 -1.3,2.76 -5.09,-2.06 -10.49,-4.68 -10.49,-4.68zm201.22 -181.11c0,0 -14.14,2.85 -26.17,-1.09 -4.9,-1.61 -9.46,-4.33 -12.56,-8.85 -10.78,-15.56 -23.28,-51.27 -39.25,-63.92 0,0 19.8,-0.54 40.23,6.15 23.78,7.79 48.41,25.38 43.69,65.02 0,0 3.85,7.62 6.63,14.33 -1.19,0.52 -2.38,1.06 -3.57,1.61 -4.44,-13.35 -18.88,-48.77 -51.75,-67.62 0,0 30.22,22.58 42.74,54.35zm281.83 -74.39c16.8,-8.43 33.99,-10.52 33.99,-10.52 -12.17,13.01 -18.37,45.49 -25.69,60.35 -2.11,4.3 -5.69,7.24 -9.73,9.26 -9.9,4.97 -22.49,4.34 -22.49,4.34 6.74,-29.08 29.94,-52.53 29.94,-52.53 -25.34,20.06 -33.49,51.46 -35.86,64.23 -1.09,-0.24 -2.17,-0.5 -3.27,-0.71 1.53,-5.98 3.69,-12.53 3.69,-12.53 -9.18,-33.68 9.85,-52.07 29.4,-61.88zm141.26 143.62c6.48,-44.94 38.69,-56.99 67.1,-58.51 24.41,-1.33 45.99,5.13 45.99,5.13 -21.27,9.16 -45.49,44.69 -61.89,58.61 -4.74,4.03 -10.55,5.68 -16.4,5.99 -14.38,0.77 -29.06,-6.52 -29.06,-6.52 23.09,-31.2 62.93,-47.09 62.93,-47.09 -45.81,12.12 -73.04,52.85 -78.86,62.33 -0.18,0.29 -2.14,-0.77 -4.31,-2.03 4.87,-7.17 14.49,-17.91 14.5,-17.91zm213.56 604.98c22.85,-26.35 48.69,-20.69 67.68,-9.83 16.31,9.33 27.6,22.5 27.6,22.5 -17.56,-2.93 -47.97,9.92 -64.36,12.07 -4.73,0.63 -9.18,-0.72 -13.1,-2.96 -9.61,-5.5 -16.07,-16.34 -16.07,-16.34 27.88,-10.52 60.23,-4.18 60.23,-4.18 -34.63,-11.27 -69.12,3.67 -76.83,7.38 -0.08,-1.25 -0.18,-2.52 -0.28,-3.78 6.22,-2.41 15.13,-4.84 15.13,-4.84zm132.82 -257.79c-0.56,-0.79 -14.06,-19.49 -34.9,-33.96 -34.27,-23.79 -67.44,-22.3 -96.03,4.28 -3.83,0.73 -11.84,2.37 -18.38,4.25 -9.98,-78.56 -56.07,-149.68 -125.33,-190.8 -15.84,-42.61 -42.08,-79.46 -75.73,-107.86 1.49,-2.38 4.19,-6.48 8.08,-11.5 4.33,1.93 17.63,7.28 31.06,6.56 8.16,-0.45 15.06,-3.01 20.5,-7.63 6.24,-5.29 13.31,-13.25 20.79,-21.69 12.72,-14.32 27.12,-30.56 39.37,-35.85l17.52 -7.56 -18.28 -5.46c-0.93,-0.28 -23.03,-6.77 -48.35,-5.4 -41.63,2.24 -66.92,23.79 -73.25,62.36 -2.6,2.95 -7.98,9.22 -12.03,14.75 -20.55,-14.97 -43.41,-27.03 -68.11,-35.55 -22.61,-21.35 -49.85,-36.14 -79.21,-43.43 0.38,-2.04 0.9,-4.58 1.64,-7.53 3.66,0.03 14.67,-0.29 23.92,-4.93 5.62,-2.81 9.69,-6.74 12.11,-11.67 2.77,-5.65 5.32,-13.44 8.02,-21.69 4.57,-14 9.76,-29.87 16.77,-37.35l10.03 -10.72 -14.55 1.76c-0.74,0.1 -18.32,2.31 -35.74,11.05 -28.67,14.38 -39.9,37.34 -32.55,66.48 -0.79,2.45 -2.27,7.24 -3.41,11.79 -9.47,-1.57 -19.1,-2.41 -28.84,-2.41 -22.42,0 -44.46,4.28 -65.53,12.72 -21.07,-8.44 -43.11,-12.72 -65.54,-12.72 -22.65,0 -44.79,4.32 -65.43,12.56 -2.07,-5.05 -4.64,-10.37 -5.96,-13.07 3.39,-34.2 -13.18,-58.27 -48.04,-69.7 -21.2,-6.95 -41.45,-6.48 -42.3,-6.45l-16.77 0.46 13.16 10.42c9.2,7.29 17.74,24.37 25.28,39.44 4.44,8.87 8.64,17.25 12.73,23.18 3.58,5.16 8.85,8.92 15.68,11.15 11.25,3.68 23.76,2.18 27.88,1.53 1.66,3.96 2.85,7.3 3.65,9.71 -15.04,7.67 -29.06,17.52 -41.65,29.41 -66.14,22.78 -119.33,70.69 -149.18,133.26 -1.83,-0.58 -4.17,-1.4 -6.91,-2.5 0.47,-3.27 1.48,-13.21 -1.59,-22.08 -1.86,-5.38 -4.9,-9.51 -9.03,-12.26 -4.73,-3.17 -11.41,-6.37 -18.48,-9.76 -12.01,-5.77 -25.62,-12.29 -31.5,-19.48l-8.42 -10.28 -0.13 13.29c0,0.67 -0.08,16.74 5.71,33.43 9.51,27.47 28.76,40.28 55.72,37.09 1.97,0.94 5.72,2.67 9.43,4.17 -1.38,3.29 -2.76,6.59 -4.02,9.96 -78.6,46.67 -127.38,131.97 -127.38,222.94 0,1.67 0.11,3.31 0.23,4.94 0.06,0.82 0.11,1.63 0.16,2.46 -4.7,9.92 -8.71,20.01 -12.08,30.23 -2.78,-0.84 -6.94,-2.2 -12.05,-4.24 0.66,-4.71 2.11,-18.99 -2.3,-31.73 -2.68,-7.74 -7.04,-13.67 -12.99,-17.64 -6.8,-4.54 -16.39,-9.14 -26.56,-14.02 -17.25,-8.28 -36.81,-17.66 -45.27,-27.99l-12.08 -14.78 -0.19 19.11c0,0.97 -0.13,24.05 8.19,48.04 13.67,39.47 41.33,57.88 80.07,53.3 3.64,1.72 11.46,5.33 17.99,7.69 -5.14,20.39 -7.75,41.26 -7.75,62.47 0,40.62 9.37,79.79 27.86,116.43 -2.21,14.47 -3.24,26.86 -3.24,38.91 0,11.8 0.81,23.52 2.41,35.08 -2.18,0.93 -7.29,3 -14.46,5.13 -2.4,-4.11 -10.09,-16.22 -21.43,-23.48 -6.89,-4.41 -13.99,-6.36 -21.1,-5.78 -8.14,0.66 -18.52,3 -29.52,5.49 -18.66,4.21 -39.81,8.98 -52.84,6.13l-18.63 -4.1 11.67 15.12c0.6,0.77 14.78,18.96 36.15,32.63 35.14,22.5 68.22,19.76 95.81,-7.87 3.68,-0.85 11.28,-2.7 17.66,-4.75 9.28,43.54 29.72,84.33 59.89,118.32 9.14,85.21 70.8,156.81 153.86,178.64 12.3,11.14 25.67,20.75 39.8,28.82 -0.92,1.64 -2.66,4.62 -5.25,8.33 -3.04,-1.19 -12.35,-4.42 -21.54,-3.47 -5.59,0.57 -10.23,2.57 -13.82,5.92 -4.1,3.83 -8.69,9.54 -13.54,15.59 -8.25,10.25 -17.59,21.87 -25.82,25.91l-11.77 5.77 12.72 3.13c0.65,0.16 16.04,3.88 33.36,2.09 28.51,-2.94 45.14,-18.57 48.2,-45.25 1.89,-2.39 6.08,-7.78 8.69,-12 30.63,15.25 64.45,23.34 99.11,23.34 34.49,0 67.89,-7.89 99.27,-23.49 1.22,-0.6 2.36,-1.32 3.5,-2.03 0.25,-0.15 0.49,-0.31 0.73,-0.46 0.24,0.15 0.49,0.3 0.72,0.46 1.15,0.71 2.29,1.43 3.51,2.03 31.38,15.58 64.77,23.49 99.27,23.49 55.38,0 108.66,-20.66 150.12,-58.2 74.86,-19.67 132.3,-79.76 149.62,-153.81 2.87,0.2 7.48,0.61 13.29,1.57 0.39,4.73 2.07,18.99 9.15,30.46 4.3,6.96 9.85,11.8 16.5,14.37 7.63,2.95 17.99,5.35 28.97,7.89 18.62,4.32 39.75,9.21 50.25,17.44l15.02 11.79 -3.98 -18.69c-0.2,-0.95 -5.09,-23.5 -18.42,-45.11 -21.92,-35.54 -52.92,-47.46 -89.73,-34.54 -3.64,-0.82 -11.1,-2.43 -17.66,-3.36 0.32,-2.21 0.6,-4.42 0.84,-6.66 42.32,-47.68 65.62,-108.67 65.62,-171.9 0,-2.52 -0.06,-5.06 -0.15,-7.63l0.6 -0.33c0.13,-0.06 4.56,-2.38 11.8,-4.93 1.99,3.06 8.37,12.06 17.35,17.2 5.46,3.12 10.99,4.34 16.41,3.63 6.24,-0.82 14.12,-3.02 22.46,-5.35 14.17,-3.95 30.22,-8.44 40.34,-6.75l14.46 2.43 -9.54 -11.15c-0.49,-0.56 -12.07,-13.99 -29,-23.66 -27.83,-15.91 -53.14,-12.54 -73.25,9.75 -2.66,0.75 -8,2.34 -12.67,4.06 -0.52,-5.14 -1.19,-10.49 -2.05,-16.17 18.48,-36.64 27.86,-75.81 27.86,-116.43 0,-38.2 -8.42,-75.34 -25.01,-110.44 0.05,-0.83 0.1,-1.65 0.16,-2.49 0.12,-1.62 0.23,-3.25 0.23,-4.91 0,-4.38 -0.15,-8.74 -0.38,-13.09l0.29 -0.12c0.17,-0.07 6.16,-2.57 15.84,-5.05 2.24,4.19 9.48,16.58 20.53,24.26 6.73,4.67 13.74,6.87 20.87,6.57 8.16,-0.36 18.62,-2.31 29.7,-4.38 18.8,-3.51 40.12,-7.49 53.03,-4.15l18.46 4.79 -11.1 -15.54z"/>
     <path class="fil2" d="M836.19 1474.01c-6.12,-1.07 -11.1,-4.48 -15.1,-8.79 -9.8,-10.57 -13.6,-26.55 -13.6,-26.55 38.7,-2.2 76.38,18.31 76.38,18.31 -37.32,-26.59 -84,-22.71 -97.02,-20.98 0.09,-1.57 0.13,-3.13 0.11,-4.66 8.64,-0.53 20.46,-0.1 20.46,-0.1 38.61,-23.77 68.47,-6.68 87.82,14.2 16.63,17.94 25.51,38.69 25.51,38.69 -20.64,-10.5 -63.4,-6.41 -84.56,-10.13zm64.57 329.47c-6.24,-4.5 -12.7,-9.14 -19.67,-13.45 -1.83,-1.11 -4.03,-2.38 -6.5,-3.62 -4.24,-2.12 -9.3,-4.15 -14.8,-5.13 -3.91,-0.7 -8.19,-0.87 -11.87,-0.51 -3.94,0.3 -7.65,0.89 -11.02,1.75 -7.45,1.87 -14.36,5.4 -19.97,10.18 -5.14,4.33 -9.57,9.79 -13.54,16.69 -0.91,1.57 -0.45,3.6 1.06,4.61 0.07,0.04 0.13,0.05 0.2,0.08 1.49,0.88 3.4,0.56 4.47,-0.82 4.26,-5.46 8.81,-9.73 13.55,-12.69 4.86,-3.1 10.56,-5.06 16.47,-5.71 2.86,-0.31 5.75,-0.34 8.98,-0.14 2.73,0.13 5.34,0.61 7.96,1.47 1.19,0.39 2.37,0.87 3.57,1.44 3.38,1.59 6.89,3.92 10.99,7.27 5.47,4.53 10.68,9.51 16.21,14.8 4.21,4.03 8.57,8.21 13.13,12.23 7.16,6.38 13.98,11.62 20.76,16 -0.94,2.74 -2.5,6.96 -4.83,12.15 -4.66,-0.86 -18.85,-2.92 -31.74,0.96 -7.83,2.36 -13.93,6.47 -18.14,12.24 -4.8,6.62 -9.82,16.03 -15.11,26 -8.98,16.91 -19.17,36.09 -29.84,44.12l-15.24 11.47 0.34 0.02 18.71 0.98c0.97,0.05 23.97,1.15 48.26,-6.16 39.94,-12.01 59.45,-38.92 56.54,-77.89 1.61,-3.09 4.77,-9.24 7.3,-15.03 6.86,3.08 14.08,5.52 21.52,7.2l5.48 1.11c1.91,0.34 4.06,0.66 5.89,0.88 1.99,0.26 3.87,0.45 5.92,0.58 1.61,0.15 4.27,0.23 6,0.25l1.72 0.02c15.41,0 31.65,-3.94 45.71,-11.08 6.15,-3.08 12.12,-6.75 18.1,-11.13 -0.01,0.09 -0.02,0.19 -0.03,0.28 -0.35,4.82 -0.88,9.85 -1.62,15.21 -3.01,21.78 -9.51,42.75 -19.34,62.31 -10.58,21.08 -24.67,40.02 -41.89,56.27 -0.3,0.28 -0.54,0.61 -0.72,0.97 -8.53,7.22 -17.21,13.59 -25.81,18.93 -18.77,11.65 -38.07,19.01 -57.36,21.89 -20.21,3.1 -41.76,1.1 -62.4,-5.78 -7.84,-2.62 -15.4,-5.8 -22.59,-9.52 -2.47,-1.28 -4.89,-2.62 -7.26,-4.01 -10.55,-6.11 -20.5,-13.33 -28,-18.94 0,0 0,-0.01 -0.01,-0.01 -1.44,-1.08 -3.47,-0.87 -4.67,0.49 -1.19,1.35 -1.15,3.4 0.11,4.7 6.64,6.92 15.53,15.92 25.4,24.05 9.05,7.56 19.11,14.26 29.9,19.96 0.07,0.04 0.13,0.06 0.19,0.09 22.19,11.71 46.78,18.07 71.14,18.37 23.08,0.45 46.82,-4.2 70.76,-13.66 -0.03,0.07 -0.07,0.15 -0.1,0.22 -2.75,7.03 -6,13.83 -9.71,20.26 -5.57,9.67 -12.35,18.85 -20.16,27.27 -22.27,23.95 -52.15,40.18 -84.16,45.67 -0.74,0.13 -1.42,0.49 -1.93,1.04 -20.55,21.78 -46.53,37.65 -75.1,45.87 -30.36,8.74 -61.44,8.7 -91.8,-0.07 -9.65,-2.79 -19.16,-6.54 -28.28,-11.11 -0.06,-0.04 -0.14,-0.07 -0.21,-0.11l0 -968.5c11.88,-3.86 24.15,-5.81 36.54,-5.81 18.23,0 35.79,4.13 51.86,12.08 7.24,3.59 14.17,7.94 20.74,13.06 -3.02,6.79 -6.17,13.63 -9.41,20.67 -6.28,13.75 -14.09,30.87 -19.36,49.25 -5.39,18.5 -7.58,37.8 -6.33,55.79 1.13,17.1 4.97,34.41 11.76,52.9 1.46,3.97 3.08,8.07 4.83,12.21 0.57,1.34 1.12,2.59 1.64,3.78 1.08,2.47 2.06,4.72 2.98,7.11 3.03,7.81 4.53,14.02 4.71,19.61 0.68,12.24 -7.25,25.68 -15.91,38.35 -5,7.26 -10.48,14.61 -15.77,21.72 -4.39,5.88 -8.92,11.98 -13.23,18.08 -11.24,15.71 -19.76,29.14 -26.8,42.24 -0.86,1.61 -0.34,3.63 1.22,4.6 0.06,0.03 0.12,0.03 0.17,0.06 1.53,0.84 3.46,0.45 4.48,-1 8.38,-11.84 18.24,-23.81 31.01,-37.71 4.92,-5.42 10.08,-10.82 15.07,-16.04 6.21,-6.5 12.64,-13.21 18.85,-20.22 5.45,-6.22 11.15,-13.06 16.06,-20.99 3.41,-5.46 7.52,-13.66 9.26,-23.38 2.43,-0.37 7.79,-1.05 15.1,-1.31 0.01,0.04 0.03,0.09 0.04,0.12 1.33,4.68 5.74,18.21 14.82,28 3.5,3.76 7.3,6.61 11.39,8.51 2.43,1.13 4.96,1.93 7.58,2.4 8.05,1.41 18.69,1.76 29.94,2.12 19.12,0.61 40.79,1.31 52.69,7.36l0.18 0.1 16.83 8.55 0 0 -7.51 -17.56c-0.39,-0.89 -9.55,-22.06 -26.8,-40.68 -8.83,-9.52 -18.07,-16.62 -27.64,-21.31 -21.18,-10.36 -43.91,-8.82 -67.07,4.82 -3.89,-0.11 -12.06,-0.24 -18.86,0.19 -0.06,0.01 -0.13,0.01 -0.2,0.01 -0.59,-5.65 -1.7,-10.81 -2.78,-15.12 -0.75,-3.03 -1.67,-6.12 -2.53,-8.95 -0.36,-1.21 -0.7,-2.37 -1.01,-3.46 -1.09,-3.81 -2.07,-7.6 -2.92,-11.24 -3.7,-15.83 -5.17,-30.7 -4.38,-44.22 0.79,-13.91 4.05,-27.36 9.96,-41.15 5.74,-13.47 13.69,-26.75 22.02,-40.29 3.6,-5.8 7.28,-11.78 10.96,-17.85 4.52,1.95 8.95,4.06 13.29,6.32 12.99,6.78 25.12,14.92 36.23,24.3 13.6,11.49 25.63,24.73 35.75,39.37 3.06,4.41 6.03,9.14 8.88,14.13 -1.26,0.15 -2.45,0.3 -3.6,0.48 -16.6,2.45 -33.04,8.21 -47.52,16.66 -13.54,7.87 -25.85,18.15 -36.57,30.53 -9.59,11.05 -17.93,23.85 -24.77,38.05 -0.75,1.56 -0.25,3.43 1.19,4.39 0.06,0.04 0.13,0.05 0.2,0.08 1.41,0.83 3.2,0.58 4.31,-0.65 9.83,-11.03 20.45,-20.32 31.59,-27.58 11.61,-7.6 23.73,-13.01 36.06,-16.09 12.11,-3.06 24.66,-3.78 36.54,-2.13 5.77,0.79 11.52,2.16 17.08,4.05 1.97,0.67 4.07,1.49 6.37,2.47 0.01,0.02 0.04,0.03 0.06,0.05 0.28,0.27 0.59,0.51 0.95,0.66 0.07,0.04 0.14,0.08 0.21,0.11 2.59,1.22 5.15,2.49 7.68,3.79 18.09,9.43 34.41,21.33 48.61,35.43 19.14,19.03 34.06,41.35 44.34,66.34 3.57,8.68 6.56,17.75 8.91,27.04 -15.14,-6.67 -31.69,-10.05 -49.21,-10.05 -8.22,0 -16.48,0.76 -24.57,2.29 -21.71,3.98 -42.76,12.47 -64.36,25.97 -18.52,11.65 -35.69,26.08 -51.02,42.88 -7.69,8.47 -14.61,17.25 -20.59,26.13l-8.6 13.68c-0.02,0.05 -0.05,0.09 -0.08,0.14 -5.16,-2.26 -11.37,-4.44 -14.5,-5.51 -0.05,-0.02 -0.12,-0.04 -0.17,-0.06 -6.56,-8.01 -13.77,-14.03 -21.54,-18.03 -17.21,-8.85 -37.19,-7.83 -59.01,3.27 -19.26,9.78 -32.82,24 -33.38,24.61l-11.16 11.83 0.36 -0.05 15.78 -1.85c11.28,-1.32 28.82,4.52 44.28,9.66 9.11,3.03 17.71,5.89 24.56,7.15 5.99,1.08 12.16,0.03 18.37,-3.13 10.22,-5.19 17.76,-14.81 20.14,-18.09 3.43,1.4 6.21,2.7 8.34,3.75 0,0 0,0 0,0 0,0.01 0,0.02 -0.01,0.02 -5.43,9.48 -10.74,19.13 -15.86,28.45 -4.79,8.72 -9.58,17.39 -14.46,25.97 -9.01,15.79 -20.02,34.23 -33.23,51.26 -14.26,18.34 -28.69,31.7 -44.06,40.85 -1.58,0.94 -2.15,2.97 -1.29,4.61 0.44,0.82 1.16,1.4 1.99,1.67 0.81,0.26 1.7,0.23 2.54,-0.16 17.19,-8.06 33.76,-20.65 50.65,-38.49 15.43,-16.32 28.6,-34.17 39.44,-49.48 5.8,-8.23 11.49,-16.52 17.14,-24.78 5.95,-8.7 12.11,-17.69 18.27,-26.35 2.95,-4.15 5.95,-8.33 8.93,-12.32l4.61 -6.1 4.52 -5.72c5.91,-7.15 12.66,-14.17 20.05,-20.86 14.66,-13.22 30.58,-24.16 47.29,-32.5 17.43,-8.69 34.36,-13.82 50.37,-15.33 0.01,0.04 0.01,0.1 0.02,0.14 0.3,1.88 0.99,6.94 1.25,14.16 -4.14,1.17 -16.48,5.17 -25.42,13.48 -5.42,5.05 -8.74,10.84 -9.85,17.22 -1.29,7.3 -1.59,16.95 -1.92,27.17 -0.56,17.34 -1.19,37.01 -6.66,47.8l-7.82 15.43 0.35 -0.15 15.53 -6.67c0.8,-0.36 19.94,-8.67 36.77,-24.32 27.67,-25.75 32.8,-55.44 14.9,-85.94 0.1,-3.79 0.23,-12.06 -0.27,-18.46 10.11,0.85 19.66,3.4 28.02,7.57 1.15,0.57 2.28,1.18 3.38,1.81 12.79,7.32 23.39,18.94 31.5,34.55 0.13,0.24 0.29,0.47 0.47,0.66 12.5,25.87 19.18,53.7 19.85,82.7 0.02,0.76 0.07,1.53 0.12,2.29 0.06,0.78 0.11,1.57 0.11,2.38 0,11.24 -1.07,22.76 -3.28,35.2 -3.83,21.67 -11.22,42.49 -21.89,61.76 -4.24,7.06 -9.34,15.3 -15.09,22.96 -7.65,10.22 -15.26,17.91 -23.3,23.51 -8.76,6.12 -18.45,9.91 -28.8,11.25l-0.93 0.12c-0.97,0.13 -1.73,0.22 -3.19,0.31 -1.21,0.1 -2.64,0.17 -4.03,0.18 -1.47,0.04 -2.76,0.02 -3.95,0l-4.48 -0.27c-5.62,-0.45 -11.22,-1.49 -16.67,-3.09 -4.99,-1.45 -10.12,-3.47 -15.46,-6.1 -5.4,-2.65 -11.02,-5.93 -16.93,-9.88 -4.57,-3 -9,-6.2 -13.71,-9.58zm-82.53 -184.07c-11.98,-6.03 -46.27,-20.6 -81.89,-10.91 0.01,0 36.15,-5.27 66.45,7.89 0,0 -7.74,11.65 -18.67,17.22 -4.46,2.26 -9.45,3.52 -14.66,2.57 -18.01,-3.27 -50.97,-19.15 -70.57,-16.85 0,0 13.19,-13.97 31.76,-23.4 21.61,-11 50.51,-15.85 74.38,14.55 0,0 8.52,2.79 15.15,5.61 -0.64,1.1 -1.31,2.21 -1.94,3.32zm260.92 52.86c-0.69,-30.31 -7.75,-59.37 -20.94,-86.39 -0.15,-0.3 -0.34,-0.56 -0.57,-0.8 -8.68,-16.41 -20.04,-28.72 -33.77,-36.57 -11.89,-6.85 -26.33,-10.45 -41.47,-10.6l0.48 8.91 0 0c0.48,7.83 0.09,18.43 0.09,18.43 21.49,35.04 6.03,62.13 -12.84,79.69 -16.23,15.1 -34.98,23.15 -34.98,23.15 9.49,-18.73 5.8,-57.52 9.16,-76.74 0.97,-5.56 4.05,-10.07 7.93,-13.7 9.57,-8.89 24,-12.34 24,-12.34 1.98,35.12 -16.54,69.32 -16.54,69.32 23.79,-33.53 20.59,-75.37 19.01,-87.66l0 0 -1.65 -8.96c-1.3,0.06 -2.6,0.09 -3.91,0.19 -17.33,1.39 -35.66,6.84 -54.46,16.21 -17.29,8.63 -33.72,19.92 -48.83,33.56 -7.65,6.91 -14.63,14.18 -20.78,21.62l-9.29 12.04c-3.03,4.04 -6.05,8.27 -9.04,12.47 -6.18,8.71 -12.36,17.73 -18.34,26.45 -5.64,8.23 -11.28,16.49 -17.08,24.68 -9.28,13.1 -20.27,28.06 -32.88,42.25 11.15,-15.3 20.57,-31.18 28.5,-45.04 4.9,-8.62 9.7,-17.33 14.51,-26.07 5.11,-9.3 10.4,-18.92 15.8,-28.34 2.6,-4.53 5.19,-9 7.94,-13.55l4.07 -6.68 4.37 -6.78c5.77,-8.57 12.49,-17.09 19.95,-25.3 14.91,-16.33 31.6,-30.37 49.59,-41.68 20.83,-13.02 41.09,-21.21 61.94,-25.03 23.95,-4.5 49.39,-1.81 70.3,7.55 1.65,0.73 3.27,1.57 4.88,2.39l0.8 0.42c1.19,0.61 2.62,0.49 3.68,-0.34 1.05,-0.81 1.55,-2.17 1.27,-3.49 -2.63,-12.16 -6.31,-24.02 -10.93,-35.25 -10.63,-25.85 -26.06,-48.94 -45.86,-68.63 -16.54,-16.44 -35.87,-29.97 -57.45,-40.22 -0.32,-0.36 -0.71,-0.63 -1.16,-0.83 -2.87,-1.26 -5.47,-2.28 -7.9,-3.1 -5.96,-2.04 -12.14,-3.51 -18.36,-4.37 -12.76,-1.79 -26.22,-1 -39.18,2.28 -13.07,3.27 -25.9,8.98 -38.16,17.01 -5.15,3.36 -10.18,7.12 -15.1,11.27 3.62,-5.39 7.48,-10.46 11.59,-15.21 10.22,-11.81 21.94,-21.59 34.83,-29.08 13.74,-8 29.31,-13.47 45.05,-15.8 2.49,-0.37 5.17,-0.66 8.46,-0.93 1.17,-0.1 2.2,-0.78 2.75,-1.81 0.56,-1.02 0.56,-2.27 0.01,-3.3 -3.72,-6.9 -7.7,-13.42 -11.83,-19.37 -10.47,-15.14 -22.91,-28.84 -36.98,-40.72 -16.1,-13.6 -34.29,-24.67 -54.07,-32.88 -1.57,-0.66 -3.41,-0.06 -4.29,1.42 -4.16,6.94 -8.37,13.76 -12.46,20.36 -8.48,13.78 -16.58,27.3 -22.5,41.21 -6.23,14.52 -9.67,28.75 -10.5,43.47 -0.84,14.17 0.68,29.73 4.55,46.2 0.87,3.75 1.88,7.65 3,11.58 0.32,1.11 0.67,2.3 1.04,3.54 0.82,2.73 1.71,5.72 2.44,8.65 1.78,7.11 3.71,16.58 2.77,26.69 -0.91,10.47 -5.33,19.44 -8.9,25.14 -4.65,7.52 -10.13,14.09 -15.36,20.06 -6.12,6.89 -12.5,13.56 -18.67,20.02 -3.45,3.61 -6.97,7.3 -10.45,11.03 3.02,-4.16 6.09,-8.28 9.09,-12.31 5.33,-7.16 10.85,-14.56 15.92,-21.95 9.37,-13.7 17.92,-28.35 17.13,-42.58 -0.2,-6.32 -1.84,-13.25 -5.16,-21.81 -0.95,-2.49 -1.98,-4.82 -3.1,-7.39 -0.52,-1.18 -1.06,-2.42 -1.61,-3.72 -1.7,-4.02 -3.29,-8.01 -4.71,-11.89 -6.56,-17.86 -10.27,-34.52 -11.34,-50.97 -1.21,-17.19 0.89,-35.64 6.06,-53.38 5.13,-17.91 12.83,-34.76 19,-48.29 3.65,-7.91 7.17,-15.59 10.53,-23.21 0.63,-1.44 0.23,-3.11 -0.99,-4.1 -22.78,-18.53 -50.11,-28.33 -79.02,-28.33 -13.97,-0.01 -27.82,2.35 -41.14,6.98 -1.4,0.49 -2.33,1.8 -2.33,3.28l0 973.1c0,1.3 0.72,2.49 1.87,3.08 10.15,5.28 20.79,9.55 31.63,12.69 15.84,4.58 31.98,6.89 47.94,6.89 15.88,0 31.92,-2.29 47.68,-6.82 29.4,-8.46 56.16,-24.68 77.42,-46.94 33.07,-5.93 63.89,-22.79 86.92,-47.58 8.17,-8.81 15.26,-18.4 21.09,-28.53 5.26,-9.12 9.65,-18.92 13.04,-29.11 0.44,-1.31 0.06,-2.73 -0.94,-3.66 -1.01,-0.93 -2.47,-1.17 -3.71,-0.63l-1.45 0.64c-0.89,0.4 -1.78,0.78 -2.68,1.16 -23.16,9.56 -46.17,14.41 -68.39,14.41 -0.89,0 -1.78,-0.01 -2.69,-0.03 -23.36,-0.29 -46.94,-6.39 -68.21,-17.65 -7.99,-4.22 -15.56,-9.01 -22.6,-14.32 7.72,4.05 15.87,7.5 24.33,10.32 15.03,5.01 30.39,7.57 45.67,7.57 6.73,0 13.44,-0.52 19.94,-1.51 20.22,-3.01 40.41,-10.7 59.98,-22.85 9.19,-5.71 18.45,-12.53 27.53,-20.29 0.4,-0.34 0.7,-0.75 0.91,-1.22 17.44,-16.64 31.76,-35.97 42.52,-57.45 10.16,-20.24 16.9,-41.92 20.01,-64.47 1.19,-8.54 1.87,-16.28 2.09,-23.69 0.04,-1.36 -0.71,-2.62 -1.93,-3.21 -1.21,-0.59 -2.65,-0.45 -3.71,0.42 -7.6,6.2 -15.07,11.1 -22.85,15 -13.12,6.67 -28.26,10.34 -42.6,10.34l-1.62 -0.02c-1.65,-0.02 -4.13,-0.1 -5.55,-0.23 -1.99,-0.13 -3.73,-0.3 -5.62,-0.54 -1.77,-0.22 -3.79,-0.52 -5.48,-0.81l-5.3 -1.09c-7.11,-1.6 -14.06,-3.95 -20.66,-6.95 -1.73,-0.79 -3.46,-1.64 -5.18,-2.54l-3.67 6.73c-3.33,7.51 -7.85,15.92 -7.85,15.92 4.26,45.21 -24.22,64.52 -51.47,72.7 -23.41,7.05 -45.9,5.88 -45.9,5.88 18.51,-13.95 33.7,-54.18 46.38,-71.58 3.67,-5.03 8.92,-8 14.53,-9.7 13.79,-4.14 29.78,-0.52 29.78,-0.52 -15.12,35.76 -50.09,60.6 -50.09,60.6 37.3,-20.21 54.7,-59.09 60.4,-74.64l2.52 -8.38c-7.89,-4.66 -15.78,-10.51 -24.21,-18.01 -4.46,-3.94 -8.77,-8.06 -12.94,-12.06 -5.61,-5.38 -10.92,-10.45 -16.59,-15.15 -6.24,-5.11 -11.42,-8.17 -16.79,-9.95 -3.24,-1.05 -6.44,-1.63 -9.74,-1.79 -0.31,-0.02 -0.61,-0.03 -0.92,-0.05 0.31,-0.03 0.61,-0.05 0.92,-0.08 3.27,-0.31 6.78,-0.17 10.06,0.43 7.58,1.35 14.43,5.13 18.91,7.84 6.74,4.17 13.1,8.74 19.24,13.16 4.76,3.43 9.26,6.67 13.94,9.75 12.35,8.22 23.57,13.73 34.27,16.85 5.89,1.72 11.97,2.85 18.12,3.35l4.7 0.27c1.53,0.03 2.87,0.05 4.33,0.01 1.5,-0.01 3.11,-0.09 4.39,-0.2 1.6,-0.09 2.49,-0.2 3.61,-0.35l0.91 -0.12c11.49,-1.49 22.22,-5.68 31.9,-12.44 8.64,-6.01 16.78,-14.2 24.87,-25.03 5.92,-7.9 11.15,-16.33 15.54,-23.65 11.1,-20.05 18.74,-41.59 22.71,-64.01 2.28,-12.85 3.39,-24.76 3.39,-36.42 0,-0.97 -0.06,-1.91 -0.13,-2.86 -0.04,-0.64 -0.09,-1.31 -0.11,-1.97z"/>
     <path class="fil2" d="M739.8 1942.29c-13.67,14.08 -23.3,29.44 -28.61,45.67 -0.75,2.28 -1.38,4.39 -1.9,6.47l-0.75 3.2c-0.26,1.23 -0.52,2.49 -0.66,3.36 -0.76,4.01 -1.28,8.6 -1.47,13.27 -0.33,8.87 0.61,17.91 2.8,26.86 2.47,10.26 6.72,20.84 12.88,31.99 -8.3,-8.71 -14.91,-18.92 -19.26,-29.91 -3.63,-9.07 -5.61,-18.82 -5.91,-28.96 -0.13,-4.74 0.19,-9.67 0.96,-15.08 0.15,-1.06 0.32,-1.97 0.49,-2.84l0.95 -4.39c0.59,-2.52 1.28,-4.94 2.02,-7.22 5.89,-17.99 17.99,-34.83 34.05,-47.4 9.41,-7.35 19.84,-13.17 30.82,-17.27 -10.34,7.25 -18.95,14.53 -26.4,22.25zm-0.67 149.96c1.16,-1.19 1.31,-3.03 0.36,-4.4 -12.23,-17.56 -19.94,-33.38 -23.56,-48.37 -2.03,-8.34 -2.9,-16.74 -2.61,-24.96 0.17,-4.32 0.64,-8.55 1.38,-12.32 0.14,-0.89 0.37,-2.03 0.6,-3.16l0.7 -2.94c0.48,-1.89 1.05,-3.83 1.76,-5.96 4.97,-15.23 14.06,-29.7 26.99,-43.01 11.09,-11.51 24.95,-22.02 43.6,-33.09 1.43,-0.85 2.06,-2.6 1.49,-4.17 -0.28,-0.75 -0.79,-1.35 -1.45,-1.75 -0.68,-0.43 -1.52,-0.61 -2.37,-0.49 -19.76,3.23 -38.75,11.6 -54.92,24.22 -17.14,13.41 -30.04,31.42 -36.36,50.71 -0.8,2.46 -1.54,5.07 -2.19,7.8l-1 4.66c-0.19,0.99 -0.39,2 -0.54,3.2 -0.82,5.77 -1.16,11.08 -1.03,16.24 0.34,10.97 2.49,21.51 6.42,31.33 7.44,18.82 21.05,35.5 38.32,46.96 0.06,0.04 0.13,0.05 0.19,0.09 0.54,0.31 1.13,0.49 1.72,0.49 0.9,0 1.8,-0.36 2.48,-1.05z"/>
     <path class="fil2" d="M1028.43 1658.11c2.83,10.72 4.24,21.79 4.12,32.75 -0.16,14.05 -3.14,34.48 -16.39,52.07 -5.82,7.71 -13.19,14.08 -21.34,18.43 -8.05,4.35 -17.29,7.01 -26.67,7.69 -1.8,0.13 -3.59,0.19 -5.37,0.19 0,0 0,0 0,0 -9.04,0 -18.27,-1.59 -27.31,-4.67 12.27,0.65 22.53,-0.03 31.74,-2.12 16.8,-3.66 30.87,-12.59 40.67,-25.8 8.98,-11.94 15.04,-27.53 17.99,-46.33 1.74,-10.66 2.39,-21.52 2.56,-32.21zm-114.82 104c2,1.17 4.02,2.28 6.06,3.31 13.95,7.05 28.72,10.76 43.11,10.76 0,0 0,0 0,0 1.94,0 3.88,-0.07 5.85,-0.21 10.36,-0.74 20.55,-3.68 29.46,-8.49 8.99,-4.82 17.15,-11.86 23.58,-20.37 14.39,-19.09 17.62,-41.09 17.8,-56.17 0.21,-18.63 -3.76,-37.55 -11.48,-54.72 -0.32,-0.71 -0.86,-1.26 -1.52,-1.6 -0.71,-0.4 -1.56,-0.54 -2.4,-0.36 -1.6,0.37 -2.73,1.81 -2.7,3.46 0.35,16.73 0.45,34.49 -2.34,51.52 -2.77,17.68 -8.38,32.23 -16.69,43.26 -8.81,11.88 -21.47,19.89 -36.63,23.2 -6.5,1.47 -13.57,2.19 -21.65,2.19 -8.01,0 -16.72,-0.68 -28.24,-2.2 -1.64,-0.23 -3.19,0.75 -3.72,2.32 -0.53,1.56 0.1,3.28 1.52,4.11z"/>
     <path class="fil2" d="M552.64 1422.09c-4.8,-2.24 -8.14,-6.14 -10.48,-10.57 -5.72,-10.88 -5.32,-24.85 -5.32,-24.85 32.32,6.77 58.79,31.99 58.79,31.99 -23.57,-28.61 -60.09,-36.51 -73.24,-38.49l1.01 -3.67c6.91,1.55 15.02,4.05 15.02,4.05 37.02,-11.01 57.81,9.68 69.11,31.15 9.73,18.44 12.45,37.48 12.45,37.48 -14.67,-13.21 -50.74,-19.33 -67.34,-27.08zm51.09 743.16c-9.19,4.64 -18.76,8.41 -28.5,11.22 -30.33,8.77 -61.42,8.81 -91.8,0.07 -28.57,-8.22 -54.54,-24.09 -75.09,-45.87 -0.52,-0.55 -1.2,-0.91 -1.93,-1.04 -32.01,-5.49 -61.89,-21.71 -84.16,-45.67 -7.81,-8.42 -14.59,-17.59 -20.16,-27.27 -3.75,-6.5 -7.03,-13.36 -9.81,-20.48 22.96,9.09 45.8,13.7 67.95,13.7 0.93,0 1.86,-0.01 2.77,-0.03 24.46,-0.3 49.12,-6.69 71.35,-18.45 10.8,-5.7 20.86,-12.4 29.89,-19.94 9.89,-8.15 18.78,-17.15 25.43,-24.07 1.25,-1.3 1.29,-3.35 0.1,-4.7 -1.2,-1.36 -3.23,-1.57 -4.67,-0.49 -7.51,5.62 -17.46,12.84 -28.03,18.96 -9.26,5.46 -19.31,10 -29.85,13.52 -3.38,1.13 -6.81,2.08 -10.22,2.94 -0.89,-2.3 -2.08,-5.61 -3.3,-9.71 3.5,-2.04 13.79,-8.62 19.97,-18.3 3.74,-5.87 5.4,-11.93 4.91,-18 -0.56,-6.95 -2.56,-15.82 -4.67,-25.2 -3.58,-15.93 -7.65,-33.99 -5.21,-45.1l3.48 -15.91 -12.85 9.97c-0.65,0.52 -16.12,12.61 -27.74,30.86 -19.13,29.98 -16.81,58.23 6.69,81.77 0.62,2.68 1.86,7.8 3.28,12.62 -12.39,1.67 -24.79,1.67 -36.75,-0.17 -19.28,-2.87 -38.57,-10.23 -57.34,-21.88 -8.6,-5.34 -17.29,-11.7 -25.81,-18.93 -0.19,-0.36 -0.43,-0.69 -0.72,-0.97 -17.22,-16.27 -31.31,-35.19 -41.9,-56.27 -9.82,-19.56 -16.32,-40.52 -19.33,-62.31 -0.75,-5.47 -1.31,-10.59 -1.65,-15.48 5.96,4.39 11.93,8.05 18.08,11.12 14.09,7.15 30.32,11.09 45.72,11.09l1.69 -0.02c1.77,-0.02 4.43,-0.1 5.95,-0.24 2.14,-0.15 4.02,-0.34 5.97,-0.58 1.88,-0.23 4.02,-0.55 6.03,-0.91l5.46 -1.11c7.56,-1.71 14.96,-4.21 21.97,-7.41 12.22,-5.53 23.82,-13.36 36.49,-24.64 4.57,-4.03 8.92,-8.21 13.13,-12.24 5.53,-5.29 10.74,-10.27 16.19,-14.79 5.56,-4.55 10.05,-7.23 14.55,-8.72 2.64,-0.86 5.25,-1.34 8.04,-1.47 3.09,-0.2 6.06,-0.16 8.92,0.14 5.91,0.64 11.61,2.62 16.49,5.72 4.72,2.95 9.27,7.22 13.53,12.68 0.67,0.88 1.69,1.34 2.72,1.34 0.03,0 0.05,0 0.07,0 1.91,0 3.46,-1.55 3.46,-3.47 0,-0.86 -0.31,-1.66 -0.84,-2.27 -3.89,-6.65 -8.22,-11.94 -13.2,-16.14 -5.62,-4.8 -12.53,-8.33 -19.98,-10.2 -3.38,-0.86 -7.09,-1.46 -10.96,-1.74 -3.88,-0.38 -8.01,-0.21 -11.94,0.5 -8.72,1.56 -16.32,5.74 -21.32,8.76 -6.95,4.3 -13.41,8.94 -19.65,13.44 -4.71,3.38 -9.14,6.58 -13.73,9.59 -11.76,7.84 -22.35,13.06 -32.38,15.98 -5.45,1.59 -11.04,2.63 -16.58,3.08l-4.42 0.26c-1.42,0.03 -2.56,0.05 -4.13,0.01 -1.35,-0.01 -2.78,-0.08 -4.07,-0.18 -1.38,-0.09 -2.15,-0.18 -3.11,-0.31l-0.91 -0.12c-10.36,-1.35 -20.07,-5.13 -28.83,-11.26 -8.02,-5.59 -15.64,-13.27 -23.3,-23.51 -5.73,-7.64 -10.84,-15.89 -15.03,-22.85 -10.73,-19.38 -18.11,-40.19 -21.94,-61.86 -2.21,-12.43 -3.29,-23.95 -3.29,-35.2 0,-0.8 0.06,-1.58 0.12,-2.38 0.05,-0.76 0.1,-1.52 0.12,-2.29 0.66,-28.99 7.34,-56.8 19.82,-82.65 0.19,-0.21 0.36,-0.46 0.5,-0.71 8.11,-15.61 18.71,-27.23 31.51,-34.56 13.07,-7.53 29.46,-10.87 46.72,-9.4 16.46,1.32 33.93,6.53 51.93,15.5 10.38,5.17 20.44,11.35 30.07,18.44 -3.29,4.94 -6.83,11.41 -8.47,14.45 -28.84,16.54 -38.47,43.18 -27.87,77.16 6.45,20.65 18.2,36.39 18.69,37.06l9.8 12.99 0.8 -16.26c0.56,-11.37 9.21,-27.73 16.84,-42.15 4.5,-8.5 8.74,-16.52 11.1,-23.09 2.05,-5.74 2.04,-12.01 -0.04,-18.67 -3.42,-10.96 -11.64,-20.01 -14.46,-22.89 2.37,-3.85 4.47,-6.82 5.94,-8.81 1.64,1.4 3.27,2.81 4.88,4.26 7.4,6.7 14.15,13.72 20.03,20.84l9.14 11.84c2.99,4 5.99,8.18 8.94,12.33 6.15,8.67 12.3,17.65 18.27,26.35 5.66,8.26 11.32,16.55 17.15,24.78 10.84,15.3 24,33.15 39.43,49.48 16.89,17.84 33.46,30.43 50.65,38.49 0.48,0.22 0.97,0.33 1.47,0.33 0.02,0 0.06,0 0.07,0 1.91,0 3.47,-1.55 3.47,-3.47 0,-1.45 -0.88,-2.67 -2.14,-3.2 -15.23,-9.15 -29.54,-22.45 -43.68,-40.62 -13.21,-17.04 -24.22,-35.48 -33.23,-51.26 -4.89,-8.59 -9.67,-17.27 -14.46,-25.98 -5.13,-9.33 -10.43,-18.97 -15.86,-28.45 -2.63,-4.58 -5.25,-9.1 -8.04,-13.72l-4.13 -6.75 -4.48 -6.96c-5.96,-8.85 -12.89,-17.62 -20.58,-26.1 -15.32,-16.79 -32.49,-31.22 -51.02,-42.88 -14.34,-8.96 -28.45,-15.67 -42.66,-20.37 0.62,-2.43 2.06,-7.59 4.63,-14.34 4.71,0.57 18.99,1.8 31.63,-2.83 7.68,-2.81 13.52,-7.28 17.38,-13.29 4.42,-6.88 8.86,-16.58 13.56,-26.84 7.97,-17.41 17.02,-37.16 27.18,-45.79l14.55 -12.36 -19.07 0.13c-0.97,0.01 -24,0.27 -47.81,8.99 -39.17,14.33 -57.07,42.36 -51.87,81.09 -1.86,4.12 -5.98,13.51 -8.12,20.45 -1.24,-0.27 -2.48,-0.55 -3.72,-0.78 -8.09,-1.53 -16.36,-2.29 -24.59,-2.29 -17.53,0 -34.1,3.39 -49.22,10.05 2.36,-9.29 5.35,-18.37 8.92,-27.04 10.28,-24.99 25.2,-47.31 44.34,-66.34 16.24,-16.14 35.24,-29.36 56.49,-39.34 0.32,-0.15 0.62,-0.38 0.89,-0.66 2.35,-1.01 4.48,-1.83 6.5,-2.52 5.55,-1.89 11.29,-3.26 17.07,-4.05 11.89,-1.66 24.43,-0.93 36.55,2.13 12.3,3.08 24.44,8.49 36.06,16.09 11.13,7.26 21.76,16.54 31.58,27.58 0.69,0.77 1.65,1.16 2.62,1.16 1.8,-0.09 3.49,-1.55 3.49,-3.47 0,-0.78 -0.26,-1.5 -0.69,-2.08 -6.8,-13.96 -15.04,-26.57 -24.49,-37.47 -10.74,-12.38 -23.04,-22.65 -36.58,-30.53 -14.49,-8.45 -30.93,-14.21 -47.52,-16.66 -1.15,-0.18 -2.34,-0.33 -3.6,-0.48 2.84,-4.99 5.82,-9.73 8.88,-14.14 10.12,-14.62 22.15,-27.86 35.75,-39.36 14.82,-12.53 31.46,-22.82 49.53,-30.62 3.67,6.07 7.36,12.05 10.95,17.85 8.34,13.54 16.29,26.81 22.03,40.3 5.9,13.77 9.16,27.23 9.96,41.15 0.8,13.51 -0.67,28.38 -4.38,44.21 -0.85,3.66 -1.83,7.44 -2.91,11.23 -0.32,1.1 -0.66,2.26 -1.03,3.47 -0.84,2.83 -1.76,5.92 -2.51,8.93 -1.93,7.67 -4,17.89 -2.96,28.99 1.03,11.84 5.95,21.87 9.91,28.19 4.91,7.93 10.62,14.78 16.08,21.01 6.2,6.99 12.63,13.71 18.84,20.21 4.98,5.22 10.14,10.62 15.08,16.05 12.77,13.89 22.62,25.86 31,37.7 0.66,0.95 1.73,1.47 2.82,1.47 0.02,-0.01 0.04,-0.01 0.06,0 1.92,-0.01 3.47,-1.56 3.47,-3.47 0,-0.83 -0.3,-1.59 -0.78,-2.2 -6.98,-12.93 -15.42,-26.19 -26.5,-41.67 -4.33,-6.12 -8.87,-12.2 -13.24,-18.1 -5.29,-7.11 -10.77,-14.46 -15.76,-21.71 -8.68,-12.69 -16.6,-26.12 -15.91,-38.45 0.17,-5.51 1.65,-11.72 4.7,-19.53 0.92,-2.39 1.9,-4.64 2.98,-7.1 0.52,-1.2 1.07,-2.45 1.64,-3.79 1.75,-4.13 3.38,-8.23 4.83,-12.2 1.08,-2.95 2.06,-5.86 3,-8.76 2.43,0.36 5.86,0.96 10,1.92 0.05,4.04 0.66,16.26 6.01,26.42 3.26,6.16 7.7,10.6 13.19,13.17 6.32,2.95 14.99,5.59 24.17,8.38 9.95,3.02 20.71,6.31 29.42,10.26l0 719.16zm-222.23 -580.16c-7.15,9.51 -28.95,41.98 -25.16,80.27 0,0 0.8,-36.58 18.78,-64.34 0,0 10.18,9.57 13.84,21.3 1.5,4.78 1.91,9.92 0.11,14.91 -6.2,17.26 -27.29,47.21 -28.28,66.94 0,0 -11.56,-15.34 -17.76,-35.25 -7.24,-23.18 -7.23,-52.53 26.64,-71.08 0,0 4.72,-9.01 8.77,-15.19 1.03,0.8 2.05,1.61 3.07,2.45zm-73.42 -80.56c2.64,-8.3 8.51,-20.96 8.51,-20.96 -6.91,-44.87 20.39,-65.82 47.1,-75.61 22.96,-8.41 45.49,-8.57 45.49,-8.57 -17.66,15 -30.47,56.08 -42.1,74.18 -3.36,5.24 -8.43,8.52 -13.94,10.54 -13.52,4.94 -29.7,2.28 -29.7,2.28 12.99,-36.6 46.45,-63.47 46.45,-63.47 -40.42,25.1 -54.54,72.27 -57.25,82.81 -1.52,-0.43 -3.04,-0.82 -4.56,-1.21zm195.91 -267.78c-3.24,-7.03 -6.38,-13.88 -9.4,-20.66 21.12,-16.46 46.16,-25.14 72.59,-25.14 12.39,0 24.67,1.95 36.55,5.81l0 198.18c-16.28,-20.82 -38.54,-27.94 -65.27,-20.56 -2.76,-0.82 -8.18,-2.38 -13.28,-3.54 2.37,-9.86 3.87,-19.48 4.5,-29.03 1.26,-18 -0.93,-37.29 -6.32,-55.79 -5.27,-18.39 -13.09,-35.51 -19.37,-49.27zm108.74 172.18c-0.67,-1.28 -1.39,-2.48 -2.09,-3.68l0.01 -210.97c0,-1.49 -0.94,-2.79 -2.33,-3.28 -13.32,-4.64 -27.17,-6.98 -41.15,-6.98 -28.89,-0.01 -56.22,9.8 -79.02,28.33 -1.21,0.98 -1.61,2.66 -0.98,4.1 3.36,7.62 6.88,15.29 10.52,23.2 6.18,13.54 13.88,30.4 19.01,48.31 5.17,17.73 7.26,36.19 6.06,53.39 -1.08,16.43 -4.78,33.09 -11.34,50.95 -1.42,3.87 -3,7.87 -4.7,11.88 -0.56,1.32 -1.1,2.55 -1.62,3.73 -1.12,2.57 -2.14,4.9 -3.09,7.38 -3.33,8.57 -4.97,15.5 -5.17,21.74 -0.8,14.31 7.76,28.96 17.13,42.67 5.08,7.38 10.59,14.78 15.92,21.94 3,4.03 6.07,8.15 9.09,12.31 -3.49,-3.73 -7.01,-7.43 -10.46,-11.03 -6.16,-6.46 -12.54,-13.12 -18.64,-20 -5.25,-5.99 -10.74,-12.56 -15.39,-20.1 -3.56,-5.68 -7.97,-14.65 -8.89,-25.14 -0.94,-10.08 0.99,-19.55 2.77,-26.68 0.72,-2.92 1.61,-5.9 2.43,-8.64 0.38,-1.24 0.73,-2.43 1.05,-3.55 1.12,-3.91 2.13,-7.81 3,-11.56 3.86,-16.48 5.39,-32.03 4.55,-46.2 -0.83,-14.73 -4.28,-28.95 -10.5,-43.47 -5.91,-13.92 -14.02,-27.43 -22.51,-41.22 -4.08,-6.61 -8.29,-13.41 -12.45,-20.37 -0.88,-1.47 -2.71,-2.07 -4.3,-1.41 -19.77,8.2 -37.96,19.27 -54.07,32.88 -14.07,11.89 -26.51,25.59 -36.98,40.71 -4.12,5.94 -8.09,12.46 -11.83,19.38 -0.55,1.03 -0.55,2.28 0,3.3 0.56,1.03 1.59,1.71 2.76,1.81 3.28,0.27 5.97,0.56 8.46,0.93 15.74,2.33 31.31,7.8 45.05,15.81 12.89,7.48 24.61,17.27 34.83,29.08 4.11,4.73 7.97,9.81 11.59,15.2 -4.9,-4.15 -9.95,-7.91 -15.1,-11.27 -12.25,-8.02 -25.09,-13.74 -38.15,-17.01 -12.98,-3.28 -26.44,-4.06 -39.19,-2.28 -6.21,0.85 -12.38,2.33 -18.35,4.36 -2.45,0.83 -5.04,1.85 -7.91,3.11 -0.45,0.2 -0.83,0.48 -1.16,0.82 -21.57,10.25 -40.9,23.78 -57.45,40.23 -19.8,19.68 -35.22,42.77 -45.86,68.63 -4.63,11.23 -8.3,23.1 -10.93,35.25 -0.29,1.32 0.21,2.67 1.27,3.49 1.06,0.82 2.5,0.95 3.68,0.35l0.78 -0.41c1.61,-0.84 3.24,-1.67 4.92,-2.42 14.39,-6.44 30.2,-9.71 46.97,-9.71 7.8,0 15.63,0.73 23.32,2.17 20.84,3.82 41.1,12.02 61.92,25.02 18,11.32 34.69,25.36 49.59,41.68 7.47,8.22 14.18,16.74 19.94,25.28l8.45 13.47c2.76,4.56 5.35,9.03 7.95,13.56 5.4,9.42 10.69,19.04 15.81,28.34 4.8,8.75 9.6,17.45 14.5,26.07 7.91,13.86 17.34,29.74 28.49,45.04 -12.61,-14.18 -23.6,-29.15 -32.87,-42.24 -5.78,-8.2 -11.45,-16.46 -17.08,-24.69 -5.97,-8.72 -12.14,-17.74 -18.34,-26.45 -2.99,-4.2 -6.02,-8.43 -9.05,-12.48l-4.66 -6.17 -4.66 -5.89c-6.12,-7.4 -13.11,-14.66 -20.75,-21.58 -15.13,-13.64 -31.56,-24.93 -48.83,-33.56 -18.8,-9.36 -37.13,-14.82 -54.45,-16.2 -18.55,-1.57 -36.44,2.06 -50.73,10.29 -13.72,7.86 -25.07,20.14 -33.76,36.51 -0.24,0.26 -0.44,0.54 -0.59,0.87 -13.2,27 -20.25,56.08 -20.94,86.39 -0.02,0.66 -0.07,1.33 -0.11,1.97 -0.07,0.95 -0.13,1.9 -0.13,2.86 0,11.67 1.11,23.58 3.39,36.42 3.96,22.42 11.61,43.96 22.77,64.11 4.33,7.22 9.56,15.66 15.47,23.56 8.1,10.83 16.25,19.02 24.88,25.03 9.67,6.77 20.41,10.96 31.92,12.45l0.89 0.11c1.12,0.15 2,0.26 3.53,0.35 1.35,0.11 2.96,0.19 4.43,0.2 1.57,0.04 2.75,0.02 4.51,-0.01l4.63 -0.28c6.08,-0.49 12.15,-1.61 18.04,-3.34 10.72,-3.12 21.93,-8.63 34.26,-16.84 4.7,-3.09 9.19,-6.33 13.95,-9.76 6.15,-4.43 12.5,-8.99 19.23,-13.14 4.5,-2.72 11.34,-6.51 18.92,-7.86 3.3,-0.59 6.67,-0.75 10.13,-0.42 0.29,0.02 0.58,0.05 0.87,0.07 -0.3,0.02 -0.58,0.03 -0.88,0.05 -3.35,0.16 -6.55,0.74 -9.8,1.8 -5.36,1.76 -10.54,4.82 -16.8,9.95 -5.66,4.69 -10.97,9.76 -16.57,15.14 -4.17,3.99 -8.48,8.11 -12.95,12.07 -12.14,10.8 -23.19,18.28 -34.77,23.52 -6.59,3 -13.53,5.35 -20.57,6.94l-5.26 1.07c-1.8,0.32 -3.81,0.62 -5.63,0.85 -1.84,0.24 -3.59,0.41 -5.67,0.54 -1.34,0.12 -3.8,0.21 -5.5,0.22l-1.59 0.02c-14.33,0 -29.46,-3.67 -42.61,-10.35 -7.78,-3.88 -15.24,-8.79 -22.84,-14.99 -1.05,-0.86 -2.5,-1.02 -3.71,-0.43 -1.22,0.6 -1.97,1.86 -1.93,3.22 0.23,7.4 0.91,15.16 2.1,23.68 3.11,22.55 9.84,44.24 20,64.48 10.78,21.48 25.09,40.8 42.52,57.44 0.21,0.47 0.52,0.89 0.92,1.23 9.08,7.77 18.35,14.59 27.53,20.29 19.57,12.15 39.75,19.84 59.96,22.84 14.68,2.26 30.01,1.9 45.23,-0.87 -1.07,-3.91 -2.43,-9.33 -3.51,-13.75 -1.09,-4.25 -1.84,-7.69 -1.84,-7.69 -27.83,-26.81 -20.15,-55.13 -7.1,-75.6 11.2,-17.57 26.38,-29.35 26.38,-29.35 -4.22,19.31 8.29,53.75 9.76,72.03 0.44,5.29 -1.31,10.13 -4,14.35 -6.61,10.35 -18.94,16.92 -18.94,16.92 -10.08,-31.51 -1.28,-67.02 -1.28,-67.02 -11.12,33.42 -4.16,64.84 5.13,89.23 5.3,-1.14 10.58,-2.57 15.8,-4.31 8.46,-2.82 16.61,-6.28 24.33,-10.32 -7.03,5.31 -14.61,10.1 -22.61,14.32 -21.27,11.26 -44.85,17.36 -68.22,17.65 -23.08,0.49 -46.97,-4.44 -71.07,-14.38 -0.88,-0.37 -1.76,-0.75 -2.64,-1.15l-1.48 -0.65c-1.25,-0.53 -2.7,-0.29 -3.71,0.63 -1,0.92 -1.38,2.36 -0.95,3.66 3.4,10.19 7.79,19.99 13.04,29.11 5.83,10.13 12.94,19.72 21.1,28.53 23.02,24.77 53.86,41.64 86.91,47.58 21.28,22.26 48.02,38.48 77.43,46.94 15.75,4.53 31.8,6.82 47.68,6.82 15.98,0 32.1,-2.32 47.94,-6.89 10.83,-3.14 21.48,-7.41 31.63,-12.69 1.15,-0.59 1.86,-1.78 1.86,-3.08l0.01 -717.69c2.04,1.23 3.86,2.52 5.38,3.88l12.08 10.89 -2.31 -16.12c-0.12,-0.82 -2.98,-20.27 -13.08,-39.4z"/>
     <path class="fil2" d="M559.28 2043.2c-4.34,10.99 -10.96,21.2 -19.25,29.91 6.16,-11.14 10.41,-21.72 12.88,-31.99 2.19,-8.95 3.13,-18 2.8,-26.86 -0.19,-4.68 -0.69,-9.26 -1.48,-13.27 -0.14,-0.87 -0.4,-2.13 -0.65,-3.36l-0.75 -3.2c-0.52,-2.08 -1.14,-4.19 -1.9,-6.47 -5.31,-16.23 -14.94,-31.59 -28.61,-45.67 -7.45,-7.72 -16.06,-15 -26.4,-22.25 10.98,4.09 21.41,9.92 30.82,17.27 16.06,12.57 28.15,29.41 34.05,47.4 0.74,2.28 1.43,4.72 2.02,7.22l0.95 4.39c0.17,0.87 0.35,1.78 0.5,2.84 0.76,5.41 1.08,10.33 0.95,15.08 -0.31,10.14 -2.3,19.89 -5.92,28.96zm11.26 -48.2l-1 -4.66c-0.64,-2.72 -1.38,-5.34 -2.18,-7.8 -6.32,-19.29 -19.24,-37.29 -36.36,-50.71 -16.18,-12.62 -35.17,-20.99 -54.93,-24.22 -1.64,-0.26 -3.23,0.67 -3.8,2.24 -0.56,1.57 0.06,3.32 1.49,4.17 18.65,11.07 32.5,21.59 43.6,33.09 12.93,13.31 22.01,27.78 26.99,43.01 0.71,2.13 1.29,4.08 1.76,5.96l0.7 2.94c0.23,1.13 0.47,2.27 0.6,3.16 0.73,3.77 1.2,8 1.38,12.32 0.3,8.22 -0.57,16.62 -2.61,24.96 -3.62,14.99 -11.32,30.81 -23.57,48.37 -0.95,1.37 -0.79,3.21 0.37,4.41 0.67,0.68 1.57,1.04 2.48,1.04 0.66,0 1.33,-0.19 1.91,-0.57 17.28,-11.46 30.89,-28.14 38.32,-46.96 3.92,-9.83 6.08,-20.37 6.41,-31.33 0.14,-5.15 -0.2,-10.46 -1.02,-16.24 -0.17,-1.2 -0.36,-2.21 -0.55,-3.2z"/>
     <path class="fil2" d="M299.34 1769.24c0,0 0,0 0,0 -1.78,0 -3.57,-0.06 -5.37,-0.19 -9.38,-0.67 -18.61,-3.34 -26.67,-7.69 -8.13,-4.36 -15.51,-10.73 -21.34,-18.43 -13.25,-17.59 -16.24,-38.03 -16.4,-52.07 -0.12,-10.96 1.29,-22.03 4.13,-32.75 0.17,10.7 0.81,21.55 2.56,32.21 2.95,18.8 9,34.39 17.98,46.33 9.82,13.21 23.88,22.15 40.68,25.8 9.21,2.09 19.46,2.77 31.74,2.12 -9.05,3.07 -18.28,4.67 -27.31,4.67zm46.96 -13.56c-11.52,1.52 -20.23,2.2 -28.24,2.2 -8.07,0 -15.17,-0.72 -21.65,-2.19 -15.17,-3.31 -27.82,-11.32 -36.63,-23.2 -8.31,-11.02 -13.92,-25.58 -16.69,-43.26 -2.78,-17.03 -2.68,-34.79 -2.35,-51.52 0.04,-1.65 -1.09,-3.09 -2.69,-3.46 -1.59,-0.37 -3.24,0.46 -3.91,1.96 -7.72,17.17 -11.69,36.09 -11.48,54.72 0.18,15.09 3.41,37.09 17.8,56.17 6.43,8.51 14.58,15.54 23.58,20.37 8.91,4.8 19.09,7.75 29.46,8.49 1.97,0.14 3.91,0.21 5.85,0.21 0,0 0,0 0,0 16.5,0 33.5,-4.86 49.16,-14.07 1.43,-0.83 2.06,-2.56 1.53,-4.11 -0.53,-1.57 -2.09,-2.55 -3.72,-2.32z"/>
     <path class="fil1" d="M294.91 1762.45c-16.8,-3.66 -30.87,-12.59 -40.68,-25.8 -8.97,-11.94 -15.03,-27.53 -17.98,-46.33 -1.74,-10.66 -2.39,-21.52 -2.56,-32.21 -2.83,10.72 -4.25,21.79 -4.13,32.75 0.17,14.05 3.15,34.48 16.4,52.07 5.82,7.71 13.2,14.08 21.34,18.43 8.05,4.35 17.29,7.01 26.67,7.69 1.8,0.13 3.59,0.19 5.37,0.19 0,0 0,0 0,0 9.03,0 18.26,-1.59 27.31,-4.67 -12.27,0.65 -22.53,-0.03 -31.74,-2.12z"/>
    </g>
   </g>
  </g>
 </g>
</svg>
