<?xml version="1.0" encoding="UTF-8"?>
<!DOCTYPE svg PUBLIC "-//W3C//DTD SVG 1.1//EN" "http://www.w3.org/Graphics/SVG/1.1/DTD/svg11.dtd">
<!-- Creator: CorelDRAW 2019 (64-Bit) -->
<svg xmlns="http://www.w3.org/2000/svg" xml:space="preserve" width="38.8056mm" height="34.8642mm" version="1.1" style="shape-rendering:geometricPrecision; text-rendering:geometricPrecision; image-rendering:optimizeQuality; fill-rule:evenodd; clip-rule:evenodd"
viewBox="0 0 3872.82 3479.46"
 xmlns:xlink="http://www.w3.org/1999/xlink">
 <defs>
  <style type="text/css">
   <![CDATA[
    .fil0 {fill:none}
    .fil1 {fill:#A2D210}
    .fil2 {fill:#115338}
   ]]>
  </style>
 </defs>
 <g id="Capa_x0020_1">
  <metadata id="CorelCorpID_0Corel-Layer"/>
  <rect class="fil0" x="0" y="-0" width="3845.34" height="3479.47"/>
  <g id="_2987381408">
   <g>
    <polygon class="fil1" points="1685.61,1272.2 1837.83,1272.2 1837.83,1173.12 1414.88,1173.12 1414.88,1272.2 1567.12,1272.2 1567.12,1734.57 1685.61,1734.57 "/>
    <polygon class="fil1" points="2383.29,1173.12 2264.8,1173.12 2264.8,1393.3 2042.73,1393.3 2042.73,1173.12 1924.23,1173.12 1924.23,1734.57 2042.73,1734.57 2042.73,1492.38 2264.8,1492.38 2264.8,1734.57 2383.29,1734.57 "/>
    <polygon class="fil1" points="2643.13,1734.57 2643.13,1173.12 2524.64,1173.12 2524.64,1734.57 "/>
    <path class="fil1" d="M3281.15 1173.12l-106.73 0 0 265.78c0,29.88 1.58,81.78 5.5,154.91l-2.36 0 -243.25 -420.69 -149.88 0 0 561.45 105.93 0 0 -264.21c0,-32.24 -2.36,-85.71 -7.07,-160.41l3.14 -0.01 244.04 424.63 150.67 0 0 -561.45z"/>
    <polygon class="fil1" points="3675.85,1421.61 3871.24,1173.12 3739.41,1173.12 3587.97,1364.2 3540.88,1430.26 3540.88,1173.12 3422.39,1173.12 3422.39,1734.57 3540.88,1734.57 3540.88,1534.05 3591.1,1497.88 3737.84,1734.57 3872.82,1734.57 "/>
    <path class="fil2" d="M1702.96 2093.31l166.36 0 0 197.38c-36.1,14.94 -80.04,22.02 -131.05,22.02 -80.04,0 -140.46,-21.23 -181.27,-63.69 -41.59,-43.24 -61.99,-106.95 -61.99,-191.08 0,-77.85 21.97,-139.97 65.13,-185.58 43.15,-45.61 102.01,-68.41 175.77,-68.41 51.8,0 102.02,11.01 150.67,33.81l15.7 -35.38c-48.65,-22.02 -103.58,-33.03 -164.01,-33.03 -56.5,0 -106.72,11.8 -149.88,36.18 -43.94,24.37 -77.68,58.18 -100.44,102.23 -23.54,44.03 -35.31,95.14 -35.31,151.76 0,92.01 23.54,162.77 70.62,213.1 47.09,49.54 114.57,74.7 203.24,74.7 67.49,0 128.69,-11.8 182.83,-34.6l0 -256.35 -206.38 0 0 36.96z"/>
    <path class="fil2" d="M2228.05 2094.89l144.38 244.55 47.08 0 -152.23 -255.56c40.02,-11.8 70.62,-29.88 90.24,-55.83 19.62,-25.95 29.82,-57.41 29.82,-95.15 0,-51.9 -17.27,-90.43 -50.22,-116.38 -32.96,-25.95 -84.75,-38.53 -153.8,-38.53l-133.4 0 0 561.45 39.23 0 0 -244.55 138.9 0zm-138.9 -282.3l92.59 0c57.29,0 98.87,9.43 124.77,29.09 25.9,19.66 38.45,51.12 38.45,93.57 0,41.68 -13.34,73.13 -39.24,94.36 -25.89,21.24 -62.77,31.46 -109.85,31.46l-106.73 0 0 -248.48z"/>
    <polygon class="fil2" points="2822.27,2303.26 2555.46,2303.26 2555.46,2062.65 2807.36,2062.65 2807.36,2026.48 2555.46,2026.48 2555.46,1814.17 2822.27,1814.17 2822.27,1777.99 2516.23,1777.99 2516.23,2339.44 2822.27,2339.44 "/>
    <polygon class="fil2" points="3255.23,2303.26 2988.43,2303.26 2988.43,2062.65 3240.33,2062.65 3240.33,2026.48 2988.43,2026.48 2988.43,1814.17 3255.23,1814.17 3255.23,1777.99 2949.2,1777.99 2949.2,2339.44 3255.23,2339.44 "/>
    <path class="fil2" d="M3789.43 1777.99l-37.66 0 0 366.44c0,41.68 0.79,84.92 3.13,131.32l-2.35 0 -331.15 -497.75 -39.24 0 0 561.45 37.66 0 0 -364.07c0,-29.88 -1.57,-74.7 -4.7,-134.46l3.13 0 331.94 498.53 39.23 0 0 -561.45z"/>
   </g>
   <g>
    <path class="fil1" d="M780.05 1169.94c2.5,-13.47 11.1,-46.64 37.85,-67.81 0,0 -24.5,24.75 -31.61,55.46 0,0 13.28,0.67 23.73,-4.57 4.26,-2.14 8.04,-5.25 10.27,-9.79 7.71,-15.68 14.26,-49.97 27.12,-63.71 0,0 -18.14,2.22 -35.89,11.12 -20.64,10.35 -40.73,29.77 -31.03,65.32 0,0 -2.3,6.93 -3.91,13.24 1.17,0.23 2.32,0.5 3.46,0.75z"/>
    <path class="fil1" d="M523.51 1183.16c1.25,-0.58 2.5,-1.14 3.77,-1.7 -2.93,-7.1 -7.01,-15.13 -7.01,-15.13 4.99,-41.87 -21.01,-60.44 -46.12,-68.65 -21.57,-7.08 -42.48,-6.5 -42.48,-6.5 16.87,13.35 30.05,51.06 41.43,67.5 3.28,4.76 8.09,7.63 13.26,9.33 12.71,4.16 27.62,1.16 27.62,1.16 -13.21,-33.54 -45.12,-57.4 -45.12,-57.4 34.7,19.91 49.94,57.3 54.63,71.39z"/>
    <path class="fil1" d="M314.02 1362.41c-11.79,-3.82 -40.43,-15.45 -56.26,-42.01 0,0 19.29,24.95 45.97,34.96 0,0 2.15,-11.88 -1.32,-21.89 -1.41,-4.08 -3.75,-7.85 -7.55,-10.39 -13.13,-8.78 -43.08,-18.7 -53.87,-31.88 0,0 -0.16,16.58 5.73,33.57 6.85,19.79 21.88,40.14 54.86,35.6 0,0 5.7,2.75 11.08,4.93 0.43,-0.98 0.92,-1.93 1.37,-2.9z"/>
    <path class="fil1" d="M157.42 1662.64c-14.33,-4.28 -59.71,-20.6 -84,-61.36 0,0 27.72,35.86 66.05,50.23 0,0 3.09,-17.06 -1.88,-31.46 -2.04,-5.86 -5.4,-11.28 -10.86,-14.92 -18.88,-12.61 -61.93,-26.88 -77.43,-45.82 0,0 -0.23,23.83 8.24,48.26 9.83,28.43 31.44,57.67 78.83,51.14 0,0 11.12,5.4 19.67,8.56 0.44,-1.55 0.91,-3.09 1.37,-4.64z"/>
    <path class="fil1" d="M70.72 1953.25c0,0 43.93,10.94 82.89,-1.58 0,0 -8.11,-15.32 -20.92,-23.52 -5.22,-3.33 -11.22,-5.51 -17.75,-4.97 -22.61,1.83 -65.22,17.36 -89.09,12.12 0,0 14.56,18.84 36.31,32.75 25.3,16.21 60.33,25.76 93.49,-8.8 0,-0.01 12.19,-2.69 20.86,-5.54 -0.3,-1.63 -0.52,-3.27 -0.79,-4.91 -12.39,5.08 -59.46,21.86 -105,4.45z"/>
    <path class="fil1" d="M395.27 2355.04c0,0 28.3,-12.92 43.93,-36.35 0,0 -10.89,-4.77 -21.29,-3.69 -4.23,0.43 -8.37,1.84 -11.68,4.92 -11.39,10.66 -27.69,37.26 -42.77,44.66 0,0 15.87,3.9 33.51,2.09 20.52,-2.12 43.44,-11.98 46.55,-44.77 0.01,0 6.2,-7.64 9.56,-13 -1.01,-0.53 -2.02,-1.04 -3,-1.59 -4.08,7.41 -22.32,37.42 -54.81,47.73z"/>
    <path class="fil1" d="M1098.7 2104.8c15.22,1.11 62.68,7.26 95.06,41.54 0,0 -34.85,-28.95 -75.38,-34.61 0,0 0.68,17.33 8.67,30.28 3.25,5.28 7.71,9.83 13.84,12.2 21.17,8.19 66.27,12.72 85.52,27.82 0,0 -4.96,-23.31 -18.53,-45.31 -15.78,-25.6 -43.21,-49.42 -88.05,-32.7 0,0 -11.32,-2.66 -20.24,-3.95 -0.28,1.59 -0.58,3.16 -0.89,4.74z"/>
    <path class="fil1" d="M1251.56 1882.33c0,0 -34.15,-6.71 -63.59,4.41 0,0 6.83,11.45 16.97,17.26 4.13,2.37 8.82,3.79 13.82,3.13 17.31,-2.28 49.41,-15.84 67.94,-12.74 0,0 -11.91,-13.9 -29.13,-23.75 -20.05,-11.47 -47.32,-17.45 -71.45,10.37 0,0 -9.4,2.57 -15.96,5.12 0.1,1.34 0.2,2.67 0.28,3.99 8.14,-3.91 44.55,-19.69 81.12,-7.78z"/>
    <path class="fil1" d="M1139.41 1778.76c-4.18,23.67 -12.26,46.42 -23.97,67.59 -4.64,7.72 -10.15,16.63 -16.41,24.97 -8.55,11.44 -17.15,20.08 -26.27,26.43 -10.21,7.15 -21.54,11.58 -33.66,13.14l-0.97 0.12c-1.18,0.16 -2.12,0.28 -3.8,0.37 -1.35,0.11 -3.05,0.2 -4.63,0.21 -1.54,0.04 -2.96,0.02 -4.57,-0.01l-4.96 -0.29c-6.5,-0.52 -12.9,-1.72 -19.12,-3.53 -11.32,-3.29 -23.15,-9.11 -36.18,-17.79 -4.94,-3.24 -9.69,-6.67 -14.72,-10.28 -6.49,-4.68 -13.19,-9.5 -20.32,-13.9 -4.71,-2.86 -11.96,-6.85 -19.95,-8.27 -3.48,-0.63 -7.18,-0.78 -10.63,-0.45 -0.32,0.02 -0.65,0.05 -0.98,0.08 0.33,0.02 0.65,0.04 0.98,0.06 3.48,0.16 6.87,0.78 10.28,1.89 5.67,1.87 11.14,5.1 17.72,10.5 6,4.96 11.6,10.32 17.51,15.99 4.4,4.22 8.95,8.57 13.66,12.73 8.89,7.91 17.22,14.1 25.56,19.01l-2.65 8.85c-6.03,16.42 -24.4,57.47 -63.77,78.8 0,0 36.93,-26.23 52.88,-63.99 0,0 -16.88,-3.82 -31.44,0.55 -5.93,1.79 -11.48,4.92 -15.34,10.24 -13.38,18.36 -29.42,60.85 -48.97,75.57 0,0 23.75,1.24 48.47,-6.21 28.76,-8.64 58.83,-29.02 54.33,-76.76 0,0 4.77,-8.87 8.28,-16.81l0 0 3.87 -7.11c1.82,0.94 3.63,1.85 5.47,2.67 6.97,3.18 14.3,5.66 21.81,7.36l5.6 1.14c1.79,0.31 3.91,0.64 5.78,0.86 1.99,0.26 3.83,0.44 5.93,0.58 1.51,0.14 4.12,0.23 5.86,0.24l1.73 0.02c15.13,0 31.11,-3.87 44.97,-10.92 8.21,-4.1 16.1,-9.28 24.12,-15.83 1.12,-0.91 2.64,-1.07 3.93,-0.45 1.28,0.64 2.08,1.97 2.03,3.39 -0.23,7.82 -0.95,16.01 -2.21,25.02 -3.28,23.8 -10.39,46.71 -21.12,68.06 -11.38,22.68 -26.49,43.08 -44.9,60.66 -0.22,0.49 -0.54,0.93 -0.96,1.29 -9.58,8.19 -19.35,15.4 -29.06,21.42 -20.67,12.83 -41.98,20.95 -63.31,24.12 -6.87,1.06 -13.95,1.6 -21.06,1.6 -16.12,0 -32.34,-2.69 -48.21,-7.99 -8.92,-2.97 -17.52,-6.62 -25.68,-10.89 7.44,5.6 15.43,10.67 23.87,15.12 22.45,11.89 47.35,18.33 72,18.63 0.97,0.02 1.91,0.03 2.85,0.03 23.45,0 47.74,-5.12 72.2,-15.21 0.96,-0.4 1.89,-0.81 2.83,-1.23l1.53 -0.68c1.32,-0.57 2.85,-0.31 3.91,0.67 1.07,0.97 1.46,2.49 1,3.85 -3.57,10.76 -8.21,21.11 -13.76,30.74 -6.15,10.69 -13.63,20.83 -22.26,30.12 -24.31,26.17 -56.86,43.97 -91.77,50.24 -22.46,23.5 -50.7,40.63 -81.74,49.56 -16.64,4.78 -33.57,7.21 -50.33,7.21 -16.87,0 -33.9,-2.45 -50.62,-7.29 -11.44,-3.31 -22.66,-7.81 -33.39,-13.39 -1.21,-0.63 -1.97,-1.89 -1.97,-3.24l0 -1027.43c0,-1.56 0.98,-2.94 2.46,-3.45 14.06,-4.9 28.68,-7.38 43.43,-7.38 30.51,0 59.35,10.34 83.41,29.91 1.29,1.04 1.71,2.81 1.05,4.33 -3.55,8.04 -7.28,16.15 -11.12,24.51 -6.52,14.28 -14.64,32.08 -20.06,50.98 -5.46,18.73 -7.67,38.21 -6.41,56.37 1.14,17.37 5.06,34.96 11.98,53.81 1.5,4.08 3.17,8.3 4.97,12.55 0.59,1.38 1.16,2.68 1.71,3.93 1.19,2.7 2.27,5.18 3.27,7.79 3.5,9.04 5.24,16.37 5.45,23.03 0.84,15.03 -8.19,30.5 -18.07,44.97 -5.37,7.78 -11.19,15.61 -16.82,23.16 -3.16,4.26 -6.41,8.61 -9.59,13 3.67,-3.94 7.4,-7.84 11.03,-11.65 6.52,-6.82 13.25,-13.86 19.71,-21.14 5.52,-6.31 11.32,-13.25 16.23,-21.18 3.75,-6.02 8.42,-15.49 9.38,-26.55 1,-10.67 -1.04,-20.67 -2.92,-28.18 -0.77,-3.09 -1.71,-6.24 -2.57,-9.12 -0.39,-1.31 -0.77,-2.56 -1.1,-3.73 -1.19,-4.15 -2.26,-8.26 -3.17,-12.23 -4.07,-17.4 -5.68,-33.81 -4.79,-48.78 0.88,-15.54 4.5,-30.56 11.08,-45.9 6.25,-14.67 14.8,-28.94 23.75,-43.49 4.32,-6.98 8.76,-14.16 13.15,-21.5 0.94,-1.56 2.86,-2.2 4.53,-1.51 20.88,8.68 40.09,20.36 57.09,34.72 14.85,12.55 27.98,27.02 39.03,42.99 4.36,6.28 8.56,13.16 12.49,20.45 0.59,1.09 0.59,2.41 0,3.48 -0.59,1.09 -1.68,1.81 -2.9,1.91 -3.47,0.29 -6.31,0.6 -8.94,0.99 -16.61,2.46 -33.05,8.23 -47.55,16.69 -13.6,7.9 -25.98,18.23 -36.77,30.71 -4.34,5 -8.42,10.36 -12.24,16.05 5.18,-4.38 10.5,-8.36 15.94,-11.91 12.93,-8.46 26.49,-14.5 40.28,-17.95 13.68,-3.46 27.89,-4.29 41.36,-2.41 6.56,0.91 13.07,2.46 19.37,4.61 2.58,0.87 5.32,1.95 8.35,3.27 0.47,0.21 0.89,0.51 1.22,0.88 22.78,10.82 43.19,25.1 60.66,42.47 20.91,20.79 37.2,45.16 48.42,72.46 4.87,11.86 8.75,24.38 11.53,37.23 0.3,1.39 -0.22,2.81 -1.34,3.68 -1.13,0.86 -2.63,1 -3.89,0.36l-0.84 -0.44c-1.71,-0.88 -3.41,-1.76 -5.16,-2.52 -22.08,-9.89 -48.93,-12.72 -74.22,-7.97 -22.01,4.04 -43.39,12.68 -65.39,26.43 -18.99,11.95 -36.61,26.76 -52.35,44.01 -7.87,8.67 -14.96,17.66 -21.07,26.71l-4.6 7.16 -4.3 7.05c-2.91,4.8 -5.65,9.53 -8.39,14.31 -5.7,9.95 -11.28,20.1 -16.68,29.92 -5.08,9.23 -10.14,18.42 -15.33,27.52 -8.35,14.63 -18.3,31.41 -30.07,47.55 13.31,-14.97 24.91,-30.77 34.7,-44.6 6.12,-8.65 12.09,-17.38 18.03,-26.06 6.3,-9.21 12.82,-18.73 19.36,-27.93 3.14,-4.43 6.35,-8.89 9.54,-13.16l9.81 -12.71c6.5,-7.84 13.86,-15.52 21.94,-22.82 15.96,-14.4 33.31,-26.32 51.56,-35.43 19.84,-9.89 39.19,-15.64 57.5,-17.11 1.39,-0.12 2.75,-0.14 4.13,-0.2l1.75 9.45c1.67,12.97 5.05,57.16 -20.07,92.55 0,0 19.55,-36.11 17.47,-73.18 0,0 -15.24,3.64 -25.34,13.03 -4.1,3.82 -7.36,8.59 -8.38,14.46 -3.54,20.29 0.35,61.24 -9.66,81.02 0,0 19.79,-8.5 36.92,-24.44 19.93,-18.54 36.24,-47.15 13.55,-84.14 0,0 0.41,-11.2 -0.09,-19.45l0 0 -0.51 -9.41c15.99,0.16 31.24,3.95 43.79,11.19 14.49,8.29 26.49,21.29 35.65,38.61 0.25,0.25 0.45,0.54 0.6,0.85 13.94,28.51 21.38,59.2 22.12,91.21 0.02,0.71 0.07,1.4 0.11,2.09 0.08,1.01 0.14,2 0.14,3.01 0,12.32 -1.17,24.89 -3.58,38.45zm-485.59 -274.48c-1.6,-1.44 -3.52,-2.79 -5.68,-4.09l0 757.75c0,1.36 -0.76,2.61 -1.98,3.24 -10.72,5.58 -21.96,10.09 -33.38,13.39 -16.73,4.84 -33.75,7.29 -50.62,7.29 -16.77,0 -33.7,-2.42 -50.34,-7.21 -31.04,-8.93 -59.27,-26.06 -81.74,-49.56 -34.9,-6.27 -67.45,-24.07 -91.76,-50.23 -8.62,-9.3 -16.11,-19.43 -22.27,-30.13 -5.55,-9.63 -10.18,-19.97 -13.76,-30.74 -0.46,-1.37 -0.06,-2.88 1,-3.85 1.06,-0.98 2.59,-1.23 3.92,-0.67l1.56 0.7c0.93,0.41 1.86,0.82 2.79,1.21 25.44,10.5 50.67,15.7 75.03,15.18 24.67,-0.3 49.57,-6.75 72.03,-18.63 8.44,-4.45 16.45,-9.52 23.86,-15.12 -8.14,4.26 -16.75,7.91 -25.68,10.89 -5.51,1.85 -11.08,3.35 -16.68,4.56 -9.81,-25.76 -17.17,-58.93 -5.42,-94.22 0,0 -9.29,37.5 1.35,70.77 0.01,0 13.02,-6.93 20,-17.86 2.84,-4.45 4.68,-9.57 4.22,-15.15 -1.55,-19.31 -14.75,-55.68 -10.3,-76.06 0,0 -16.02,12.43 -27.84,30.99 -13.78,21.61 -21.89,51.51 7.49,79.82 0.01,0 0.84,3.54 1.96,8.11 1.14,4.66 2.56,10.38 3.7,14.51 -16.07,2.93 -32.26,3.31 -47.75,0.93 -21.33,-3.17 -42.63,-11.29 -63.3,-24.12 -9.69,-6.02 -19.47,-13.22 -29.06,-21.42 -0.42,-0.36 -0.75,-0.81 -0.97,-1.3 -18.4,-17.57 -33.51,-37.97 -44.89,-60.65 -10.73,-21.37 -17.83,-44.27 -21.12,-68.07 -1.25,-9.01 -1.98,-17.2 -2.21,-25.01 -0.04,-1.44 0.75,-2.76 2.03,-3.39 1.29,-0.63 2.82,-0.46 3.93,0.45 8.01,6.55 15.9,11.72 24.1,15.82 13.89,7.06 29.86,10.93 45,10.93l1.69 -0.02c1.78,-0.01 4.39,-0.1 5.8,-0.23 2.2,-0.15 4.03,-0.32 5.98,-0.58 1.92,-0.23 4.04,-0.56 5.94,-0.89l5.56 -1.14c7.43,-1.68 14.76,-4.15 21.73,-7.33 12.22,-5.54 23.87,-13.42 36.7,-24.83 4.72,-4.17 9.26,-8.52 13.66,-12.74 5.93,-5.68 11.53,-11.03 17.5,-15.98 6.62,-5.41 12.08,-8.64 17.73,-10.5 3.43,-1.12 6.82,-1.74 10.35,-1.91 0.31,-0.01 0.62,-0.03 0.93,-0.05 -0.31,-0.02 -0.61,-0.05 -0.92,-0.07 -3.65,-0.36 -7.22,-0.19 -10.7,0.44 -7.99,1.43 -15.23,5.41 -19.97,8.29 -7.1,4.37 -13.81,9.21 -20.3,13.88 -5.02,3.61 -9.77,7.04 -14.73,10.29 -13.01,8.67 -24.85,14.49 -36.17,17.78 -6.21,1.82 -12.62,3.01 -19.04,3.53l-4.88 0.28c-1.86,0.04 -3.11,0.06 -4.77,0.02 -1.54,-0.01 -3.24,-0.1 -4.67,-0.21 -1.61,-0.09 -2.54,-0.21 -3.72,-0.36l-0.93 -0.13c-12.17,-1.57 -23.49,-6 -33.7,-13.14 -9.12,-6.35 -17.71,-14.99 -26.27,-26.43 -6.24,-8.33 -11.77,-17.25 -16.34,-24.86 -11.79,-21.29 -19.85,-44.03 -24.04,-67.7 -2.41,-13.55 -3.58,-26.13 -3.58,-38.45 0,-1.02 0.07,-2.01 0.14,-3.01 0.05,-0.69 0.1,-1.38 0.11,-2.09 0.74,-32.01 8.18,-62.69 22.12,-91.21 0.17,-0.34 0.38,-0.65 0.63,-0.92 9.17,-17.29 21.16,-30.26 35.64,-38.54 15.08,-8.7 33.96,-12.53 53.55,-10.88 18.29,1.46 37.63,7.22 57.48,17.11 18.25,9.11 35.6,21.03 51.56,35.43 8.08,7.31 15.45,14.98 21.92,22.79l4.91 6.22 4.92 6.52c3.19,4.28 6.4,8.74 9.55,13.17 6.54,9.2 13.05,18.72 19.36,27.93 5.95,8.68 11.92,17.41 18.03,26.07 9.79,13.82 21.39,29.62 34.7,44.59 -11.77,-16.16 -21.73,-32.91 -30.08,-47.54 -5.18,-9.1 -10.24,-18.3 -15.31,-27.53 -5.41,-9.81 -11,-19.97 -16.69,-29.92 -2.75,-4.78 -5.49,-9.51 -8.4,-14.31l-8.92 -14.23c-6.08,-9.01 -13.16,-18 -21.05,-26.69 -15.74,-17.25 -33.35,-32.06 -52.35,-44 -21.99,-13.74 -43.37,-22.39 -65.37,-26.43 -8.11,-1.53 -16.4,-2.3 -24.62,-2.3 -17.71,0 -34.4,3.45 -49.6,10.26 -1.77,0.78 -3.48,1.67 -5.19,2.54l-0.82 0.43c-1.26,0.64 -2.77,0.5 -3.89,-0.36 -1.13,-0.87 -1.65,-2.3 -1.35,-3.68 2.77,-12.84 6.66,-25.37 11.54,-37.23 11.23,-27.3 27.52,-51.68 48.42,-72.46 17.48,-17.37 37.87,-31.65 60.65,-42.47 0.34,-0.38 0.76,-0.67 1.23,-0.88 3.03,-1.33 5.77,-2.41 8.35,-3.27 6.29,-2.16 12.81,-3.7 19.37,-4.61 13.45,-1.89 27.66,-1.05 41.36,2.41 13.79,3.45 27.34,9.49 40.28,17.96 5.44,3.53 10.76,7.51 15.94,11.9 -3.81,-5.69 -7.9,-11.05 -12.24,-16.05 -10.8,-12.48 -23.16,-22.8 -36.77,-30.71 -14.5,-8.45 -30.95,-14.23 -47.56,-16.69 -2.62,-0.39 -5.47,-0.7 -8.93,-0.99 -1.23,-0.1 -2.33,-0.82 -2.91,-1.91 -0.58,-1.08 -0.59,-2.4 0,-3.48 3.94,-7.3 8.13,-14.18 12.49,-20.45 11.05,-15.98 24.18,-30.44 39.03,-42.99 17.01,-14.37 36.22,-26.05 57.09,-34.72 1.68,-0.69 3.6,-0.05 4.53,1.5 4.4,7.34 8.84,14.53 13.15,21.5 8.96,14.56 17.51,28.83 23.75,43.52 6.58,15.32 10.21,30.34 11.09,45.89 0.89,14.96 -0.73,31.38 -4.79,48.78 -0.93,3.96 -2,8.07 -3.17,12.21 -0.34,1.19 -0.72,2.44 -1.11,3.74 -0.86,2.88 -1.8,6.04 -2.56,9.11 -1.89,7.52 -3.92,17.52 -2.92,28.16 0.95,11.09 5.63,20.56 9.37,26.56 4.91,7.94 10.72,14.89 16.25,21.21 6.45,7.27 13.17,14.31 19.69,21.13 3.63,3.8 7.37,7.7 11.04,11.65 -3.18,-4.39 -6.43,-8.74 -9.6,-13 -5.63,-7.55 -11.45,-15.37 -16.8,-23.16 -9.9,-14.47 -18.93,-29.94 -18.08,-45.06 0.21,-6.59 1.94,-13.9 5.45,-22.95 1.01,-2.6 2.09,-5.08 3.27,-7.79 0.55,-1.25 1.11,-2.54 1.71,-3.93 1.8,-4.23 3.46,-8.46 4.96,-12.54 6.93,-18.85 10.84,-36.45 11.98,-53.8 1.27,-18.16 -0.95,-37.64 -6.4,-56.36 -5.42,-18.92 -13.54,-36.72 -20.07,-51.02 -3.84,-8.34 -7.56,-16.45 -11.11,-24.49 -0.67,-1.52 -0.24,-3.28 1.04,-4.33 24.06,-19.57 52.9,-29.91 83.42,-29.91 14.75,0 29.36,2.48 43.43,7.38 1.47,0.51 2.46,1.9 2.46,3.45l0 222.75c0.74,1.28 1.49,2.53 2.21,3.89 10.65,20.2 13.67,40.74 13.8,41.6l2.43 17.02 -12.75 -11.5zm631.52 74.7c-24.68,-17.14 -59.33,-27.98 -93.76,5.32 0,0 -3.71,0.67 -8.51,1.7l0 0 -0.05 0.01c-2.95,0.64 -6.32,1.4 -9.48,2.23l-11.17 2.61c-8.1,-84.28 -56.65,-161.15 -130.77,-204.67 -0.74,-0.44 -1.3,-1.1 -1.59,-1.9 -27.85,-75.99 -87.6,-134.51 -163.95,-160.56 -0.5,-0.17 -0.95,-0.45 -1.34,-0.82 -33.79,-32.18 -77.87,-49.9 -124.1,-49.9 -23.2,0 -46.03,4.53 -67.8,13.44 -0.89,0.37 -1.88,0.37 -2.76,0 -21.78,-8.92 -44.59,-13.44 -67.79,-13.44 -46.24,0 -90.32,17.72 -124.11,49.9 -0.38,0.37 -0.84,0.65 -1.34,0.82 -76.34,26.05 -136.1,84.57 -163.95,160.56 -0.29,0.79 -0.85,1.46 -1.58,1.9 -81.42,47.8 -132,135.83 -132,229.72 0,1.6 0.12,3.15 0.22,4.71 0.09,1.25 0.18,2.49 0.22,3.74 0.02,0.59 -0.11,1.17 -0.36,1.7 -17.3,36.29 -26.08,74.73 -26.08,114.26 0,42.13 9.81,82.71 29.15,120.67 0.35,0.68 0.48,1.46 0.36,2.23 -2.4,15.4 -3.51,28.47 -3.51,41.12 0,65.34 24.22,128.38 68.18,177.51 0.52,0.58 0.84,1.3 0.92,2.07 8.93,87.75 72.42,161.57 157.99,183.68 0.57,0.15 1.11,0.43 1.55,0.84 42.52,38.78 97.3,60.14 154.24,60.14 35.29,0 69.45,-8.08 101.56,-24.03 1.06,-0.53 2.07,-1.17 3.07,-1.8 0.95,-0.6 1.91,-1.19 2.89,-1.73 0.55,-0.3 1.15,-0.45 1.75,-0.45 0.6,0 1.2,0.15 1.74,0.45 1,0.54 1.95,1.13 2.89,1.73 1.01,0.63 2.02,1.27 3.08,1.8 32.11,15.95 66.27,24.03 101.56,24.03 56.94,0 111.72,-21.36 154.24,-60.14 0.44,-0.41 0.97,-0.69 1.55,-0.84 85.57,-22.12 149.06,-95.93 157.98,-183.68 0.08,-0.77 0.4,-1.49 0.92,-2.07 43.97,-49.12 68.18,-112.16 68.18,-177.51 0,-12.61 -1.12,-25.68 -3.5,-41.12 -0.12,-0.77 0,-1.55 0.35,-2.23 19.35,-37.95 29.15,-78.55 29.15,-120.67 0,-39.52 -8.77,-77.96 -26.07,-114.26 -0.26,-0.53 -0.38,-1.11 -0.36,-1.69 0.04,-1.27 0.12,-2.52 0.21,-3.77 0.11,-1.55 0.22,-3.1 0.22,-4.69 0,-6.42 -0.26,-12.79 -0.72,-19.14 3.29,-1.05 7.13,-2.35 7.13,-2.35 10.52,-4 59.87,-20.69 106.24,-0.95 0,0 -43.48,-12.57 -82.89,-1.53 0,0 7.53,15.61 20.03,24.29 5.09,3.52 11,5.92 17.55,5.63 22.66,-0.98 65.82,-14.9 89.48,-8.77 0,0 -13.84,-19.37 -35.06,-34.1z"/>
    <path class="fil1" d="M1033.15 1197.52c0,0 -42.06,16.78 -66.44,49.71 0.01,0 15.51,7.7 30.69,6.89 6.18,-0.33 12.31,-2.08 17.32,-6.34 17.32,-14.69 42.89,-52.2 65.34,-61.88 0,0 -22.78,-6.82 -48.56,-5.42 -29.98,1.62 -63.99,14.33 -70.84,61.79 0,0 -10.15,11.34 -15.3,18.9 2.3,1.33 4.36,2.46 4.55,2.15 6.14,-10.01 34.88,-53 83.24,-65.8z"/>
    <path class="fil1" d="M774.82 1654.62c-19.6,9.95 -33.53,24.7 -33.53,24.7 20.69,-2.43 55.49,14.34 74.51,17.79 5.5,1.01 10.76,-0.33 15.47,-2.71 11.54,-5.88 19.71,-18.17 19.71,-18.17 -31.99,-13.9 -70.14,-8.33 -70.14,-8.33 37.6,-10.24 73.8,5.15 86.44,11.51 0.68,-1.16 1.38,-2.34 2.06,-3.49 -7,-2.97 -15.99,-5.93 -15.99,-5.93 -25.21,-32.1 -55.71,-26.97 -78.52,-15.36z"/>
    <path class="fil1" d="M855.87 1480.74c0,0 -12.48,-0.47 -21.6,0.11 0.03,1.61 -0.02,3.24 -0.11,4.91 13.74,-1.83 63.02,-5.93 102.43,22.15 0,0 -39.78,-21.64 -80.64,-19.32 0,0 4.01,16.87 14.35,28.02 4.21,4.55 9.48,8.15 15.94,9.28 22.36,3.92 67.49,-0.39 89.28,10.7 0,0 -9.37,-21.91 -26.94,-40.86 -20.43,-22.05 -51.95,-40.1 -92.71,-14.99z"/>
    <path class="fil1" d="M743.89 2065.08c-0.79,2.42 -1.51,4.98 -2.15,7.62l-1 4.63c-0.18,0.93 -0.36,1.89 -0.52,3.01 -0.81,5.7 -1.15,10.91 -1.01,15.91 0.32,10.71 2.42,21 6.25,30.58 4.59,11.61 11.57,22.39 20.32,31.59 -6.5,-11.78 -10.99,-22.94 -13.59,-33.78 -2.31,-9.45 -3.3,-18.99 -2.96,-28.36 0.21,-4.94 0.75,-9.77 1.56,-14 0.15,-0.94 0.43,-2.26 0.7,-3.55l0.79 -3.38c0.56,-2.2 1.22,-4.41 2.02,-6.83 5.6,-17.13 15.77,-33.35 30.2,-48.21 7.86,-8.14 16.96,-15.83 27.87,-23.49 -11.6,4.32 -22.6,10.47 -32.54,18.23 -16.95,13.27 -29.71,31.05 -35.93,50.04z"/>
    <path class="fil1" d="M1067.52 1803.17c-10.36,13.96 -25.21,23.39 -42.94,27.26 -9.72,2.21 -20.55,2.92 -33.5,2.24 9.55,3.24 19.29,4.92 28.83,4.92 0,0 0,0 0,0 1.88,0 3.76,-0.06 5.67,-0.19 9.9,-0.72 19.64,-3.52 28.15,-8.12 8.59,-4.6 16.37,-11.33 22.51,-19.46 14,-18.57 17.14,-40.15 17.32,-54.98 0.13,-11.57 -1.36,-23.25 -4.35,-34.57 -0.18,11.3 -0.87,22.75 -2.69,34.01 -3.12,19.85 -9.51,36.31 -18.99,48.9z"/>
    <path class="fil1" d="M393.97 1471.94c0,0 -35.33,28.36 -49.03,67.01 0,0 17.07,2.82 31.35,-2.4 5.81,-2.14 11.17,-5.6 14.71,-11.13 12.29,-19.13 25.8,-62.49 44.44,-78.32 0,0 -23.78,0.16 -48.01,9.04 -28.2,10.33 -57.03,32.45 -49.73,79.83 0,0 -6.2,13.36 -8.98,22.14 1.61,0.41 3.2,0.82 4.81,1.27 2.87,-11.13 17.76,-60.93 60.45,-87.44z"/>
    <path class="fil1" d="M365.61 1731.66c6.55,21.02 18.75,37.23 18.75,37.23 1.04,-20.84 23.3,-52.47 29.85,-70.69 1.91,-5.27 1.47,-10.69 -0.11,-15.73 -3.86,-12.39 -14.61,-22.5 -14.61,-22.5 -18.98,29.3 -19.83,67.93 -19.83,67.93 -4,-40.42 19.01,-74.71 26.57,-84.75 -1.08,-0.87 -2.16,-1.73 -3.24,-2.57 -4.28,6.52 -9.25,16.03 -9.25,16.03 -35.76,19.59 -35.77,50.58 -28.12,75.05z"/>
    <path class="fil1" d="M571.89 1427.2c0,0 -8.56,-2.64 -15.86,-4.28l-1.07 3.88c13.89,2.09 52.45,10.44 77.33,40.63 0,0 -27.95,-26.62 -62.08,-33.76 0.01,0 -0.41,14.76 5.63,26.24 2.47,4.67 5.99,8.8 11.06,11.17 17.52,8.18 55.6,14.63 71.09,28.58 0,0 -2.87,-20.1 -13.14,-39.57 -11.94,-22.67 -33.88,-44.51 -72.95,-32.88z"/>
    <path class="fil1" d="M598.64 2077.34l-1 -4.63c-0.64,-2.64 -1.36,-5.21 -2.15,-7.62 -6.22,-18.99 -18.98,-36.77 -35.93,-50.04 -9.95,-7.76 -20.95,-13.9 -32.54,-18.23 10.92,7.66 20.01,15.35 27.87,23.49 14.43,14.86 24.59,31.09 30.2,48.21 0.8,2.42 1.46,4.63 2.01,6.83l0.8 3.38c0.27,1.3 0.54,2.61 0.69,3.55 0.82,4.23 1.36,9.06 1.56,14 0.34,9.36 -0.65,18.91 -2.95,28.36 -2.61,10.84 -7.1,22.01 -13.6,33.78 8.76,-9.2 15.74,-19.98 20.33,-31.59 3.82,-9.58 5.93,-19.87 6.25,-30.58 0.13,-5 -0.2,-10.21 -1.01,-15.91 -0.16,-1.13 -0.35,-2.09 -0.52,-3.01z"/>
    <path class="fil2" d="M1230.92 1621.86c-6.56,0.29 -12.47,-2.1 -17.55,-5.63 -12.5,-8.68 -20.03,-24.29 -20.03,-24.29 39.41,-11.05 82.89,1.53 82.89,1.53 -46.36,-19.74 -95.73,-3.05 -106.24,0.95 0,0 -3.83,1.3 -7.13,2.35 0.46,6.35 0.72,12.72 0.72,19.14 0,1.59 -0.11,3.14 -0.22,4.69 -0.09,1.25 -0.17,2.5 -0.21,3.77 -0.02,0.58 0.1,1.16 0.36,1.69 17.3,36.3 26.07,74.74 26.07,114.26 0,42.12 -9.8,82.71 -29.15,120.67 -0.35,0.68 -0.47,1.46 -0.35,2.23 2.39,15.44 3.5,28.5 3.5,41.12 0,65.35 -24.21,128.38 -68.18,177.51 -0.52,0.58 -0.84,1.3 -0.92,2.07 -8.92,87.75 -72.42,161.57 -157.98,183.68 -0.58,0.15 -1.11,0.43 -1.55,0.84 -42.52,38.78 -97.31,60.14 -154.24,60.14 -35.29,0 -69.45,-8.08 -101.56,-24.03 -1.07,-0.53 -2.08,-1.17 -3.08,-1.8 -0.95,-0.6 -1.9,-1.19 -2.89,-1.73 -0.54,-0.3 -1.14,-0.45 -1.74,-0.45 -0.6,0 -1.2,0.15 -1.75,0.45 -0.99,0.54 -1.95,1.13 -2.89,1.73 -1.01,0.63 -2.02,1.27 -3.07,1.8 -32.11,15.95 -66.28,24.03 -101.56,24.03 -56.95,0 -111.72,-21.36 -154.24,-60.14 -0.44,-0.41 -0.98,-0.69 -1.55,-0.84 -85.58,-22.12 -149.07,-95.93 -157.99,-183.68 -0.08,-0.77 -0.4,-1.49 -0.92,-2.07 -43.96,-49.12 -68.18,-112.17 -68.18,-177.51 0,-12.64 1.12,-25.72 3.51,-41.12 0.12,-0.77 -0.01,-1.55 -0.36,-2.23 -19.33,-37.95 -29.15,-78.54 -29.15,-120.67 0,-39.53 8.78,-77.97 26.08,-114.26 0.25,-0.53 0.38,-1.11 0.36,-1.7 -0.04,-1.26 -0.13,-2.5 -0.22,-3.74 -0.1,-1.56 -0.22,-3.11 -0.22,-4.71 0,-93.89 50.58,-181.92 132,-229.72 0.73,-0.44 1.29,-1.1 1.58,-1.9 27.85,-75.99 87.61,-134.51 163.95,-160.56 0.5,-0.17 0.96,-0.45 1.34,-0.82 33.79,-32.18 77.87,-49.9 124.11,-49.9 23.2,0 46.02,4.53 67.79,13.44 0.89,0.37 1.88,0.37 2.76,0 21.79,-8.92 44.6,-13.44 67.8,-13.44 46.23,0 90.31,17.72 124.1,49.9 0.39,0.37 0.84,0.65 1.34,0.82 76.35,26.05 136.1,84.57 163.95,160.56 0.29,0.79 0.85,1.46 1.59,1.9 74.12,43.52 122.66,120.39 130.77,204.67l11.17 -2.61c3.16,-0.83 6.53,-1.59 9.48,-2.23l0.05 -0.01 0 0c4.8,-1.03 8.51,-1.7 8.51,-1.7 34.43,-33.3 69.08,-22.46 93.76,-5.32 21.22,14.73 35.06,34.1 35.06,34.1 -23.66,-6.13 -66.82,7.8 -89.48,8.77zm-111.09 482.16c44.84,-16.72 72.28,7.11 88.05,32.7 13.57,22 18.53,45.31 18.53,45.31 -19.25,-15.1 -64.35,-19.63 -85.52,-27.82 -6.13,-2.37 -10.59,-6.92 -13.84,-12.2 -7.99,-12.95 -8.67,-30.28 -8.67,-30.28 40.53,5.66 75.38,34.61 75.38,34.61 -32.38,-34.28 -79.84,-40.43 -95.06,-41.54 0.31,-1.58 0.61,-3.15 0.89,-4.74 8.92,1.28 20.24,3.95 20.24,3.95zm-676.3 217.88c-3.11,32.79 -26.04,42.65 -46.56,44.77 -17.64,1.82 -33.51,-2.09 -33.51,-2.09 15.08,-7.41 31.39,-34 42.77,-44.66 3.3,-3.08 7.45,-4.49 11.68,-4.92 10.4,-1.08 21.29,3.69 21.29,3.69 -15.63,23.42 -43.93,36.35 -43.93,36.35 32.5,-10.32 50.73,-40.33 54.81,-47.73 0.99,0.55 2,1.06 3,1.59 -3.36,5.36 -9.56,13 -9.55,13zm-287.88 -362.65c-33.16,34.57 -68.19,25.02 -93.49,8.81 -21.75,-13.91 -36.31,-32.75 -36.31,-32.75 23.87,5.24 66.48,-10.29 89.09,-12.12 6.54,-0.54 12.53,1.64 17.75,4.97 12.8,8.2 20.92,23.52 20.92,23.52 -38.96,12.51 -82.89,1.58 -82.89,1.58 45.54,17.41 92.61,0.63 105,-4.45 0.27,1.64 0.49,3.28 0.79,4.91 -8.67,2.84 -20.86,5.54 -20.86,5.53zm-19.27 -300.53c-47.4,6.54 -69,-22.7 -78.83,-51.14 -8.46,-24.43 -8.24,-48.26 -8.24,-48.26 15.5,18.94 58.54,33.2 77.43,45.82 5.46,3.64 8.82,9.06 10.86,14.92 4.97,14.4 1.88,31.46 1.88,31.46 -38.32,-14.37 -66.05,-50.23 -66.05,-50.23 24.29,40.76 69.67,57.08 84,61.36 -0.46,1.55 -0.93,3.09 -1.37,4.64 -8.55,-3.16 -19.67,-8.56 -19.67,-8.56zm165.2 -298.33c-32.98,4.54 -48.01,-15.81 -54.86,-35.6 -5.89,-17 -5.73,-33.57 -5.73,-33.57 10.79,13.17 40.74,23.09 53.87,31.88 3.8,2.53 6.14,6.31 7.55,10.39 3.47,10.01 1.32,21.89 1.32,21.89 -26.68,-10.01 -45.97,-34.96 -45.97,-34.96 15.83,26.56 44.47,38.18 56.26,42.01 -0.45,0.98 -0.94,1.93 -1.37,2.9 -5.38,-2.18 -11.08,-4.93 -11.08,-4.93zm212.44 -191.21c0,0 -14.92,3 -27.63,-1.16 -5.17,-1.7 -9.98,-4.57 -13.26,-9.33 -11.37,-16.44 -24.56,-54.14 -41.43,-67.5 0,0 20.91,-0.58 42.48,6.5 25.11,8.21 51.11,26.79 46.12,68.65 0,0 4.07,8.03 7.01,15.13 -1.27,0.55 -2.52,1.12 -3.77,1.7 -4.69,-14.09 -19.93,-51.48 -54.63,-71.39 0,0 31.91,23.85 45.13,57.4zm297.52 -78.54c17.74,-8.9 35.89,-11.12 35.89,-11.12 -12.85,13.73 -19.4,48.03 -27.12,63.71 -2.23,4.54 -6.01,7.65 -10.27,9.79 -10.45,5.24 -23.73,4.57 -23.73,4.57 7.11,-30.71 31.61,-55.46 31.61,-55.46 -26.76,21.18 -35.36,54.34 -37.85,67.81 -1.15,-0.25 -2.3,-0.52 -3.46,-0.75 1.62,-6.32 3.91,-13.24 3.91,-13.24 -9.7,-35.55 10.39,-54.97 31.03,-65.32zm149.13 151.64c6.85,-47.46 40.86,-60.17 70.84,-61.79 25.78,-1.4 48.56,5.42 48.56,5.42 -22.45,9.68 -48.02,47.19 -65.34,61.88 -5.01,4.26 -11.14,6.01 -17.32,6.34 -15.18,0.82 -30.69,-6.89 -30.69,-6.89 24.38,-32.93 66.44,-49.71 66.44,-49.71 -48.36,12.79 -77.11,55.79 -83.24,65.8 -0.19,0.31 -2.27,-0.81 -4.55,-2.15 5.15,-7.56 15.3,-18.9 15.3,-18.9zm225.46 638.73c24.13,-27.81 51.4,-21.84 71.45,-10.37 17.23,9.85 29.13,23.75 29.13,23.75 -18.53,-3.1 -50.64,10.47 -67.94,12.74 -5,0.66 -9.69,-0.77 -13.82,-3.13 -10.14,-5.81 -16.97,-17.26 -16.97,-17.26 29.44,-11.12 63.59,-4.41 63.59,-4.41 -36.57,-11.91 -72.97,3.87 -81.12,7.78 -0.08,-1.32 -0.18,-2.65 -0.28,-3.99 6.56,-2.54 15.96,-5.12 15.96,-5.12zm140.23 -272.18c-0.6,-0.84 -14.84,-20.58 -36.85,-35.86 -36.19,-25.12 -71.2,-23.54 -101.38,4.52 -4.04,0.78 -12.49,2.5 -19.41,4.48 -10.53,-82.94 -59.18,-158.03 -132.3,-201.44 -16.73,-44.99 -44.43,-83.9 -79.96,-113.89 1.58,-2.5 4.43,-6.84 8.53,-12.15 4.58,2.05 18.62,7.69 32.8,6.93 8.61,-0.47 15.9,-3.17 21.65,-8.05 6.59,-5.58 14.05,-13.99 21.96,-22.89 13.41,-15.13 28.62,-32.27 41.55,-37.85l18.5 -7.97 -19.3 -5.77c-0.98,-0.29 -24.31,-7.15 -51.04,-5.71 -43.95,2.38 -70.66,25.13 -77.34,65.85 -2.74,3.11 -8.42,9.73 -12.68,15.57 -21.71,-15.8 -45.84,-28.54 -71.92,-37.53 -23.87,-22.53 -52.61,-38.15 -83.62,-45.86 0.4,-2.15 0.96,-4.82 1.75,-7.94 3.86,0.04 15.49,-0.3 25.25,-5.2 5.93,-2.97 10.23,-7.13 12.79,-12.33 2.93,-5.97 5.62,-14.19 8.46,-22.9 4.83,-14.78 10.3,-31.54 17.71,-39.44l10.59 -11.31 -15.37 1.86c-0.78,0.1 -19.32,2.44 -37.72,11.68 -30.26,15.18 -42.12,39.42 -34.36,70.18 -0.84,2.58 -2.4,7.64 -3.59,12.46 -10,-1.66 -20.16,-2.54 -30.44,-2.54 -23.67,0 -46.94,4.51 -69.18,13.42 -22.25,-8.91 -45.52,-13.42 -69.18,-13.42 -23.93,0 -47.3,4.55 -69.07,13.25 -2.19,-5.33 -4.9,-10.95 -6.31,-13.79 3.58,-36.11 -13.92,-61.53 -50.72,-73.59 -22.38,-7.34 -43.75,-6.83 -44.65,-6.81l-17.69 0.49 13.89 11c9.71,7.69 18.73,25.74 26.69,41.65 4.69,9.36 9.12,18.21 13.43,24.47 3.78,5.45 9.35,9.41 16.56,11.79 11.88,3.88 25.09,2.29 29.43,1.6 1.77,4.19 3.01,7.71 3.85,10.26 -15.87,8.09 -30.68,18.5 -43.97,31.05 -69.82,24.05 -125.98,74.63 -157.49,140.7 -1.94,-0.62 -4.4,-1.48 -7.3,-2.63 0.48,-3.45 1.55,-13.95 -1.7,-23.31 -1.97,-5.68 -5.17,-10.04 -9.53,-12.95 -5,-3.33 -12.05,-6.72 -19.52,-10.3 -12.66,-6.09 -27.04,-12.97 -33.24,-20.57l-8.89 -10.86 -0.13 14.04c0,0.71 -0.09,17.66 6.02,35.3 10.04,29 30.36,42.51 58.82,39.15 2.09,1 6.04,2.81 9.96,4.4 -1.46,3.48 -2.92,6.96 -4.24,10.52 -82.98,49.26 -134.48,139.33 -134.48,235.37 0,1.77 0.12,3.49 0.24,5.22 0.06,0.87 0.12,1.73 0.17,2.59 -4.95,10.47 -9.19,21.13 -12.75,31.92 -2.93,-0.88 -7.34,-2.32 -12.71,-4.47 0.69,-4.97 2.23,-20.05 -2.44,-33.5 -2.83,-8.16 -7.44,-14.43 -13.7,-18.62 -7.19,-4.79 -17.32,-9.65 -28.04,-14.8 -18.2,-8.74 -38.85,-18.64 -47.78,-29.55l-12.76 -15.61 -0.19 20.18c-0.01,1.02 -0.14,25.39 8.64,50.73 14.43,41.68 43.63,61.1 84.53,56.27 3.84,1.82 12.1,5.63 18.99,8.12 -5.43,21.52 -8.18,43.55 -8.18,65.94 0,42.89 9.9,84.25 29.42,122.93 -2.34,15.28 -3.42,28.37 -3.42,41.08 0,12.46 0.86,24.83 2.54,37.04 -2.31,0.99 -7.7,3.16 -15.27,5.42 -2.53,-4.33 -10.66,-17.13 -22.62,-24.79 -7.28,-4.65 -14.76,-6.71 -22.27,-6.1 -8.6,0.69 -19.56,3.16 -31.17,5.79 -19.7,4.44 -42.03,9.49 -55.78,6.47l-19.67 -4.32 12.33 15.96c0.63,0.81 15.59,20.02 38.15,34.45 37.1,23.75 72.03,20.86 101.14,-8.31 3.89,-0.91 11.92,-2.85 18.65,-5.02 9.79,45.96 31.37,89.03 63.22,124.93 9.65,89.96 74.74,165.55 162.44,188.6 12.99,11.76 27.1,21.91 42.02,30.43 -0.97,1.74 -2.8,4.87 -5.54,8.78 -3.21,-1.25 -13.03,-4.66 -22.74,-3.65 -5.9,0.61 -10.81,2.71 -14.59,6.25 -4.33,4.06 -9.17,10.08 -14.3,16.47 -8.7,10.82 -18.57,23.09 -27.26,27.36l-12.43 6.1 13.43 3.31c0.69,0.17 16.93,4.09 35.22,2.21 30.09,-3.1 47.65,-19.61 50.88,-47.78 2.01,-2.5 6.43,-8.2 9.17,-12.65 32.34,16.1 68.04,24.64 104.63,24.64 36.42,0 71.68,-8.34 104.81,-24.81 1.28,-0.63 2.49,-1.38 3.69,-2.14 0.25,-0.16 0.51,-0.32 0.77,-0.48 0.25,0.16 0.51,0.32 0.76,0.48 1.22,0.76 2.42,1.51 3.7,2.15 33.13,16.46 68.38,24.8 104.81,24.8 58.46,0 114.7,-21.82 158.48,-61.45 79.02,-20.77 139.67,-84.21 157.95,-162.39 3.03,0.2 7.89,0.65 14.04,1.65 0.4,5 2.19,20.06 9.65,32.17 4.54,7.36 10.4,12.46 17.43,15.18 8.05,3.11 18.99,5.65 30.59,8.33 19.66,4.55 41.97,9.72 53.05,18.41l15.86 12.45 -4.2 -19.74c-0.22,-1 -5.39,-24.81 -19.46,-47.61 -23.14,-37.53 -55.86,-50.11 -94.72,-36.48 -3.84,-0.87 -11.73,-2.55 -18.64,-3.54 0.33,-2.34 0.64,-4.67 0.89,-7.03 44.67,-50.34 69.26,-114.75 69.26,-181.51 0,-2.65 -0.05,-5.34 -0.16,-8.05l0.65 -0.34c0.13,-0.07 4.8,-2.51 12.46,-5.21 2.11,3.23 8.83,12.73 18.32,18.15 5.76,3.29 11.59,4.58 17.33,3.83 6.59,-0.87 14.9,-3.19 23.71,-5.65 14.95,-4.17 31.91,-8.91 42.57,-7.12l15.27 2.55 -10.07 -11.78c-0.52,-0.6 -12.74,-14.77 -30.62,-24.98 -29.39,-16.81 -56.11,-13.24 -77.34,10.28 -2.81,0.81 -8.45,2.48 -13.37,4.29 -0.54,-5.42 -1.26,-11.07 -2.17,-17.07 19.52,-38.69 29.41,-80.04 29.41,-122.93 0,-40.32 -8.88,-79.54 -26.4,-116.6 0.05,-0.88 0.1,-1.75 0.17,-2.62 0.12,-1.71 0.23,-3.43 0.23,-5.19 0,-4.62 -0.16,-9.22 -0.39,-13.81l0.3 -0.12c0.17,-0.08 6.51,-2.71 16.73,-5.35 2.36,4.43 10,17.51 21.68,25.63 7.1,4.91 14.5,7.25 22.03,6.93 8.62,-0.37 19.66,-2.44 31.36,-4.62 19.85,-3.7 42.36,-7.9 55.99,-4.38l19.49 5.06 -11.72 -16.41z"/>
    <path class="fil2" d="M886.24 1525.89c-6.46,-1.14 -11.73,-4.73 -15.94,-9.28 -10.34,-11.16 -14.35,-28.02 -14.35,-28.02 40.86,-2.33 80.64,19.32 80.64,19.32 -39.4,-28.07 -88.68,-23.97 -102.43,-22.15 0.09,-1.67 0.13,-3.3 0.11,-4.91 9.12,-0.58 21.6,-0.11 21.6,-0.11 40.77,-25.11 72.29,-7.06 92.71,14.99 17.56,18.95 26.94,40.86 26.94,40.86 -21.8,-11.09 -66.93,-6.78 -89.28,-10.7zm68.17 347.85c-6.59,-4.74 -13.4,-9.65 -20.77,-14.2 -1.93,-1.17 -4.25,-2.51 -6.87,-3.81 -4.47,-2.25 -9.81,-4.38 -15.62,-5.42 -4.13,-0.75 -8.64,-0.92 -12.52,-0.54 -4.16,0.32 -8.07,0.95 -11.63,1.86 -7.86,1.98 -15.17,5.7 -21.08,10.75 -5.43,4.57 -10.1,10.34 -14.3,17.62 -0.96,1.67 -0.47,3.79 1.13,4.87 0.06,0.04 0.13,0.04 0.2,0.08 1.57,0.92 3.58,0.59 4.72,-0.87 4.49,-5.77 9.3,-10.27 14.3,-13.4 5.14,-3.26 11.15,-5.35 17.4,-6.02 3.01,-0.32 6.07,-0.36 9.48,-0.15 2.88,0.13 5.64,0.64 8.41,1.55 1.25,0.41 2.5,0.92 3.76,1.52 3.56,1.69 7.28,4.14 11.6,7.67 5.77,4.78 11.28,10.04 17.11,15.63 4.44,4.26 9.04,8.66 13.86,12.92 7.56,6.73 14.76,12.26 21.93,16.89 -1,2.89 -2.64,7.35 -5.1,12.82 -4.92,-0.91 -19.9,-3.07 -33.51,1.02 -8.25,2.49 -14.7,6.83 -19.14,12.92 -5.08,6.99 -10.36,16.93 -15.95,27.46 -9.49,17.85 -20.24,38.1 -31.5,46.58l-16.1 12.13 0.35 0.01 19.76 1.04c1.02,0.05 25.31,1.21 50.95,-6.51 42.17,-12.67 62.76,-41.09 59.69,-82.24 1.71,-3.26 5.04,-9.76 7.7,-15.87 7.25,3.26 14.86,5.83 22.72,7.6l5.79 1.18c2.02,0.35 4.28,0.7 6.22,0.93 2.1,0.28 4.09,0.47 6.25,0.62 1.71,0.15 4.51,0.24 6.35,0.26l1.83 0.02c16.26,0 33.4,-4.16 48.25,-11.71 6.5,-3.24 12.79,-7.12 19.1,-11.76 -0.01,0.09 -0.02,0.2 -0.03,0.29 -0.37,5.1 -0.93,10.4 -1.72,16.06 -3.17,23 -10.04,45.14 -20.41,65.78 -11.17,22.27 -26.05,42.26 -44.22,59.42 -0.32,0.3 -0.58,0.65 -0.77,1.03 -9,7.62 -18.16,14.35 -27.25,19.99 -19.82,12.3 -40.19,20.07 -60.56,23.1 -21.34,3.28 -44.1,1.17 -65.88,-6.11 -8.27,-2.75 -16.26,-6.13 -23.85,-10.05 -2.6,-1.35 -5.16,-2.75 -7.67,-4.23 -11.13,-6.45 -21.64,-14.07 -29.55,-20 -0.01,0 -0.01,0 -0.01,-0.01 -1.53,-1.14 -3.66,-0.92 -4.93,0.51 -1.26,1.44 -1.21,3.59 0.11,4.97 7.02,7.31 16.41,16.8 26.82,25.39 9.56,7.97 20.17,15.06 31.57,21.08 0.06,0.03 0.13,0.06 0.2,0.09 23.42,12.37 49.39,19.07 75.1,19.39 24.37,0.47 49.44,-4.44 74.69,-14.43 -0.02,0.08 -0.07,0.16 -0.09,0.24 -2.91,7.43 -6.34,14.59 -10.26,21.39 -5.87,10.21 -13.03,19.89 -21.28,28.78 -23.5,25.3 -55.06,42.43 -88.85,48.22 -0.78,0.13 -1.49,0.52 -2.04,1.1 -21.7,22.99 -49.11,39.75 -79.28,48.43 -32.06,9.22 -64.88,9.18 -96.91,-0.07 -10.2,-2.95 -20.23,-6.91 -29.86,-11.75 -0.07,-0.03 -0.15,-0.07 -0.22,-0.1l0 -1022.56c12.53,-4.08 25.5,-6.15 38.58,-6.15 19.24,0 37.77,4.37 54.74,12.76 7.64,3.78 14.96,8.39 21.9,13.78 -3.19,7.17 -6.52,14.39 -9.94,21.83 -6.62,14.52 -14.86,32.58 -20.43,52.01 -5.69,19.53 -8,39.9 -6.68,58.89 1.18,18.06 5.25,36.34 12.41,55.86 1.54,4.19 3.25,8.52 5.1,12.89 0.61,1.42 1.19,2.73 1.75,4 1.14,2.59 2.18,4.97 3.14,7.5 3.2,8.24 4.78,14.8 4.96,20.72 0.73,12.91 -7.64,27.1 -16.8,40.49 -5.28,7.67 -11.06,15.43 -16.64,22.93 -4.63,6.22 -9.41,12.65 -13.97,19.09 -11.87,16.59 -20.87,30.76 -28.3,44.6 -0.91,1.7 -0.35,3.82 1.29,4.85 0.06,0.03 0.13,0.03 0.18,0.06 1.62,0.89 3.65,0.47 4.73,-1.06 8.84,-12.5 19.25,-25.14 32.74,-39.82 5.2,-5.72 10.64,-11.42 15.9,-16.93 6.56,-6.87 13.34,-13.96 19.9,-21.35 5.75,-6.57 11.78,-13.79 16.96,-22.16 3.59,-5.77 7.93,-14.43 9.77,-24.69 2.56,-0.38 8.22,-1.11 15.94,-1.38 0.02,0.04 0.03,0.09 0.04,0.13 1.41,4.94 6.06,19.21 15.65,29.56 3.68,3.97 7.7,6.98 12.03,8.98 2.56,1.2 5.24,2.04 8,2.52 8.5,1.5 19.73,1.87 31.62,2.25 20.18,0.65 43.05,1.39 55.62,7.77l0.19 0.1 17.76 9.03 0 0 -7.93 -18.55c-0.41,-0.93 -10.08,-23.29 -28.29,-42.94 -9.31,-10.05 -19.08,-17.55 -29.17,-22.5 -22.37,-10.95 -46.36,-9.31 -70.82,5.09 -4.1,-0.11 -12.71,-0.25 -19.9,0.2 -0.07,0 -0.14,0.01 -0.21,0.01 -0.63,-5.97 -1.81,-11.41 -2.94,-15.97 -0.79,-3.19 -1.77,-6.46 -2.66,-9.44 -0.38,-1.28 -0.75,-2.5 -1.07,-3.65 -1.16,-4.03 -2.19,-8.02 -3.08,-11.88 -3.91,-16.72 -5.46,-32.42 -4.62,-46.69 0.84,-14.69 4.27,-28.89 10.52,-43.44 6.04,-14.22 14.44,-28.23 23.24,-42.53 3.79,-6.13 7.68,-12.43 11.56,-18.85 4.77,2.07 9.45,4.29 14.03,6.69 13.71,7.15 26.53,15.74 38.25,25.65 14.36,12.13 27.06,26.11 37.74,41.56 3.23,4.66 6.37,9.66 9.37,14.92 -1.33,0.15 -2.58,0.32 -3.8,0.5 -17.51,2.58 -34.87,8.67 -50.16,17.59 -14.29,8.31 -27.29,19.15 -38.61,32.23 -10.12,11.68 -18.92,25.19 -26.15,40.17 -0.8,1.65 -0.26,3.62 1.26,4.64 0.06,0.04 0.13,0.05 0.2,0.09 1.49,0.87 3.38,0.61 4.56,-0.7 10.36,-11.65 21.58,-21.45 33.34,-29.12 12.26,-8.01 25.06,-13.72 38.06,-16.98 12.79,-3.23 26.03,-4 38.57,-2.26 6.11,0.84 12.17,2.29 18.03,4.28 2.09,0.71 4.29,1.57 6.73,2.6 0.01,0.02 0.04,0.03 0.07,0.05 0.28,0.28 0.62,0.53 0.99,0.71 0.08,0.03 0.15,0.07 0.22,0.11 2.74,1.29 5.44,2.62 8.11,4.01 19.09,9.95 36.33,22.5 51.31,37.4 20.21,20.1 35.96,43.66 46.82,70.05 3.76,9.16 6.92,18.73 9.4,28.55 -15.98,-7.05 -33.45,-10.62 -51.97,-10.62 -8.67,0 -17.4,0.81 -25.93,2.42 -22.91,4.2 -45.14,13.17 -67.94,27.43 -19.55,12.3 -37.67,27.52 -53.86,45.27 -8.11,8.94 -15.43,18.21 -21.75,27.58l-9.07 14.45c-0.03,0.05 -0.05,0.1 -0.08,0.15 -5.45,-2.39 -12.01,-4.69 -15.31,-5.82 -0.06,-0.02 -0.13,-0.04 -0.18,-0.06 -6.92,-8.46 -14.53,-14.81 -22.74,-19.03 -18.16,-9.34 -39.26,-8.26 -62.3,3.44 -20.33,10.33 -34.64,25.35 -35.24,25.98l-11.79 12.49 0.38 -0.04 16.65 -1.96c11.92,-1.4 30.43,4.76 46.75,10.2 9.62,3.19 18.7,6.22 25.93,7.54 6.33,1.13 12.84,0.02 19.4,-3.3 10.79,-5.49 18.75,-15.64 21.26,-19.1 3.61,1.48 6.57,2.85 8.81,3.96 0,0 0,0 -0.01,0.01 0,0 0,0.01 -0.01,0.02 -5.73,10 -11.33,20.18 -16.75,30.03 -5.06,9.2 -10.1,18.36 -15.26,27.43 -9.52,16.67 -21.13,36.14 -35.08,54.12 -15.07,19.36 -30.29,33.46 -46.52,43.13 -1.68,1 -2.28,3.13 -1.37,4.86 0.46,0.87 1.23,1.48 2.11,1.77 0.86,0.27 1.8,0.24 2.67,-0.17 18.14,-8.51 35.64,-21.81 53.47,-40.64 16.29,-17.24 30.19,-36.08 41.64,-52.25 6.14,-8.69 12.13,-17.45 18.09,-26.16 6.29,-9.19 12.79,-18.68 19.29,-27.82 3.11,-4.38 6.28,-8.8 9.43,-13.01l4.86 -6.44 4.77 -6.04c6.24,-7.54 13.36,-14.96 21.17,-22.03 15.47,-13.95 32.28,-25.5 49.92,-34.31 18.4,-9.17 36.27,-14.59 53.17,-16.19 0.01,0.04 0.01,0.1 0.02,0.14 0.32,1.99 1.05,7.34 1.32,14.95 -4.37,1.24 -17.41,5.46 -26.83,14.23 -5.73,5.33 -9.22,11.45 -10.41,18.17 -1.35,7.71 -1.68,17.9 -2.02,28.69 -0.6,18.31 -1.26,39.07 -7.04,50.47l-8.24 16.3 0.37 -0.16 16.39 -7.05c0.85,-0.36 21.05,-9.14 38.81,-25.67 29.22,-27.19 34.63,-58.53 15.73,-90.74 0.11,-4.01 0.25,-12.72 -0.28,-19.49 10.68,0.9 20.77,3.58 29.59,7.99 1.22,0.61 2.41,1.24 3.56,1.91 13.5,7.73 24.69,20 33.25,36.49 0.14,0.25 0.3,0.49 0.5,0.7 13.19,27.32 20.25,56.69 20.96,87.32 0.01,0.81 0.07,1.62 0.12,2.42 0.06,0.83 0.12,1.66 0.12,2.5 0,11.89 -1.14,24.04 -3.47,37.18 -4.04,22.88 -11.84,44.86 -23.1,65.21 -4.47,7.46 -9.86,16.15 -15.92,24.24 -8.08,10.8 -16.12,18.91 -24.6,24.81 -9.24,6.47 -19.48,10.47 -30.41,11.89l-0.98 0.13c-1.02,0.13 -1.83,0.23 -3.37,0.33 -1.27,0.09 -2.79,0.17 -4.25,0.19 -1.55,0.03 -2.91,0.01 -4.17,-0.01l-4.73 -0.28c-5.92,-0.48 -11.84,-1.57 -17.59,-3.26 -5.27,-1.53 -10.69,-3.66 -16.33,-6.45 -5.7,-2.8 -11.63,-6.26 -17.87,-10.42 -4.82,-3.17 -9.5,-6.55 -14.47,-10.12zm-87.14 -194.34c-12.63,-6.36 -48.83,-21.75 -86.44,-11.51 0,0 38.15,-5.57 70.14,8.33 0,0 -8.17,12.3 -19.71,18.17 -4.71,2.39 -9.97,3.72 -15.47,2.71 -19.02,-3.45 -53.82,-20.22 -74.51,-17.79 0,0 13.93,-14.75 33.53,-24.7 22.81,-11.61 53.31,-16.74 78.52,15.36 0,0 8.99,2.95 15.99,5.93 -0.68,1.16 -1.38,2.34 -2.06,3.49zm275.47 55.81c-0.74,-32.01 -8.17,-62.69 -22.12,-91.21 -0.15,-0.32 -0.35,-0.6 -0.6,-0.85 -9.16,-17.33 -21.16,-30.32 -35.65,-38.61 -12.55,-7.24 -27.8,-11.03 -43.79,-11.19l0.51 9.41 0 0c0.5,8.25 0.09,19.45 0.09,19.45 22.68,37 6.37,65.6 -13.55,84.14 -17.13,15.94 -36.92,24.44 -36.92,24.44 10.01,-19.78 6.12,-60.73 9.66,-81.02 1.03,-5.87 4.28,-10.64 8.38,-14.46 10.1,-9.39 25.34,-13.03 25.34,-13.03 2.09,37.08 -17.47,73.18 -17.47,73.18 25.12,-35.4 21.74,-79.58 20.07,-92.55l0 0 -1.75 -9.45c-1.38,0.06 -2.74,0.08 -4.13,0.2 -18.3,1.46 -37.65,7.22 -57.5,17.11 -18.24,9.11 -35.6,21.03 -51.56,35.43 -8.07,7.31 -15.45,14.98 -21.94,22.82l-9.81 12.71c-3.19,4.27 -6.4,8.73 -9.54,13.16 -6.54,9.2 -13.06,18.72 -19.36,27.93 -5.95,8.68 -11.92,17.41 -18.03,26.06 -9.79,13.83 -21.39,29.63 -34.7,44.6 11.77,-16.15 21.72,-32.91 30.07,-47.55 5.19,-9.1 10.25,-18.29 15.33,-27.52 5.4,-9.82 10.98,-19.97 16.68,-29.92 2.74,-4.78 5.48,-9.51 8.39,-14.3l4.3 -7.06 4.6 -7.16c6.11,-9.04 13.19,-18.03 21.07,-26.71 15.74,-17.26 33.35,-32.07 52.35,-44.01 22,-13.74 43.38,-22.39 65.39,-26.43 25.29,-4.75 52.15,-1.92 74.22,7.97 1.75,0.77 3.45,1.65 5.16,2.52l0.84 0.44c1.26,0.64 2.76,0.5 3.89,-0.36 1.12,-0.87 1.64,-2.3 1.34,-3.68 -2.77,-12.84 -6.66,-25.37 -11.53,-37.23 -11.23,-27.3 -27.51,-51.67 -48.42,-72.46 -17.47,-17.37 -37.87,-31.65 -60.66,-42.47 -0.33,-0.37 -0.75,-0.67 -1.22,-0.88 -3.03,-1.33 -5.77,-2.4 -8.35,-3.27 -6.29,-2.16 -12.81,-3.7 -19.37,-4.61 -13.46,-1.89 -27.67,-1.05 -41.36,2.41 -13.79,3.45 -27.35,9.49 -40.28,17.95 -5.44,3.54 -10.76,7.52 -15.94,11.91 3.81,-5.69 7.89,-11.05 12.24,-16.05 10.79,-12.48 23.16,-22.8 36.77,-30.71 14.5,-8.45 30.95,-14.23 47.55,-16.69 2.63,-0.39 5.47,-0.7 8.94,-0.99 1.23,-0.1 2.32,-0.82 2.9,-1.91 0.59,-1.08 0.59,-2.4 0,-3.48 -3.92,-7.29 -8.12,-14.17 -12.49,-20.45 -11.05,-15.98 -24.18,-30.44 -39.03,-42.99 -17,-14.36 -36.21,-26.04 -57.09,-34.72 -1.67,-0.69 -3.59,-0.05 -4.53,1.51 -4.39,7.34 -8.84,14.52 -13.15,21.5 -8.95,14.55 -17.5,28.82 -23.75,43.49 -6.58,15.34 -10.2,30.36 -11.08,45.9 -0.89,14.97 0.72,31.39 4.79,48.78 0.92,3.96 1.99,8.07 3.17,12.23 0.34,1.17 0.71,2.43 1.1,3.73 0.87,2.88 1.81,6.04 2.57,9.12 1.89,7.51 3.92,17.51 2.92,28.18 -0.96,11.06 -5.63,20.53 -9.38,26.55 -4.91,7.92 -10.71,14.87 -16.23,21.18 -6.46,7.28 -13.19,14.32 -19.71,21.14 -3.63,3.8 -7.37,7.7 -11.03,11.65 3.18,-4.39 6.43,-8.74 9.59,-13 5.63,-7.55 11.45,-15.37 16.82,-23.16 9.88,-14.47 18.91,-29.94 18.07,-44.97 -0.21,-6.68 -1.95,-13.99 -5.45,-23.03 -1.01,-2.61 -2.09,-5.09 -3.27,-7.79 -0.55,-1.25 -1.12,-2.55 -1.71,-3.93 -1.8,-4.25 -3.47,-8.47 -4.97,-12.55 -6.92,-18.85 -10.84,-36.45 -11.98,-53.81 -1.27,-18.15 0.95,-37.63 6.41,-56.37 5.42,-18.9 13.54,-36.7 20.06,-50.98 3.84,-8.36 7.56,-16.47 11.12,-24.51 0.66,-1.52 0.24,-3.28 -1.05,-4.33 -24.06,-19.57 -52.9,-29.91 -83.41,-29.91 -14.75,0 -29.37,2.48 -43.43,7.38 -1.48,0.51 -2.46,1.9 -2.46,3.45l0 1027.43c0,1.36 0.76,2.61 1.97,3.24 10.73,5.58 21.96,10.09 33.39,13.39 16.72,4.84 33.75,7.29 50.62,7.29 16.76,0 33.69,-2.42 50.33,-7.21 31.04,-8.93 59.28,-26.06 81.74,-49.56 34.91,-6.27 67.46,-24.07 91.77,-50.24 8.62,-9.29 16.11,-19.43 22.26,-30.12 5.55,-9.63 10.19,-19.97 13.76,-30.74 0.46,-1.37 0.07,-2.88 -1,-3.85 -1.06,-0.98 -2.59,-1.24 -3.91,-0.67l-1.53 0.68c-0.94,0.41 -1.88,0.83 -2.83,1.23 -24.45,10.09 -48.74,15.21 -72.2,15.21 -0.95,0 -1.89,-0.01 -2.85,-0.03 -24.65,-0.3 -49.55,-6.75 -72,-18.63 -8.44,-4.45 -16.44,-9.52 -23.87,-15.12 8.15,4.27 16.76,7.91 25.68,10.89 15.88,5.3 32.1,7.99 48.21,7.99 7.11,0 14.19,-0.54 21.06,-1.6 21.34,-3.17 42.64,-11.29 63.31,-24.12 9.71,-6.02 19.48,-13.22 29.06,-21.42 0.42,-0.36 0.74,-0.8 0.96,-1.29 18.42,-17.57 33.52,-37.97 44.9,-60.66 10.73,-21.37 17.83,-44.26 21.12,-68.06 1.26,-9.01 1.98,-17.2 2.21,-25.02 0.05,-1.43 -0.75,-2.75 -2.03,-3.39 -1.28,-0.63 -2.81,-0.46 -3.93,0.45 -8.02,6.55 -15.91,11.73 -24.12,15.83 -13.86,7.05 -29.84,10.92 -44.98,10.92l-1.72 -0.02c-1.74,-0.01 -4.35,-0.1 -5.86,-0.24 -2.1,-0.14 -3.94,-0.31 -5.93,-0.58 -1.87,-0.22 -3.99,-0.55 -5.78,-0.86l-5.6 -1.14c-7.5,-1.7 -14.84,-4.17 -21.81,-7.36 -1.84,-0.83 -3.65,-1.73 -5.47,-2.67l-3.87 7.11c-3.51,7.93 -8.28,16.81 -8.28,16.81 4.5,47.73 -25.57,68.11 -54.33,76.76 -24.72,7.45 -48.47,6.21 -48.47,6.21 19.55,-14.72 35.59,-57.21 48.97,-75.57 3.86,-5.32 9.41,-8.45 15.34,-10.24 14.56,-4.37 31.44,-0.55 31.44,-0.55 -15.96,37.76 -52.88,63.99 -52.88,63.99 39.37,-21.34 57.74,-62.39 63.77,-78.8l2.65 -8.85c-8.33,-4.91 -16.67,-11.1 -25.56,-19.01 -4.71,-4.16 -9.26,-8.51 -13.66,-12.73 -5.92,-5.68 -11.52,-11.03 -17.51,-15.99 -6.59,-5.4 -12.06,-8.63 -17.72,-10.5 -3.41,-1.11 -6.8,-1.73 -10.28,-1.89 -0.32,-0.02 -0.65,-0.04 -0.98,-0.06 0.33,-0.03 0.65,-0.06 0.98,-0.08 3.45,-0.33 7.15,-0.18 10.63,0.45 7.99,1.43 15.24,5.41 19.95,8.27 7.13,4.4 13.83,9.23 20.32,13.9 5.03,3.61 9.78,7.04 14.72,10.28 13.03,8.68 24.86,14.5 36.18,17.79 6.22,1.82 12.62,3.01 19.12,3.53l4.96 0.29c1.61,0.03 3.03,0.05 4.57,0.01 1.58,-0.01 3.28,-0.1 4.63,-0.21 1.69,-0.09 2.62,-0.21 3.8,-0.36l0.97 -0.13c12.13,-1.57 23.45,-6 33.66,-13.14 9.12,-6.35 17.71,-14.99 26.27,-26.43 6.26,-8.34 11.77,-17.25 16.41,-24.97 11.73,-21.18 19.79,-43.92 23.97,-67.59 2.42,-13.56 3.58,-26.14 3.58,-38.45 0,-1.02 -0.06,-2.01 -0.14,-3.01 -0.04,-0.69 -0.09,-1.38 -0.11,-2.09z"/>
    <path class="fil2" d="M784.49 2020.3c-14.43,14.86 -24.6,31.09 -30.2,48.21 -0.8,2.42 -1.46,4.63 -2.02,6.83l-0.79 3.38c-0.27,1.3 -0.55,2.61 -0.7,3.55 -0.81,4.23 -1.35,9.06 -1.56,14 -0.34,9.36 0.66,18.91 2.96,28.36 2.6,10.84 7.1,22.01 13.59,33.78 -8.75,-9.2 -15.73,-19.98 -20.32,-31.59 -3.83,-9.58 -5.93,-19.87 -6.25,-30.58 -0.14,-5 0.2,-10.21 1.01,-15.91 0.16,-1.13 0.34,-2.09 0.52,-3.01l1 -4.63c0.64,-2.64 1.36,-5.21 2.15,-7.62 6.22,-18.99 18.98,-36.77 35.93,-50.04 9.94,-7.76 20.95,-13.9 32.54,-18.23 -10.92,7.66 -20.01,15.35 -27.87,23.49zm-0.71 158.33c1.22,-1.26 1.39,-3.2 0.38,-4.65 -12.92,-18.54 -21.06,-35.24 -24.87,-51.07 -2.15,-8.8 -3.06,-17.67 -2.75,-26.36 0.18,-4.55 0.68,-9.01 1.45,-13 0.16,-0.94 0.4,-2.15 0.65,-3.33l0.74 -3.11c0.5,-1.99 1.11,-4.04 1.86,-6.3 5.26,-16.08 14.85,-31.35 28.5,-45.41 11.72,-12.15 26.34,-23.24 46.03,-34.94 1.51,-0.9 2.18,-2.74 1.58,-4.4 -0.29,-0.79 -0.84,-1.43 -1.53,-1.85 -0.73,-0.45 -1.6,-0.65 -2.5,-0.51 -20.87,3.4 -40.91,12.24 -57.98,25.57 -18.08,14.16 -31.72,33.17 -38.38,53.53 -0.85,2.59 -1.63,5.36 -2.32,8.23l-1.06 4.91c-0.19,1.05 -0.4,2.12 -0.58,3.37 -0.87,6.11 -1.23,11.71 -1.08,17.15 0.35,11.58 2.62,22.71 6.77,33.08 7.85,19.87 22.23,37.48 40.47,49.58 0.06,0.04 0.13,0.06 0.19,0.09 0.58,0.33 1.2,0.52 1.83,0.52 0.95,0 1.91,-0.38 2.61,-1.11z"/>
    <path class="fil2" d="M1089.2 1720.26c2.99,11.32 4.47,23 4.35,34.57 -0.18,14.83 -3.31,36.41 -17.32,54.98 -6.15,8.13 -13.93,14.87 -22.51,19.46 -8.5,4.6 -18.25,7.41 -28.15,8.12 -1.91,0.13 -3.79,0.19 -5.67,0.19 0,0 0,0 0,0 -9.54,0 -19.28,-1.68 -28.83,-4.92 12.95,0.69 23.78,-0.03 33.5,-2.24 17.73,-3.86 32.58,-13.29 42.94,-27.26 9.48,-12.59 15.87,-29.05 18.99,-48.9 1.83,-11.26 2.51,-22.71 2.69,-34.01zm-121.21 109.8c2.11,1.24 4.24,2.41 6.4,3.49 14.71,7.45 30.31,11.36 45.51,11.36 0,0 0,0 0,0 2.05,0 4.09,-0.07 6.18,-0.21 10.95,-0.8 21.7,-3.9 31.1,-8.97 9.5,-5.09 18.1,-12.52 24.9,-21.51 15.19,-20.15 18.59,-43.37 18.78,-59.3 0.22,-19.67 -3.98,-39.65 -12.12,-57.77 -0.34,-0.76 -0.92,-1.34 -1.6,-1.71 -0.76,-0.41 -1.65,-0.57 -2.53,-0.37 -1.7,0.39 -2.88,1.92 -2.85,3.65 0.36,17.66 0.47,36.42 -2.47,54.39 -2.93,18.67 -8.85,34.03 -17.62,45.68 -9.3,12.53 -22.66,21 -38.67,24.48 -6.86,1.56 -14.33,2.32 -22.85,2.32 -8.46,0 -17.66,-0.72 -29.82,-2.32 -1.73,-0.24 -3.37,0.8 -3.93,2.45 -0.57,1.65 0.1,3.46 1.61,4.34z"/>
    <path class="fil2" d="M586.91 1471.07c-5.08,-2.37 -8.6,-6.5 -11.07,-11.17 -6.04,-11.48 -5.63,-26.24 -5.63,-26.24 34.12,7.15 62.08,33.76 62.08,33.76 -24.88,-30.19 -63.43,-38.53 -77.33,-40.63l1.07 -3.88c7.31,1.64 15.86,4.28 15.86,4.28 39.07,-11.63 61.02,10.21 72.95,32.88 10.27,19.47 13.14,39.57 13.14,39.57 -15.49,-13.95 -53.56,-20.4 -71.08,-28.58zm53.93 784.63c-9.7,4.89 -19.81,8.88 -30.08,11.86 -32.03,9.25 -64.85,9.29 -96.92,0.07 -30.16,-8.68 -57.58,-25.43 -79.28,-48.43 -0.54,-0.58 -1.26,-0.97 -2.04,-1.1 -33.79,-5.8 -65.34,-22.92 -88.84,-48.21 -8.24,-8.89 -15.41,-18.57 -21.29,-28.79 -3.96,-6.87 -7.43,-14.11 -10.35,-21.63 24.24,9.59 48.35,14.45 71.74,14.45 0.99,0 1.97,0 2.93,-0.02 25.81,-0.32 51.86,-7.06 75.32,-19.48 11.4,-6.02 22.02,-13.1 31.55,-21.06 10.44,-8.61 19.83,-18.1 26.85,-25.41 1.32,-1.38 1.36,-3.53 0.1,-4.97 -1.26,-1.43 -3.4,-1.65 -4.92,-0.51 -7.92,5.93 -18.43,13.55 -29.59,20.02 -9.78,5.76 -20.38,10.57 -31.51,14.27 -3.57,1.2 -7.19,2.2 -10.8,3.11 -0.94,-2.44 -2.2,-5.92 -3.47,-10.25 3.68,-2.16 14.55,-9.1 21.07,-19.31 3.95,-6.22 5.7,-12.6 5.19,-19.01 -0.59,-7.35 -2.69,-16.7 -4.92,-26.61 -3.78,-16.82 -8.07,-35.88 -5.51,-47.61l3.68 -16.8 -13.57 10.52c-0.68,0.54 -17.01,13.31 -29.28,32.57 -20.19,31.67 -17.73,61.49 7.07,86.34 0.66,2.83 1.96,8.23 3.46,13.32 -13.08,1.78 -26.18,1.77 -38.79,-0.17 -20.36,-3.03 -40.74,-10.81 -60.55,-23.11 -9.07,-5.63 -18.24,-12.35 -27.26,-19.98 -0.19,-0.38 -0.45,-0.73 -0.76,-1.03 -18.18,-17.17 -33.05,-37.16 -44.23,-59.42 -10.37,-20.65 -17.24,-42.77 -20.41,-65.78 -0.8,-5.77 -1.38,-11.17 -1.75,-16.35 6.3,4.63 12.59,8.5 19.08,11.75 14.88,7.55 32.02,11.72 48.28,11.72l1.78 -0.02c1.89,-0.02 4.68,-0.1 6.3,-0.26 2.26,-0.15 4.24,-0.34 6.3,-0.61 1.99,-0.24 4.25,-0.59 6.38,-0.96l5.75 -1.18c7.98,-1.81 15.8,-4.44 23.2,-7.81 12.9,-5.85 25.15,-14.11 38.52,-26.02 4.82,-4.26 9.42,-8.66 13.87,-12.92 5.83,-5.59 11.34,-10.85 17.09,-15.62 5.87,-4.8 10.61,-7.63 15.36,-9.2 2.79,-0.91 5.55,-1.42 8.48,-1.55 3.27,-0.21 6.41,-0.17 9.43,0.15 6.24,0.67 12.26,2.75 17.41,6.03 4.99,3.12 9.8,7.62 14.29,13.39 0.72,0.92 1.79,1.41 2.87,1.41 0.03,0 0.06,0 0.07,0 2.03,0 3.65,-1.64 3.65,-3.65 0,-0.92 -0.33,-1.76 -0.88,-2.4 -4.11,-7.03 -8.69,-12.61 -13.95,-17.05 -5.93,-5.07 -13.23,-8.79 -21.09,-10.77 -3.57,-0.92 -7.49,-1.54 -11.58,-1.85 -4.08,-0.4 -8.45,-0.22 -12.59,0.53 -9.2,1.64 -17.24,6.05 -22.5,9.25 -7.35,4.53 -14.15,9.44 -20.75,14.18 -4.96,3.57 -9.65,6.95 -14.49,10.13 -12.41,8.27 -23.58,13.78 -34.19,16.87 -5.74,1.69 -11.66,2.77 -17.5,3.25l-4.66 0.27c-1.5,0.03 -2.69,0.05 -4.36,0.02 -1.42,-0.02 -2.93,-0.1 -4.29,-0.2 -1.46,-0.09 -2.27,-0.19 -3.28,-0.32l-0.96 -0.12c-10.95,-1.43 -21.19,-5.43 -30.44,-11.9 -8.47,-5.9 -16.52,-14.01 -24.59,-24.82 -6.05,-8.06 -11.45,-16.78 -15.87,-24.12 -11.33,-20.46 -19.12,-42.45 -23.16,-65.32 -2.34,-13.13 -3.47,-25.29 -3.47,-37.18 0,-0.84 0.06,-1.67 0.12,-2.5 0.06,-0.81 0.11,-1.61 0.13,-2.43 0.71,-30.61 7.74,-59.97 20.93,-87.27 0.2,-0.22 0.38,-0.48 0.52,-0.75 8.56,-16.49 19.76,-28.76 33.26,-36.49 13.8,-7.96 31.1,-11.48 49.32,-9.93 17.38,1.39 35.82,6.9 54.82,16.37 10.96,5.46 21.58,11.99 31.75,19.47 -3.47,5.22 -7.22,12.05 -8.93,15.26 -30.45,17.47 -40.62,45.59 -29.43,81.46 6.8,21.81 19.21,38.42 19.73,39.12l10.34 13.72 0.85 -17.17c0.6,-12.01 9.73,-29.27 17.77,-44.5 4.75,-8.97 9.23,-17.45 11.73,-24.38 2.17,-6.05 2.16,-12.67 -0.04,-19.71 -3.61,-11.57 -12.29,-21.13 -15.27,-24.17 2.5,-4.06 4.71,-7.2 6.27,-9.3 1.74,1.48 3.46,2.97 5.16,4.5 7.81,7.08 14.94,14.49 21.15,22.01l9.65 12.5c3.15,4.21 6.33,8.63 9.44,13.01 6.5,9.15 12.99,18.64 19.28,27.82 5.97,8.72 11.97,17.47 18.1,26.16 11.45,16.17 25.34,35.01 41.63,52.25 17.84,18.83 35.33,32.13 53.48,40.64 0.5,0.24 1.02,0.35 1.55,0.35 0.02,0 0.05,0 0.07,0 2.02,0 3.65,-1.64 3.65,-3.66 0,-1.53 -0.93,-2.82 -2.26,-3.38 -16.09,-9.66 -31.18,-23.69 -46.12,-42.88 -13.95,-17.99 -25.57,-37.47 -35.08,-54.13 -5.16,-9.06 -10.21,-18.22 -15.27,-27.43 -5.41,-9.85 -11.02,-20.03 -16.75,-30.03 -2.77,-4.84 -5.54,-9.62 -8.48,-14.49l-4.36 -7.13 -4.73 -7.35c-6.3,-9.34 -13.6,-18.61 -21.73,-27.55 -16.19,-17.74 -34.3,-32.97 -53.87,-45.28 -15.14,-9.46 -30.04,-16.55 -45.04,-21.51 0.66,-2.55 2.18,-8 4.88,-15.15 4.98,0.62 20.06,1.91 33.39,-2.98 8.1,-2.97 14.28,-7.68 18.35,-14.03 4.67,-7.28 9.35,-17.5 14.31,-28.34 8.42,-18.39 17.96,-39.23 28.7,-48.35l15.37 -13.05 -20.14 0.14c-1.02,0.01 -25.34,0.28 -50.47,9.49 -41.36,15.14 -60.25,44.72 -54.77,85.62 -1.97,4.34 -6.31,14.26 -8.56,21.59 -1.32,-0.28 -2.62,-0.59 -3.94,-0.83 -8.54,-1.61 -17.28,-2.42 -25.95,-2.42 -18.51,0 -36,3.57 -51.96,10.62 2.48,-9.81 5.63,-19.39 9.4,-28.55 10.86,-26.39 26.6,-49.95 46.81,-70.05 17.15,-17.03 37.21,-31 59.64,-41.52 0.34,-0.16 0.66,-0.41 0.95,-0.71 2.48,-1.06 4.72,-1.93 6.85,-2.65 5.86,-2 11.93,-3.44 18.02,-4.28 12.54,-1.76 25.79,-0.99 38.59,2.26 12.99,3.24 25.8,8.96 38.06,16.99 11.75,7.66 22.96,17.47 33.33,29.11 0.73,0.82 1.75,1.22 2.77,1.22 1.91,-0.09 3.68,-1.63 3.68,-3.65 0,-0.82 -0.27,-1.59 -0.73,-2.2 -7.18,-14.74 -15.88,-28.05 -25.86,-39.56 -11.33,-13.08 -24.32,-23.92 -38.61,-32.24 -15.3,-8.92 -32.64,-15.01 -50.17,-17.59 -1.22,-0.18 -2.47,-0.35 -3.8,-0.5 3.01,-5.27 6.16,-10.27 9.37,-14.92 10.7,-15.45 23.39,-29.43 37.74,-41.56 15.64,-13.22 33.21,-24.09 52.29,-32.34 3.88,6.42 7.77,12.72 11.57,18.85 8.8,14.3 17.2,28.31 23.24,42.54 6.24,14.54 9.67,28.75 10.51,43.44 0.85,14.26 -0.71,29.97 -4.61,46.68 -0.9,3.85 -1.94,7.85 -3.08,11.87 -0.33,1.16 -0.7,2.39 -1.08,3.66 -0.9,2.98 -1.87,6.25 -2.65,9.43 -2.03,8.09 -4.22,18.88 -3.12,30.6 1.09,12.51 6.29,23.1 10.46,29.77 5.18,8.38 11.21,15.61 16.98,22.19 6.55,7.38 13.32,14.47 19.88,21.34 5.27,5.51 10.71,11.21 15.92,16.95 13.48,14.66 23.88,27.31 32.73,39.8 0.71,1.01 1.84,1.55 2.97,1.55 0.03,-0.01 0.05,-0.01 0.07,0 2.03,-0.01 3.65,-1.64 3.65,-3.66 0,-0.88 -0.3,-1.69 -0.82,-2.32 -7.38,-13.65 -16.28,-27.65 -27.97,-44 -4.57,-6.46 -9.36,-12.89 -13.98,-19.11 -5.59,-7.5 -11.37,-15.26 -16.64,-22.92 -9.16,-13.4 -17.52,-27.58 -16.8,-40.59 0.18,-5.83 1.75,-12.39 4.96,-20.64 0.97,-2.51 2.01,-4.89 3.14,-7.5 0.56,-1.27 1.13,-2.58 1.75,-4 1.84,-4.36 3.55,-8.69 5.09,-12.88 1.15,-3.12 2.19,-6.2 3.17,-9.25 2.56,0.38 6.2,1.02 10.56,2.03 0.06,4.27 0.71,17.18 6.36,27.9 3.43,6.51 8.11,11.19 13.93,13.91 6.67,3.1 15.82,5.89 25.51,8.84 10.49,3.19 21.87,6.66 31.06,10.83l0 759.3zm-234.61 -612.55c-7.55,10.04 -30.57,44.33 -26.57,84.75 0,0 0.85,-38.63 19.83,-67.93 0,0 10.75,10.11 14.61,22.5 1.58,5.04 2.02,10.46 0.11,15.73 -6.55,18.22 -28.81,49.85 -29.85,70.69 0,0 -12.21,-16.21 -18.75,-37.23 -7.64,-24.47 -7.63,-55.46 28.12,-75.05 0,0 4.97,-9.51 9.25,-16.03 1.09,0.84 2.17,1.71 3.24,2.57zm-77.51 -85.06c2.78,-8.76 8.98,-22.13 8.98,-22.13 -7.3,-47.39 21.53,-69.5 49.73,-79.83 24.23,-8.88 48.01,-9.04 48.01,-9.04 -18.64,15.84 -32.16,59.2 -44.44,78.32 -3.54,5.53 -8.9,8.99 -14.71,11.13 -14.28,5.22 -31.35,2.4 -31.35,2.4 13.7,-38.64 49.03,-67.01 49.03,-67.01 -42.67,26.51 -57.58,76.31 -60.45,87.44 -1.6,-0.45 -3.2,-0.86 -4.81,-1.28zm206.84 -282.72c-3.42,-7.43 -6.75,-14.65 -9.93,-21.82 22.3,-17.38 48.73,-26.55 76.64,-26.55 13.07,0 26.04,2.08 38.58,6.15l0 209.24c-17.2,-21.99 -40.69,-29.5 -68.9,-21.71 -2.91,-0.87 -8.63,-2.51 -14.03,-3.74 2.5,-10.4 4.09,-20.56 4.75,-30.65 1.33,-19.01 -0.98,-39.37 -6.67,-58.9 -5.57,-19.42 -13.81,-37.5 -20.44,-52.03zm114.8 181.8c-0.71,-1.36 -1.47,-2.61 -2.21,-3.89l0 -222.75c0,-1.56 -0.99,-2.94 -2.46,-3.45 -14.07,-4.9 -28.68,-7.38 -43.43,-7.38 -30.52,0 -59.36,10.34 -83.42,29.91 -1.28,1.04 -1.71,2.81 -1.04,4.33 3.54,8.04 7.27,16.15 11.11,24.49 6.53,14.3 14.65,32.1 20.07,51.02 5.45,18.71 7.66,38.19 6.4,56.36 -1.14,17.36 -5.05,34.95 -11.98,53.8 -1.5,4.08 -3.16,8.31 -4.96,12.54 -0.6,1.39 -1.16,2.68 -1.71,3.93 -1.19,2.71 -2.27,5.19 -3.27,7.79 -3.51,9.05 -5.24,16.37 -5.45,22.95 -0.85,15.12 8.18,30.59 18.08,45.06 5.36,7.78 11.17,15.61 16.8,23.16 3.17,4.26 6.42,8.61 9.6,13 -3.67,-3.94 -7.41,-7.84 -11.04,-11.65 -6.52,-6.82 -13.24,-13.86 -19.69,-21.13 -5.53,-6.32 -11.34,-13.26 -16.25,-21.21 -3.74,-6 -8.42,-15.47 -9.37,-26.56 -1,-10.64 1.04,-20.64 2.92,-28.16 0.77,-3.08 1.71,-6.23 2.56,-9.11 0.39,-1.31 0.77,-2.55 1.11,-3.74 1.18,-4.13 2.25,-8.24 3.17,-12.21 4.06,-17.41 5.68,-33.82 4.79,-48.78 -0.88,-15.55 -4.51,-30.57 -11.09,-45.89 -6.24,-14.69 -14.79,-28.96 -23.75,-43.52 -4.31,-6.98 -8.75,-14.16 -13.15,-21.5 -0.93,-1.55 -2.85,-2.19 -4.53,-1.5 -20.87,8.67 -40.08,20.35 -57.09,34.72 -14.84,12.55 -27.98,27.02 -39.03,42.99 -4.35,6.27 -8.54,13.15 -12.49,20.45 -0.59,1.09 -0.58,2.41 0,3.48 0.59,1.09 1.69,1.81 2.91,1.91 3.46,0.29 6.31,0.6 8.93,0.99 16.62,2.46 33.06,8.23 47.56,16.69 13.6,7.9 25.97,18.23 36.77,30.71 4.34,5 8.42,10.36 12.24,16.05 -5.18,-4.38 -10.5,-8.36 -15.94,-11.9 -12.94,-8.47 -26.5,-14.51 -40.28,-17.96 -13.69,-3.46 -27.9,-4.29 -41.36,-2.41 -6.56,0.91 -13.08,2.46 -19.37,4.61 -2.58,0.87 -5.32,1.95 -8.35,3.27 -0.47,0.21 -0.89,0.5 -1.23,0.88 -22.77,10.82 -43.17,25.1 -60.65,42.47 -20.9,20.78 -37.2,45.16 -48.42,72.46 -4.88,11.86 -8.76,24.38 -11.54,37.23 -0.3,1.39 0.22,2.81 1.35,3.68 1.12,0.86 2.63,1 3.89,0.36l0.82 -0.43c1.71,-0.88 3.42,-1.77 5.19,-2.54 15.2,-6.81 31.89,-10.26 49.6,-10.26 8.22,0 16.51,0.78 24.62,2.3 22,4.04 43.38,12.68 65.37,26.43 19,11.95 36.61,26.76 52.35,44 7.88,8.68 14.97,17.67 21.05,26.7l8.92 14.21c2.91,4.81 5.65,9.54 8.4,14.32 5.69,9.95 11.28,20.11 16.69,29.92 5.07,9.23 10.13,18.43 15.31,27.53 8.35,14.62 18.31,31.39 30.08,47.54 -13.31,-14.97 -24.91,-30.77 -34.7,-44.59 -6.12,-8.66 -12.09,-17.39 -18.03,-26.07 -6.31,-9.21 -12.82,-18.73 -19.36,-27.93 -3.14,-4.43 -6.36,-8.89 -9.55,-13.16l-4.92 -6.53 -4.91 -6.22c-6.47,-7.81 -13.83,-15.49 -21.92,-22.79 -15.96,-14.4 -33.3,-26.32 -51.56,-35.43 -19.84,-9.89 -39.18,-15.64 -57.48,-17.11 -19.58,-1.66 -38.47,2.18 -53.55,10.88 -14.48,8.28 -26.47,21.26 -35.64,38.54 -0.25,0.27 -0.47,0.58 -0.63,0.92 -13.93,28.51 -21.38,59.2 -22.12,91.21 -0.01,0.71 -0.06,1.4 -0.11,2.09 -0.07,1.01 -0.14,2 -0.14,3.01 0,12.33 1.18,24.9 3.58,38.45 4.19,23.67 12.26,46.42 24.04,67.7 4.57,7.61 10.1,16.53 16.34,24.86 8.55,11.44 17.15,20.08 26.27,26.43 10.21,7.15 21.54,11.58 33.7,13.15l0.93 0.11c1.18,0.16 2.12,0.28 3.72,0.37 1.43,0.11 3.13,0.2 4.67,0.21 1.66,0.04 2.91,0.02 4.77,-0.02l4.88 -0.28c6.42,-0.52 12.83,-1.72 19.04,-3.53 11.32,-3.29 23.15,-9.11 36.17,-17.78 4.96,-3.25 9.71,-6.68 14.73,-10.29 6.49,-4.68 13.2,-9.51 20.3,-13.88 4.74,-2.88 11.98,-6.87 19.97,-8.29 3.48,-0.63 7.04,-0.8 10.7,-0.44 0.31,0.02 0.61,0.05 0.92,0.07 -0.31,0.02 -0.62,0.04 -0.93,0.05 -3.53,0.17 -6.92,0.79 -10.35,1.91 -5.66,1.86 -11.12,5.09 -17.73,10.5 -5.97,4.95 -11.57,10.31 -17.5,15.98 -4.4,4.22 -8.94,8.57 -13.66,12.74 -12.82,11.41 -24.48,19.29 -36.7,24.83 -6.97,3.17 -14.3,5.65 -21.73,7.33l-5.56 1.14c-1.9,0.33 -4.02,0.66 -5.94,0.89 -1.95,0.25 -3.78,0.43 -5.98,0.58 -1.41,0.13 -4.02,0.22 -5.8,0.23l-1.69 0.02c-15.14,0 -31.11,-3.87 -45,-10.93 -8.19,-4.1 -16.09,-9.27 -24.1,-15.82 -1.11,-0.91 -2.64,-1.08 -3.93,-0.45 -1.28,0.63 -2.08,1.96 -2.03,3.39 0.23,7.81 0.96,16 2.21,25.01 3.28,23.8 10.39,46.71 21.12,68.07 11.38,22.67 26.49,43.07 44.89,60.65 0.22,0.49 0.55,0.94 0.97,1.3 9.59,8.19 19.37,15.4 29.06,21.42 20.67,12.83 41.98,20.95 63.3,24.12 15.5,2.39 31.69,2.01 47.75,-0.93 -1.14,-4.13 -2.56,-9.85 -3.7,-14.51 -1.15,-4.49 -1.96,-8.11 -1.96,-8.11 -29.37,-28.31 -21.27,-58.21 -7.49,-79.82 11.83,-18.56 27.84,-30.99 27.84,-30.99 -4.45,20.38 8.75,56.75 10.3,76.06 0.46,5.58 -1.39,10.7 -4.22,15.15 -6.98,10.93 -20,17.86 -20,17.86 -10.64,-33.27 -1.35,-70.77 -1.35,-70.77 -11.75,35.29 -4.39,68.46 5.42,94.22 5.6,-1.21 11.17,-2.71 16.68,-4.56 8.93,-2.97 17.53,-6.63 25.68,-10.89 -7.42,5.6 -15.42,10.67 -23.86,15.12 -22.46,11.89 -47.36,18.33 -72.03,18.63 -24.36,0.52 -49.59,-4.68 -75.03,-15.18 -0.94,-0.39 -1.87,-0.8 -2.79,-1.21l-1.56 -0.7c-1.33,-0.56 -2.86,-0.31 -3.92,0.67 -1.06,0.97 -1.46,2.49 -1,3.85 3.58,10.77 8.21,21.11 13.76,30.74 6.16,10.7 13.64,20.83 22.27,30.13 24.31,26.16 56.86,43.96 91.76,50.23 22.47,23.5 50.7,40.63 81.74,49.56 16.64,4.78 33.57,7.21 50.34,7.21 16.87,0 33.89,-2.45 50.62,-7.29 11.43,-3.31 22.66,-7.81 33.38,-13.39 1.22,-0.63 1.98,-1.89 1.98,-3.24l0 -757.75c2.16,1.3 4.08,2.65 5.68,4.09l12.75 11.5 -2.43 -17.02c-0.13,-0.86 -3.15,-21.4 -13.8,-41.6z"/>
    <path class="fil2" d="M593.92 2126.84c-4.59,11.61 -11.57,22.39 -20.33,31.59 6.51,-11.78 10.99,-22.94 13.6,-33.78 2.31,-9.45 3.29,-18.99 2.95,-28.36 -0.2,-4.94 -0.74,-9.77 -1.56,-14 -0.15,-0.94 -0.42,-2.26 -0.69,-3.55l-0.8 -3.38c-0.55,-2.2 -1.21,-4.41 -2.01,-6.83 -5.61,-17.13 -15.77,-33.35 -30.2,-48.21 -7.86,-8.14 -16.96,-15.83 -27.87,-23.49 11.6,4.32 22.59,10.47 32.54,18.23 16.95,13.27 29.71,31.05 35.93,50.04 0.79,2.42 1.51,4.98 2.15,7.62l1 4.63c0.17,0.93 0.36,1.89 0.52,3.01 0.81,5.7 1.14,10.91 1.01,15.91 -0.32,10.71 -2.43,21 -6.25,30.58zm11.89 -50.89l-1.06 -4.91c-0.69,-2.87 -1.46,-5.64 -2.31,-8.23 -6.68,-20.36 -20.3,-39.37 -38.38,-53.53 -17.08,-13.33 -37.13,-22.17 -57.98,-25.57 -1.74,-0.28 -3.42,0.71 -4.02,2.36 -0.6,1.66 0.06,3.5 1.57,4.4 19.69,11.7 34.32,22.79 46.03,34.94 13.66,14.06 23.24,29.33 28.51,45.41 0.75,2.26 1.36,4.31 1.86,6.3l0.74 3.11c0.24,1.19 0.49,2.4 0.64,3.33 0.77,3.99 1.27,8.45 1.46,13 0.31,8.68 -0.61,17.55 -2.75,26.36 -3.81,15.83 -11.95,32.52 -24.87,51.07 -1.01,1.45 -0.85,3.39 0.38,4.65 0.71,0.73 1.66,1.11 2.61,1.11 0.7,0 1.4,-0.2 2.02,-0.61 18.23,-12.11 32.6,-29.71 40.47,-49.58 4.14,-10.37 6.42,-21.51 6.76,-33.08 0.15,-5.44 -0.2,-11.04 -1.08,-17.15 -0.17,-1.26 -0.38,-2.33 -0.58,-3.37z"/>
    <path class="fil2" d="M319.49 1837.59c0,0 0,0 0,0 -1.89,0 -3.76,-0.06 -5.67,-0.19 -9.91,-0.72 -19.65,-3.52 -28.15,-8.12 -8.59,-4.6 -16.38,-11.33 -22.52,-19.46 -13.99,-18.57 -17.14,-40.15 -17.32,-54.98 -0.12,-11.57 1.37,-23.25 4.36,-34.57 0.17,11.3 0.86,22.75 2.69,34.01 3.12,19.85 9.51,36.31 18.98,48.9 10.36,13.96 25.22,23.39 42.94,27.26 9.73,2.21 20.55,2.92 33.51,2.24 -9.56,3.24 -19.29,4.92 -28.83,4.92zm49.58 -14.31c-12.17,1.6 -21.36,2.32 -29.82,2.32 -8.52,0 -16,-0.76 -22.85,-2.32 -16.01,-3.48 -29.38,-11.95 -38.68,-24.48 -8.76,-11.65 -14.68,-27.01 -17.61,-45.68 -2.93,-17.97 -2.82,-36.73 -2.48,-54.39 0.04,-1.75 -1.15,-3.26 -2.84,-3.65 -1.69,-0.39 -3.42,0.48 -4.13,2.08 -8.14,18.12 -12.34,38.1 -12.13,57.77 0.19,15.93 3.6,39.15 18.79,59.3 6.79,8.98 15.4,16.42 24.89,21.51 9.4,5.07 20.16,8.17 31.11,8.97 2.08,0.14 4.13,0.21 6.18,0.21 0,0 0,0 0,0 17.43,0 35.37,-5.13 51.91,-14.85 1.5,-0.88 2.17,-2.69 1.61,-4.34 -0.57,-1.65 -2.21,-2.68 -3.93,-2.45z"/>
    <path class="fil1" d="M314.81 1830.43c-17.72,-3.86 -32.58,-13.29 -42.94,-27.26 -9.47,-12.59 -15.87,-29.05 -18.98,-48.9 -1.84,-11.26 -2.52,-22.71 -2.69,-34.01 -2.99,11.32 -4.48,23 -4.36,34.57 0.18,14.83 3.32,36.41 17.32,54.98 6.15,8.13 13.93,14.87 22.52,19.46 8.5,4.6 18.24,7.41 28.15,8.12 1.91,0.13 3.78,0.19 5.67,0.19 0,0 0,0 0,0 9.54,0 19.27,-1.68 28.83,-4.92 -12.96,0.69 -23.78,-0.03 -33.51,-2.24z"/>
   </g>
  </g>
 </g>
</svg>
